<svg version="1.1" xmlns="http://www.w3.org/2000/svg" xmlns:xlink="http://www.w3.org/1999/xlink" width="50.0252" height="18.2015" viewBox="0,0,50.0252,18.2015"><g transform="translate(-118.4784,-7.45557)"><g data-paper-data="{&quot;isPaintingLayer&quot;:true}" fill-rule="nonzero" stroke="none" stroke-width="0" stroke-linecap="butt" stroke-linejoin="miter" stroke-miterlimit="10" stroke-dasharray="" stroke-dashoffset="0" style="mix-blend-mode: normal"><g data-paper-data="{&quot;origPos&quot;:null}" fill="#ffffff"><path d="M137.3036,16.55708c0,5.02579 -4.20852,9.1 -9.4,9.1c-5.19148,0 -9.4,-4.07421 -9.4,-9.1c0,-5.02579 4.20852,-9.1 9.4,-9.1c5.19148,0 9.4,4.07421 9.4,9.1z" data-paper-data="{&quot;origPos&quot;:null}"/><path d="M168.50361,16.55708c0,5.02579 -4.20853,9.1 -9.4,9.1c-5.19147,0 -9.4,-4.07421 -9.4,-9.1c0,-5.02579 4.20853,-9.1 9.4,-9.1c5.19147,0 9.4,4.07421 9.4,9.1z" data-paper-data="{&quot;origPos&quot;:null}"/><path d="M127.70362,25.65708v-18.2h32v18.2z" data-paper-data="{&quot;origPos&quot;:null}"/></g><path d="M137.27841,16.55558c0,5.02579 -4.20852,9.1 -9.4,9.1c-5.19148,0 -9.4,-4.07421 -9.4,-9.1c0,-5.02579 4.20852,-9.1 9.4,-9.1c5.19148,0 9.4,4.07421 9.4,9.1z" fill="#ff0000"/></g></g></svg>