<svg version="1.1" xmlns="http://www.w3.org/2000/svg" xmlns:xlink="http://www.w3.org/1999/xlink" width="95.17898" height="119.01214" viewBox="0,0,95.17898,119.01214"><g transform="translate(-272.32102,-120.91392)"><g data-paper-data="{&quot;isPaintingLayer&quot;:true}" stroke-miterlimit="10" stroke-dasharray="" stroke-dashoffset="0" style="mix-blend-mode: normal"><path d="M349.26791,222.5094c0,9.61896 -16.51279,17.41667 -36.88235,17.41667c-20.36956,0 -36.88235,-7.79771 -36.88235,-17.41667c0,-9.61896 16.51279,-17.41667 36.88235,-17.41667c20.36956,0 36.88235,7.79771 36.88235,17.41667z" fill-opacity="0.22353" fill="#000000" fill-rule="nonzero" stroke="none" stroke-width="0" stroke-linecap="butt" stroke-linejoin="miter"/><g fill-rule="evenodd"><path d="M304.7,200.6c0.8,0.4 2.5,1.3 0.1,4.7c-2.4,3.4 -9.3,4.1 -10.1,4.1c-3.1,0.1 -6.9,0.1 -11.1,-1.3c-12.2,-4 -12.3,-17.1 -8.4,-19.2c3.8,-2.1 5.5,6 11,10.9c2.4,2.2 5.3,3 7.7,3.5c3.4,0.6 9.9,-3.2 10.8,-2.7z" fill="#ffab19" stroke="#001026" stroke-width="1.2" stroke-linecap="round" stroke-linejoin="round"/><path d="M279.9,192.5c1.6,2.7 4.7,6.5 4.7,6.5c0,0 -3.7,-0.9 -5.8,0.8c-1.7,1.3 -1.3,3.5 -1.1,4.2c-1.3,-1.3 -2.9,-3.1 -3.9,-6.6c-1,-3.5 0,-7.7 2,-8.3c2,-0.4 2.5,1.1 4.1,3.4z" fill="#ffffff" stroke="none" stroke-width="1" stroke-linecap="butt" stroke-linejoin="miter"/></g><path d="M309.7,211c-1.8,1.2 -8,5.6 -15.9,8.1l-0.4,0.1c-0.4,0.1 -0.6,0.6 -0.4,1c1.7,2.4 4.8,7.2 -0.7,8.9c-5.3,1.7 -15.2,-12.4 -11,-16.1c1.9,-1.4 3.6,-0.7 4.5,-0.3c0.5,0.2 1,0.2 1.5,0.1c1.2,-0.4 3.4,-1.2 5.1,-2.1c4.3,-2.2 5.3,-3.1 7.3,-4.6c2,-1.5 6.6,-5.2 10.3,-2c3.2,2.7 1.4,5.7 -0.3,6.9z" fill="#ffab19" fill-rule="evenodd" stroke="#001026" stroke-width="1.2" stroke-linecap="round" stroke-linejoin="round"/><path d="M325.59999,190.2c0.5,0.4 6.6,7.6 8.6,5.8c2.4,-2.1 5.7,-6.2 9.3,-2.9c3.6,3.3 -3.2,8.9 -6.1,10.4c-6.9,3.1 -12.5,-2.8 -13.7,-4.4c-1.2,-1.6 -3.3,-4.3 -3.3,-6.9c0.1,-2.8 3.5,-3.5 5.2,-2z" fill="#ffab19" fill-rule="evenodd" stroke="#001026" stroke-width="1.2" stroke-linecap="round" stroke-linejoin="round"/><g fill-rule="evenodd"><path d="M325.7,213.5c2.1,1.9 6.7,5.8 6.7,5.8c0,0 14.3,-2.5 14.3,4.7c0,4.3 -7.2,5.3 -16.9,4.4c-0.6,-0.1 -1.2,-0.3 -1.7,-0.7c-2.2,-1.9 -8.5,-7.5 -12.5,-11.4c-5.9,-5.8 -10.8,-9.6 -10.8,-9.6c-8.5,-8.3 -1.6,-11.8 1.1,-16.6c2.5,-4.1 3.6,-3.3 9.6,-2.1c3.4,0.5 5.4,0.8 7.6,0.7c3.3,-0.1 2.7,4.7 1.8,7.2c0,0 -1.4,3.7 -2.7,5.6c-1.6,2.3 -2.8,3.8 -4,4.7z" fill="#ffab19" stroke="#001026" stroke-width="1.2" stroke-linecap="round" stroke-linejoin="round"/><path d="M317.3,206.1c0,0 -1.5,-1.2 -3.1,-2.7c-2,-1.8 -4,-3.3 -2,-6.4c1.8,-2.4 3.5,-5.6 8,-2.7c4.3,2.7 2.4,5.2 2.4,5.2c-2.2,4.5 -5.3,6.6 -5.3,6.6z" fill="#ffffff" stroke="none" stroke-width="1" stroke-linecap="butt" stroke-linejoin="miter"/></g><path d="M302.2,197.9c2.2,2.8 5.6,6.3 1.3,9.2c-5.9,3.3 -10.8,-6.7 -11.8,-10.2c-0.9,-3.1 1.7,-5.1 3.9,-6.8c4.3,-3.1 7.9,-5.9 11.9,-4.4c5,1.8 1.4,5.8 -1.1,7.6c-1.5,1.1 -3,2.3 -4.1,3c-0.3,0.5 -0.4,1.1 -0.1,1.6z" fill="#ffab19" fill-rule="evenodd" stroke="#001026" stroke-width="1.2" stroke-linecap="round" stroke-linejoin="round"/><g fill-rule="evenodd"><path d="M333.7,130.5c0.3,-0.2 0.8,-0.1 0.9,0.3l2.6,10.7c0,0 6.4,4.7 8.3,8c3.2,5.5 3.3,10 3.3,10c0,0 7.1,2.1 8.3,7.8c1.2,5.7 -3.2,16.5 -22,20.2c-18.8,3.7 -33.9,-1.4 -41,-12.8c-7.1,-11.4 4.1,-25 3.5,-24.2l-2.1,-17.9c-0.1,-0.4 0.4,-0.7 0.8,-0.5l12.1,7.9c0,0 4.5,-1.7 9.2,-1.9c2.8,-0.2 5.2,0 7.5,0.4z" fill="#ffab19" stroke="#001026" stroke-width="1.2" stroke-linecap="butt" stroke-linejoin="miter"/><path d="M348.5,159.9c0,0 6.9,1.8 8.1,7.5c1.2,5.7 -3.6,16 -22.2,19.6c-24.2,5 -35.7,-9.4 -29,-20c6.7,-10.7 18.2,-1.6 26.6,-2.2c7.2,-0.5 8,-6.8 16.5,-4.9z" fill="#ffffff" stroke="none" stroke-width="1" stroke-linecap="butt" stroke-linejoin="miter"/><path d="M317,170.6c0,-0.4 0.4,-0.7 0.8,-0.6c1.9,0.7 7.3,2.3 13.3,2.7c5.4,0.3 8.6,0 10.1,-0.3c0.5,-0.1 0.9,0.4 0.7,0.9c-0.9,2.7 -4.7,10.2 -15.2,9.6c-9.1,-1 -10,-7.4 -9.7,-12.3z" fill="#ffffff" stroke="#001026" stroke-width="1.2" stroke-linecap="round" stroke-linejoin="round"/><path d="M366.9,161c-4.7,3.8 -11.9,3.9 -11.9,3.9" fill="none" stroke="#001026" stroke-width="1.2" stroke-linecap="round" stroke-linejoin="round"/><path d="M365.6,172.2c-6.3,0.5 -10.2,-1.4 -10.2,-1.4" fill="none" stroke="#001026" stroke-width="1.2" stroke-linecap="round" stroke-linejoin="round"/><path d="M331.59999,162.2c2.1,0 4.3,0.2 4.4,0.9c0.1,1.4 -1.4,4.2 -3,4.3c-1.8,0.2 -6,-2.3 -6,-3.9c-0.1,-1.2 2.6,-1.3 4.6,-1.3z" fill="#001026" stroke="#001026" stroke-width="1.2" stroke-linecap="round" stroke-linejoin="round"/><path d="M286.59999,160.7c0,0 8.6,2.8 12.1,5.9" fill="none" stroke="#001026" stroke-width="1.2" stroke-linecap="round" stroke-linejoin="round"/><path d="M299,170.1c-4.3,1.7 -11.7,0.6 -11.7,0.6" fill="none" stroke="#001026" stroke-width="1.2" stroke-linecap="round" stroke-linejoin="round"/><g><path d="M343.4,150.5c2.9,4.5 3,9.6 0.2,11.4c-2.8,1.8 -7.4,-0.3 -10.4,-4.8c-2.9,-4.5 -3,-9.6 -0.2,-11.4c2.8,-1.9 7.5,0.3 10.4,4.8z" fill="#ffffff" stroke="#001026" stroke-width="1.2" stroke-linecap="round" stroke-linejoin="round"/><path d="M343,156.2c0,1.1 -0.8,2 -1.8,2c-1,0 -1.8,-0.9 -1.8,-2c0,-1.1 0.8,-2 1.8,-2c1,0 1.8,0.9 1.8,2" fill="#001026" stroke="none" stroke-width="1" stroke-linecap="butt" stroke-linejoin="miter"/></g><g><path d="M318.59999,153.3c3,4.4 2.8,9.8 0.1,11.7c-3.3,1.9 -7.7,0.5 -10.7,-3.9c-3.1,-4.4 -3.3,-10.1 -0.2,-12.3c3.1,-2.3 7.8,0.1 10.8,4.5z" fill="#ffffff" stroke="#001026" stroke-width="1.2" stroke-linecap="round" stroke-linejoin="round"/><path d="M318,159.1c0,1.1 -0.8,2 -1.8,2c-1,0 -1.8,-0.9 -1.8,-2c0,-1.1 0.8,-2 1.8,-2c1,0.1 1.8,0.9 1.8,2" fill="#001026" stroke="none" stroke-width="1" stroke-linecap="butt" stroke-linejoin="miter"/></g></g><path d="M292.54066,175.53302l-7.25038,-21.49228l1.87876,-17.03584c0,0 17.99317,-8.6486 18.79659,-8.12505c0.80683,0.52355 26.31934,0 26.31934,0l24.70567,16.77365l5.10267,23.06335l-6.1746,13.629l-15.84548,8.6486l-30.07728,-5.76573z" fill-opacity="0.5451" fill="#ffffff" fill-rule="nonzero" stroke="none" stroke-width="1" stroke-linecap="butt" stroke-linejoin="miter"/><path d="M304.06315,122.45937c3.99825,-0.53728 7.98537,-1.34717 12.00158,-1.51822c2.81814,-0.11861 5.87701,0.13277 8.48393,1.10329c5.77311,2.15331 11.38117,4.76732 16.96401,7.37468c5.89497,2.75343 10.86124,6.97682 13.99878,12.36216c2.91135,5.00121 5.67263,10.27128 6.61928,16.26425c0.85686,5.41323 1.21559,10.41112 -1.32676,15.62874c-1.78555,3.66487 -2.59964,7.87035 -6.13868,10.3799c-3.17688,2.25818 -6.72361,4.0207 -10.11171,5.99963c-0.14366,0.08365 -0.34078,0.08032 -0.48444,0.16397c-4.04101,2.3872 -8.4587,2.06258 -12.92984,1.93024c-4.95559,-0.14317 -9.92571,0.18853 -14.89199,0.18479c-0.84232,0 -1.67096,-0.6842 -2.52397,-1.00507c-4.85169,-1.83243 -9.68883,-3.69608 -14.56532,-5.45526c-3.13412,-1.12742 -5.40753,-3.1796 -7.78485,-5.43779c-4.14148,-3.92997 -7.17854,-8.5612 -9.15436,-13.59737c-1.97582,-5.01911 -4.49295,-10.10772 -3.94095,-15.80021c0.35873,-3.75185 0.24414,-7.62939 1.2374,-11.21393c1.287,-4.64205 5.11678,-7.84579 8.87089,-10.66249c3.18073,-2.3872 6.91003,-4.10435 10.47771,-5.96799c1.53841,-0.80281 3.28805,-1.21815 4.94105,-1.80788c0.08594,0.3629 0.17231,0.71874 0.25826,1.07498zM286.303,146.5873c0.29417,9.20337 2.77881,15.83475 6.47946,22.09949c0.90689,1.53944 1.50934,3.41016 2.79334,4.53717c2.1011,1.84658 4.55025,3.37188 7.02077,4.74318c8.27955,4.6071 17.72808,5.46234 26.72082,7.8075c6.01682,1.57066 11.36706,-0.33835 16.6057,-2.485c2.06518,-0.84817 3.84047,-2.87579 5.18519,-4.74984c1.73168,-2.41175 2.90409,-5.21097 4.30268,-7.84954c0.45921,-0.86898 1.33018,-1.7904 1.25493,-2.62109c-0.29032,-3.15505 -0.9428,-6.27555 -1.35883,-9.4202c-0.68497,-5.20348 -4.02347,-9.16175 -6.80228,-13.27983c-1.93606,-2.87246 -4.5216,-5.62964 -7.45476,-7.49329c-5.19204,-3.30196 -10.26607,-7.11665 -16.91399,-7.52867c-3.45651,-0.21641 -6.93483,-1.31928 -10.32677,-1.05751c-5.06675,0.39454 -10.352,0.55518 -14.76628,3.72396c-2.24819,1.61602 -4.63277,3.04351 -6.81297,4.73653c-3.51765,2.72555 -5.94841,6.09701 -5.92703,8.83713z" fill="#30419a" fill-rule="nonzero" stroke="none" stroke-width="1" stroke-linecap="butt" stroke-linejoin="miter"/></g></g></svg>