<svg version="1.1" xmlns="http://www.w3.org/2000/svg" xmlns:xlink="http://www.w3.org/1999/xlink" width="30.14369" height="38.36255" viewBox="0,0,30.14369,38.36255"><g transform="translate(-304.84415,-159.72787)"><g data-paper-data="{&quot;isPaintingLayer&quot;:true}" fill-rule="nonzero" stroke="none" stroke-width="0.5" stroke-linecap="butt" stroke-linejoin="miter" stroke-miterlimit="10" stroke-dasharray="" stroke-dashoffset="0" style="mix-blend-mode: normal"><path d="M308.75564,170.16901c0.52849,-0.35233 2.60646,0.9388 2.84289,1.03463c1.77763,0.72051 3.59054,1.3508 5.38118,2.03833c4.33275,1.66358 12.00776,9.87331 11.46334,14.36481c-0.15322,1.26405 -0.9488,4.53402 -2.09891,5.16059c-1.65909,0.90386 -3.85091,-0.36118 -4,-2.1875c-0.06908,-0.84622 0.7155,-2.43171 1.00875,-3.27434c0.58332,-1.6761 -4.07004,-6.70197 -6.00723,-8.1851c-2.4221,-1.85439 -6.84963,-2.11642 -9.33076,-4.12902c-0.73298,-0.59456 -1.29608,-1.3419 -1.58743,-2.32821z" data-paper-data="{&quot;index&quot;:null}" fill="#ff0000"/><path d="M308.34511,164.74598c-0.74779,-0.43212 -1.25098,-1.24035 -1.25098,-2.16611c0,-1.31831 1.0204,-2.3983 2.31448,-2.49322c2.21437,-1.49389 4.91901,2.08797 7.33339,3.23073c3.12466,1.47895 12.61914,4.08116 13.63202,8.63912c1.0084,4.53778 0.23305,10.15339 1.7201,14.57159c0.44145,1.3116 3.26739,3.17083 2.85222,4.83152c-0.57166,2.28665 -1.46488,2.82258 -3.75153,2.25092c-0.67275,-0.16819 -1.81752,-2.41163 -2.06378,-2.7558c-1.20547,-1.68476 -1.73664,-3.82183 -2.0369,-5.87157c-0.81088,-5.53553 -0.34162,-10.2003 -4.43145,-13.35805c-3.57879,-2.76317 -11.11629,-3.38844 -14.31757,-6.87913z" data-paper-data="{&quot;index&quot;:null}" fill="#00ff0b"/><path d="M307.60633,171.24961c-0.4412,-0.6729 -0.99306,-1.15883 -1.49109,-1.6588c-0.75887,-0.42918 -1.27109,-1.24358 -1.27109,-2.17761c0,-1.38071 1.11929,-2.5 2.5,-2.5c0.48155,0 0.9313,0.13615 1.31286,0.37206c2.04831,1.01006 3.37943,3.7798 4.41965,5.51532c2.85336,4.76062 6.53985,9.81276 11.2191,12.98769c1.64711,1.11759 4.30413,2.02272 5.36778,3.7569c1.09498,1.78526 1.58083,4.21266 2.06558,6.08336c0.12072,0.46586 0.76109,2.87885 0.05252,3.45134c-4.63147,3.74201 -5.42514,-3.91466 -6.33815,-6.62959c-0.20642,-0.61381 -4.26608,-2.68326 -4.80152,-3.22534c-7.5653,-7.65912 -7.58807,-7.66688 -13.03565,-15.97533z" data-paper-data="{&quot;index&quot;:null}" fill="#001eff"/></g></g></svg>