<svg version="1.1" xmlns="http://www.w3.org/2000/svg" xmlns:xlink="http://www.w3.org/1999/xlink" width="778" height="519" viewBox="0,0,778,519"><g transform="translate(95.15988,75.70835)"><g data-paper-data="{&quot;isPaintingLayer&quot;:true}" stroke-miterlimit="10" stroke-dasharray="" stroke-dashoffset="0" style="mix-blend-mode: normal"><path d="M-95.15988,443.29165v-519h778v519z" fill-opacity="0.35686" fill="#000000" fill-rule="nonzero" stroke="none" stroke-width="none" stroke-linecap="butt" stroke-linejoin="miter"/><path d="M129.69942,280.05782c0,14.83892 -25.47386,26.86825 -56.89746,26.86825c-31.4236,0 -56.89746,-12.02933 -56.89746,-26.86825c0,-14.83892 25.47386,-26.86825 56.89746,-26.86825c31.4236,0 56.89746,12.02933 56.89746,26.86825z" data-paper-data="{&quot;index&quot;:null}" fill-opacity="0.22353" fill="#000000" fill-rule="nonzero" stroke="none" stroke-width="0" stroke-linecap="butt" stroke-linejoin="miter"/><g data-paper-data="{&quot;index&quot;:null}" fill-rule="evenodd"><path d="M60.94564,246.25875c1.23414,0.61707 3.85669,2.00548 0.15427,7.25057c-3.70242,5.24509 -14.34687,6.32497 -15.58101,6.32497c-4.78229,0.15427 -10.64445,0.15427 -17.12369,-2.00548c-18.82063,-6.1707 -18.9749,-26.37973 -12.95847,-29.61935c5.86216,-3.23962 8.48471,9.25605 16.96942,16.81515c3.70242,3.39388 8.17617,4.62802 11.87859,5.39936c5.24509,0.9256 15.27248,-4.93656 16.66088,-4.16522z" fill="#ffab19" stroke="#001026" stroke-width="1.2" stroke-linecap="round" stroke-linejoin="round"/><path d="M22.68731,233.76308c2.46828,4.16522 7.25057,10.02738 7.25057,10.02738c0,0 -5.7079,-1.38841 -8.94751,1.23414c-2.62255,2.00548 -2.00548,5.39936 -1.69694,6.47923c-2.00548,-2.00548 -4.47376,-4.78229 -6.01643,-10.18165c-1.54267,-5.39936 0,-11.87859 3.08535,-12.8042c3.08535,-0.61707 3.85669,1.69694 6.32497,5.24509z" fill="#ffffff" stroke="none" stroke-width="1" stroke-linecap="butt" stroke-linejoin="miter"/></g><path d="M68.65901,262.30256c-2.77681,1.85121 -12.3414,8.63898 -24.52852,12.49566l-0.61707,0.15427c-0.61707,0.15427 -0.9256,0.9256 -0.61707,1.54267c2.62255,3.70242 7.40484,11.10726 -1.07987,13.7298c-8.17617,2.62255 -23.44865,-19.12916 -16.96942,-24.83706c2.93108,-2.15974 5.55363,-1.07987 6.94204,-0.4628c0.77134,0.30853 1.54267,0.30853 2.31401,0.15427c1.85121,-0.61707 5.24509,-1.85121 7.86764,-3.23962c6.6335,-3.39388 8.17617,-4.78229 11.26152,-7.0963c3.08535,-2.31401 10.18165,-8.02191 15.88955,-3.08535c4.93656,4.16522 2.15974,8.79324 -0.4628,10.64445z" data-paper-data="{&quot;index&quot;:null}" fill="#ffab19" fill-rule="evenodd" stroke="#001026" stroke-width="1.2" stroke-linecap="round" stroke-linejoin="round"/><path d="M93.18752,230.21493c0.77134,0.61707 10.18165,11.72433 13.267,8.94751c3.70242,-3.23962 8.79324,-9.56458 14.34687,-4.47376c5.55363,5.09083 -4.93656,13.7298 -9.41031,16.04382c-10.64445,4.78229 -19.28343,-4.31949 -21.13464,-6.78777c-1.85121,-2.46828 -5.09083,-6.6335 -5.09083,-10.64445c0.15427,-4.31949 5.39936,-5.39936 8.02191,-3.08535z" data-paper-data="{&quot;index&quot;:null}" fill="#ffab19" fill-rule="evenodd" stroke="#001026" stroke-width="1.2" stroke-linecap="round" stroke-linejoin="round"/><g data-paper-data="{&quot;index&quot;:null}" fill-rule="evenodd"><path d="M93.3418,266.15925c3.23962,2.93108 10.33592,8.94751 10.33592,8.94751c0,0 22.06025,-3.85669 22.06025,7.25057c0,6.6335 -11.10726,8.17617 -26.0712,6.78777c-0.9256,-0.15427 -1.85121,-0.4628 -2.62255,-1.07987c-3.39388,-2.93108 -13.11273,-11.57006 -19.28343,-17.58649c-9.10178,-8.94751 -16.66088,-14.80968 -16.66088,-14.80968c-13.11273,-12.8042 -2.46828,-18.20356 1.69694,-25.6084c3.85669,-6.32497 5.55363,-5.09083 14.80968,-3.23962c5.24509,0.77134 8.33044,1.23414 11.72433,1.07987c5.09083,-0.15427 4.16522,7.25057 2.77681,11.10726c0,0 -2.15974,5.7079 -4.16522,8.63898c-2.46828,3.54815 -4.31949,5.86216 -6.1707,7.25057z" fill="#ffab19" stroke="#001026" stroke-width="1.2" stroke-linecap="round" stroke-linejoin="round"/><path d="M80.38334,254.74346c0,0 -2.31401,-1.85121 -4.78229,-4.16522c-3.08535,-2.77681 -6.1707,-5.09083 -3.08535,-9.87312c2.77681,-3.70242 5.39936,-8.63898 12.3414,-4.16522c6.6335,4.16522 3.70242,8.02191 3.70242,8.02191c-3.39388,6.94204 -8.17617,10.18165 -8.17617,10.18165z" fill="#ffffff" stroke="none" stroke-width="1" stroke-linecap="butt" stroke-linejoin="miter"/></g><path d="M57.08895,242.09353c3.39388,4.31949 8.63898,9.71885 2.00548,14.19261c-9.10178,5.09083 -16.66088,-10.33592 -18.20356,-15.73528c-1.38841,-4.78229 2.62255,-7.86764 6.01643,-10.49019c6.6335,-4.78229 12.18713,-9.10178 18.35783,-6.78777c7.71337,2.77681 2.15974,8.94751 -1.69694,11.72433c-2.31401,1.69694 -4.62802,3.54815 -6.32497,4.62802c-0.4628,0.77134 -0.61707,1.69694 -0.15427,2.46828z" data-paper-data="{&quot;index&quot;:null}" fill="#ffab19" fill-rule="evenodd" stroke="#001026" stroke-width="1.2" stroke-linecap="round" stroke-linejoin="round"/><g data-paper-data="{&quot;index&quot;:null}" fill-rule="evenodd"><path d="M105.6832,138.11726c0.4628,-0.30853 1.23414,-0.15427 1.38841,0.4628l4.01095,16.50662c0,0 9.87312,7.25057 12.8042,12.3414c4.93656,8.48471 5.09083,15.42675 5.09083,15.42675c0,0 10.95299,3.23962 12.8042,12.03286c1.85121,8.79324 -4.93656,25.45413 -33.93884,31.16203c-29.00228,5.7079 -52.29667,-2.15974 -63.24966,-19.74623c-10.95299,-17.58649 6.32497,-38.56686 5.39936,-37.33272l-3.23962,-27.61387c-0.15427,-0.61707 0.61707,-1.07987 1.23414,-0.77134l18.66636,12.18713c0,0 6.94204,-2.62255 14.19261,-2.93108c4.31949,-0.30853 8.02191,0 11.57006,0.61707z" fill="#ffab19" stroke="#001026" stroke-width="1.2" stroke-linecap="butt" stroke-linejoin="miter"/><path d="M128.51478,183.4719c0,0 10.64445,2.77681 12.49566,11.57006c1.85121,8.79324 -5.55363,24.68279 -34.24737,30.23642c-37.33272,7.71337 -55.07348,-14.50114 -44.73756,-30.85349c10.33592,-16.50662 28.07668,-2.46828 41.03514,-3.39388c11.10726,-0.77134 12.3414,-10.49019 25.45413,-7.55911z" fill="#ffffff" stroke="none" stroke-width="1" stroke-linecap="butt" stroke-linejoin="miter"/><path d="M79.92054,199.97851c0,-0.61707 0.61707,-1.07987 1.23414,-0.9256c2.93108,1.07987 11.26152,3.54815 20.51757,4.16522c8.33044,0.4628 13.267,0 15.58101,-0.4628c0.77134,-0.15427 1.38841,0.61707 1.07987,1.38841c-1.38841,4.16522 -7.25057,15.73528 -23.44865,14.80968c-14.03834,-1.54267 -15.42675,-11.41579 -14.96394,-18.9749z" fill="#ffffff" stroke="#001026" stroke-width="1.2" stroke-linecap="round" stroke-linejoin="round"/><path d="M156.89999,185.16884c-7.25057,5.86216 -18.35783,6.01643 -18.35783,6.01643" fill="none" stroke="#001026" stroke-width="1.2" stroke-linecap="round" stroke-linejoin="round"/><path d="M154.89452,202.44679c-9.71885,0.77134 -15.73528,-2.15974 -15.73528,-2.15974" fill="none" stroke="#001026" stroke-width="1.2" stroke-linecap="round" stroke-linejoin="round"/><path d="M102.44357,187.02005c3.23962,0 6.6335,0.30853 6.78777,1.38841c0.15427,2.15974 -2.15974,6.47923 -4.62802,6.6335c-2.77681,0.30853 -9.25605,-3.54815 -9.25605,-6.01643c-0.15427,-1.85121 4.01095,-2.00548 7.0963,-2.00548z" fill="#001026" stroke="#001026" stroke-width="1.2" stroke-linecap="round" stroke-linejoin="round"/><path d="M33.02321,184.70603c0,0 13.267,4.31949 18.66636,9.10178" fill="none" stroke="#001026" stroke-width="1.2" stroke-linecap="round" stroke-linejoin="round"/><path d="M52.15239,199.20718c-6.6335,2.62255 -18.04929,0.9256 -18.04929,0.9256" fill="none" stroke="#001026" stroke-width="1.2" stroke-linecap="round" stroke-linejoin="round"/><g><path d="M120.64714,168.97075c4.47376,6.94204 4.62802,14.80968 0.30853,17.58649c-4.31949,2.77681 -11.41579,-0.4628 -16.04382,-7.40484c-4.47376,-6.94204 -4.62802,-14.80968 -0.30853,-17.58649c4.31949,-2.93108 11.57006,0.4628 16.04382,7.40484z" fill="#ffffff" stroke="#001026" stroke-width="1.2" stroke-linecap="round" stroke-linejoin="round"/><path d="M120.03007,177.764c0,1.69694 -1.23414,3.08535 -2.77681,3.08535c-1.54267,0 -2.77681,-1.38841 -2.77681,-3.08535c0,-1.69694 1.23414,-3.08535 2.77681,-3.08535c1.54267,0 2.77681,1.38841 2.77681,3.08535" fill="#001026" stroke="none" stroke-width="1" stroke-linecap="butt" stroke-linejoin="miter"/></g><g><path d="M82.3888,173.29024c4.62802,6.78777 4.31949,15.11821 0.15427,18.04929c-5.09083,2.93108 -11.87859,0.77134 -16.50662,-6.01643c-4.78229,-6.78777 -5.09083,-15.58101 -0.30853,-18.9749c4.78229,-3.54815 12.03286,0.15427 16.66088,6.94204z" fill="#ffffff" stroke="#001026" stroke-width="1.2" stroke-linecap="round" stroke-linejoin="round"/><path d="M81.46321,182.23776c0,1.69694 -1.23414,3.08535 -2.77681,3.08535c-1.54267,0 -2.77681,-1.38841 -2.77681,-3.08535c0,-1.69694 1.23414,-3.08535 2.77681,-3.08535c1.54267,0.15427 2.77681,1.38841 2.77681,3.08535" fill="#001026" stroke="none" stroke-width="1" stroke-linecap="butt" stroke-linejoin="miter"/></g></g><path d="M42.18774,207.58856l-11.18498,-33.15559l2.89832,-26.28076c0,0 27.75761,-13.34197 28.99702,-12.53431c1.24468,0.80767 40.60218,0 40.60218,0l38.11281,25.87628l7.87176,35.57924l-9.5254,21.02511l-24.44442,13.34197l-46.39945,-8.89464z" data-paper-data="{&quot;index&quot;:null}" fill-opacity="0.5451" fill="#ffffff" fill-rule="nonzero" stroke="none" stroke-width="1" stroke-linecap="butt" stroke-linejoin="miter"/><path d="M59.96319,125.71319c6.168,-0.82885 12.31883,-2.07824 18.51453,-2.34212c4.34747,-0.18298 9.06631,0.20482 13.08794,1.70202c8.90603,3.32186 17.55744,7.35442 26.16995,11.37673c9.09402,4.24765 16.75536,10.76296 21.59556,19.07079c4.49127,7.71524 8.75102,15.84524 10.21139,25.09044c1.32186,8.35085 1.87526,16.06097 -2.04676,24.11006c-2.75452,5.6537 -4.0104,12.14139 -9.46999,16.01281c-4.90089,3.48364 -10.37234,6.20263 -15.59908,9.25548c-0.22162,0.12904 -0.52571,0.12391 -0.74733,0.25295c-6.23396,3.68267 -13.04902,3.18189 -19.94653,2.97773c-7.64486,-0.22086 -15.31214,0.29084 -22.97349,0.28507c-1.29943,0 -2.57775,-1.0555 -3.89366,-1.5505c-7.48458,-2.82684 -14.94671,-5.70185 -22.46955,-8.41569c-4.83493,-1.73924 -8.34206,-4.90509 -12.00949,-8.38874c-6.38896,-6.06266 -11.07415,-13.20715 -14.1222,-20.97632c-3.04805,-7.74285 -6.93116,-15.59292 -6.0796,-24.37458c0.5534,-5.78788 0.37663,-11.76967 1.90891,-17.29944c1.98542,-7.16117 7.89353,-12.1035 13.6849,-16.44875c4.90683,-3.68267 10.65993,-6.33168 16.1637,-9.20667c2.37327,-1.23847 5.07239,-1.87921 7.62243,-2.78897c0.13258,0.55984 0.26582,1.10878 0.39841,1.65834zM32.56506,162.93473c0.45381,14.1978 4.2868,24.42787 9.9957,34.09232c1.39904,2.37485 2.32842,5.26077 4.30921,6.99938c3.24131,2.84867 7.01955,5.20171 10.83076,7.31718c12.77265,7.10726 27.34866,8.42661 41.22153,12.04443c9.28199,2.42302 17.53567,-0.52196 25.61719,-3.83355c3.1859,-1.30845 5.9246,-4.43641 7.99906,-7.32746c2.67142,-3.72055 4.48007,-8.03883 6.63763,-12.10929c0.70841,-1.34055 2.05203,-2.762 1.93595,-4.04349c-0.44787,-4.86722 -1.45443,-9.68113 -2.09623,-14.5323c-1.05669,-8.02728 -6.2069,-14.1336 -10.4937,-20.48646c-2.98671,-4.43127 -6.97536,-8.6847 -11.50027,-11.55971c-8.00963,-5.09385 -15.8372,-10.97867 -26.09278,-11.61429c-5.33227,-0.33385 -10.69819,-2.03522 -15.93085,-1.63139c-7.81635,0.60865 -15.96977,0.85646 -22.77956,5.74486c-3.46823,2.49299 -7.14686,4.69515 -10.5102,7.30692c-5.42659,4.20464 -9.17646,9.4057 -9.14348,13.63282z" data-paper-data="{&quot;index&quot;:null}" fill="#30419a" fill-rule="nonzero" stroke="none" stroke-width="1" stroke-linecap="butt" stroke-linejoin="miter"/><path d="M14.12961,362.3611v-126h606v126z" fill="#000000" fill-rule="nonzero" stroke="none" stroke-width="NaN" stroke-linecap="butt" stroke-linejoin="miter"/><path d="M608.12961,317.1111l-12.99138,34.25l-15.35345,-34.25z" data-paper-data="{&quot;index&quot;:null}" fill="#fdfdfd" fill-rule="nonzero" stroke="none" stroke-width="0" stroke-linecap="butt" stroke-linejoin="miter"/><text transform="translate(28.12961,285.92735) scale(1.12308,1.12308)" font-size="40" xml:space="preserve" fill="#fdfdfd" fill-rule="nonzero" stroke="none" stroke-width="1" stroke-linecap="butt" stroke-linejoin="miter" stroke-miterlimit="10" stroke-dasharray="" stroke-dashoffset="0" font-family="Pixel" font-weight="normal" text-anchor="start" style="mix-blend-mode: normal"><tspan x="0" dy="0">Use This Text</tspan><tspan x="0" dy="48px"> As A Tempalte</tspan></text></g></g></svg>