<svg version="1.1" xmlns="http://www.w3.org/2000/svg" xmlns:xlink="http://www.w3.org/1999/xlink" width="905" height="539.47303" viewBox="0,0,905,539.47303"><g transform="translate(121.11792,20.52358)"><g data-paper-data="{&quot;isPaintingLayer&quot;:true}" stroke-miterlimit="10" stroke-dasharray="" stroke-dashoffset="0" style="mix-blend-mode: normal"><path d="M783.88209,330.44945c0,104.10568 -202.59115,188.5 -452.5,188.5c-249.90885,0 -452.5,-84.39432 -452.5,-188.5c0,-104.10568 202.59115,-188.5 452.5,-188.5c249.90885,0 452.5,84.39432 452.5,188.5z" fill="#d7d7d7" fill-rule="nonzero" stroke="none" stroke-width="0" stroke-linecap="butt" stroke-linejoin="miter"/><path d="M156,179.10005c-4.3,1.7 -11.7,0.6 -11.7,0.6" fill="none" fill-rule="evenodd" stroke="#001026" stroke-width="1.2" stroke-linecap="round" stroke-linejoin="round"/><path d="M143.60002,169.70005c0,0 8.6,2.8 12.1,5.9" fill="none" fill-rule="evenodd" stroke="#001026" stroke-width="1.2" stroke-linecap="round" stroke-linejoin="round"/><g fill-rule="evenodd"><path d="M161.70004,209.60005c0.8,0.4 2.5,1.3 0.1,4.7c-2.4,3.4 -9.3,4.1 -10.1,4.1c-3.1,0.1 -6.9,0.1 -11.1,-1.3c-12.2,-4 -12.3,-17.1 -8.4,-19.2c3.8,-2.1 5.5,6 11,10.9c2.4,2.2 5.3,3 7.7,3.5c3.4,0.6 9.9,-3.2 10.8,-2.7z" fill="#ffab19" stroke="#001026" stroke-width="1.2" stroke-linecap="round" stroke-linejoin="round"/><path d="M136.89999,201.50005c1.6,2.7 4.7,6.5 4.7,6.5c0,0 -3.7,-0.9 -5.8,0.8c-1.7,1.3 -1.3,3.5 -1.1,4.2c-1.3,-1.3 -2.9,-3.1 -3.9,-6.6c-1,-3.5 0,-7.7 2,-8.3c2,-0.4 2.5,1.1 4.1,3.4z" fill="#ffffff" stroke="none" stroke-width="1" stroke-linecap="butt" stroke-linejoin="miter"/></g><path d="M205.2679,224.50941c0,9.61896 -16.51279,17.41667 -36.88235,17.41667c-20.36956,0 -36.88235,-7.79771 -36.88235,-17.41667c0,-9.61896 16.51279,-17.41667 36.88235,-17.41667c20.36956,0 36.88235,7.79771 36.88235,17.41667z" fill-opacity="0.22353" fill="#000000" fill-rule="nonzero" stroke="none" stroke-width="0" stroke-linecap="butt" stroke-linejoin="miter"/><path d="M166.70004,220.00005c-1.8,1.2 -8,5.6 -15.9,8.1l-0.4,0.1c-0.4,0.1 -0.6,0.6 -0.4,1c1.7,2.4 4.8,7.2 -0.7,8.9c-5.3,1.7 -15.2,-12.4 -11,-16.1c1.9,-1.4 3.6,-0.7 4.5,-0.3c0.5,0.2 1,0.2 1.5,0.1c1.2,-0.4 3.4,-1.2 5.1,-2.1c4.3,-2.2 5.3,-3.1 7.3,-4.6c2,-1.5 6.6,-5.2 10.3,-2c3.2,2.7 1.4,5.7 -0.3,6.9z" fill="#ffab19" fill-rule="evenodd" stroke="#001026" stroke-width="1.2" stroke-linecap="round" stroke-linejoin="round"/><path d="M182.60011,199.20005c0.5,0.4 6.6,7.6 8.6,5.8c2.4,-2.1 5.7,-6.2 9.3,-2.9c3.6,3.3 -3.2,8.9 -6.1,10.4c-6.9,3.1 -12.5,-2.8 -13.7,-4.4c-1.2,-1.6 -3.3,-4.3 -3.3,-6.9c0.1,-2.8 3.5,-3.5 5.2,-2z" fill="#ffab19" fill-rule="evenodd" stroke="#001026" stroke-width="1.2" stroke-linecap="round" stroke-linejoin="round"/><path d="M159.20004,206.90005c2.2,2.8 5.6,6.3 1.3,9.2c-5.9,3.3 -10.8,-6.7 -11.8,-10.2c-0.9,-3.1 1.7,-5.1 3.9,-6.8c4.3,-3.1 7.9,-5.9 11.9,-4.4c5,1.8 1.4,5.8 -1.1,7.6c-1.5,1.1 -3,2.3 -4.1,3c-0.3,0.5 -0.4,1.1 -0.1,1.6z" fill="#ffab19" fill-rule="evenodd" stroke="#001026" stroke-width="1.2" stroke-linecap="round" stroke-linejoin="round"/><path d="M190.70009,139.5c0.3,-0.2 0.8,-0.1 0.9,0.3l2.6,10.7c0,0 6.4,4.7 8.3,8c3.2,5.5 3.3,10 3.3,10c0,0 7.1,2.1 8.3,7.8c1.2,5.7 -3.2,16.5 -22,20.2c-18.8,3.7 -33.9,-1.4 -41,-12.8c-7.1,-11.4 4.1,-25 3.5,-24.2l-2.1,-17.9c-0.1,-0.4 0.4,-0.7 0.8,-0.5l12.1,7.9c0,0 4.5,-1.7 9.2,-1.9c2.8,-0.2 5.2,0 7.5,0.4z" fill="#ffab19" fill-rule="evenodd" stroke="#001026" stroke-width="1.2" stroke-linecap="butt" stroke-linejoin="miter"/><path d="M220.76676,170.00005c-4.7,3.8 -11.9,3.9 -11.9,3.9" fill="none" fill-rule="evenodd" stroke="#001026" stroke-width="1.2" stroke-linecap="round" stroke-linejoin="round"/><path d="M221.46677,181.26671c-6.3,0.5 -10.2,-1.4 -10.2,-1.4" fill="none" fill-rule="evenodd" stroke="#001026" stroke-width="1.2" stroke-linecap="round" stroke-linejoin="round"/><path d="M188.60011,171.20005c2.1,0 4.3,0.2 4.4,0.9c0.1,1.4 -1.4,4.2 -3,4.3c-1.8,0.2 -6,-2.3 -6,-3.9c-0.1,-1.2 2.6,-1.3 4.6,-1.3z" fill="#001026" fill-rule="evenodd" stroke="#001026" stroke-width="1.2" stroke-linecap="round" stroke-linejoin="round"/><path d="M205.5001,168.90005c0,0 6.9,1.8 8.1,7.5c1.2,5.7 -3.6,16 -22.2,19.6c-24.2,5 -35.7,-9.4 -29,-20c6.7,-10.7 18.2,-1.6 26.6,-2.2c7.2,-0.5 8,-6.8 16.5,-4.9z" fill="#ffffff" fill-rule="evenodd" stroke="none" stroke-width="1" stroke-linecap="butt" stroke-linejoin="miter"/><g fill-rule="evenodd"><path d="M175.60011,162.30005c3,4.4 2.8,9.8 0.1,11.7c-3.3,1.9 -7.7,0.5 -10.7,-3.9c-3.1,-4.4 -3.3,-10.1 -0.2,-12.3c3.1,-2.3 7.8,0.1 10.8,4.5z" fill="#ffffff" stroke="#001026" stroke-width="1.2" stroke-linecap="round" stroke-linejoin="round"/><path d="M175.0001,168.10005c0,1.1 -0.8,2 -1.8,2c-1,0 -1.8,-0.9 -1.8,-2c0,-1.1 0.8,-2 1.8,-2c1,0.1 1.8,0.9 1.8,2" fill="#001026" stroke="none" stroke-width="1" stroke-linecap="butt" stroke-linejoin="miter"/></g><path d="M186.28346,179.09802c10.5,-0.6 14.3,6.9 15.2,9.6c0.2,0.5 -0.2,1 -0.7,0.9c-1.5,-0.3 -4.7,-0.6 -10.1,-0.3c-6,0.4 -11.4,2 -13.3,2.7c-0.4,0.1 -0.8,-0.2 -0.8,-0.6c-0.3,-4.9 0.6,-11.3 9.7,-12.3z" data-paper-data="{&quot;index&quot;:null}" fill="#ffffff" fill-rule="evenodd" stroke="#001026" stroke-width="1.2" stroke-linecap="round" stroke-linejoin="round"/><text transform="translate(1.4154,63.82058) scale(1.77844,1.77844)" font-size="40" xml:space="preserve" fill="#ffffff" fill-rule="nonzero" stroke="#ffffff" stroke-width="3" stroke-linecap="butt" stroke-linejoin="miter" stroke-miterlimit="10" stroke-dasharray="" stroke-dashoffset="0" font-family="&quot;ヒラギノ角ゴ Pro W3&quot;, &quot;Hiragino Kaku Gothic Pro&quot;, Osaka, &quot;メイリオ&quot;, Meiryo, &quot;ＭＳ Ｐゴシック&quot;, &quot;MS PGothic&quot;" font-weight="normal" text-anchor="start" style="mix-blend-mode: normal"><tspan x="0" dy="0">THE LOST </tspan><tspan x="0" dy="46.150000000000006px">CAT</tspan></text><text transform="translate(6.2904,347.80408) scale(1.10145,1.10145)" font-size="40" xml:space="preserve" fill="#ffffff" fill-rule="nonzero" stroke="#000000" stroke-width="2" stroke-linecap="butt" stroke-linejoin="miter" stroke-miterlimit="10" stroke-dasharray="" stroke-dashoffset="0" font-family="Pixel" font-weight="normal" text-anchor="start" style="mix-blend-mode: normal"><tspan x="0" dy="0">0.1V</tspan></text><path d="M621.11403,283.10747l0.0796,4.71803l-3.03478,7.38773l-5.48589,5.14632c0,0 -6.95516,1.95282 -7.35694,2.0332c-0.40222,0.08145 -12.66645,-2.1187 -12.66645,-2.1187l-8.79493,-4.35282l-10.39372,-7.35409l-13.78911,-14.66751l-9.98893,-13.47644l-2.30647,-4.52405l1.96414,0.31352l7.79153,5.29728l10.1458,4.66107l8.37425,2.08339l4.71316,-1.88716l2.68791,-2.3491l14.82805,7.94111l8.77042,4.71273l9.89246,4.68034z" fill-opacity="0.54902" fill="#ffd500" fill-rule="evenodd" stroke="none" stroke-width="1" stroke-linecap="butt" stroke-linejoin="miter"/><path d="M423.87963,276.68584l-6.51469,0.7981l-15.85487,-1.80648l-13.41063,-3.83383l-15.34238,-7.01824l-17.26758,-8.52652l-1.60294,-5.31839l0.99642,-11.9332l3.42726,-11.44665l8.97704,-16.15401l6.28004,-10.01456l7.65272,-6.48166l4.89853,-2.93446l28.42116,17.49135l13.8833,10.19898l7.58551,8.75095l3.90427,6.29305l3.71396,10.28319l1.72702,10.02475l-2.82426,7.97368l-4.94164,6.40062l-6.84403,4.62033l-6.86422,2.63299" fill="#504a59" fill-rule="evenodd" stroke="none" stroke-width="1" stroke-linecap="butt" stroke-linejoin="miter"/><path d="M340.68081,296.71008l1.6,-14.369l6.4,-1.596l9.1,-2.495l11.5,-2.195l6.825,0.399l7.475,-0.698l9.9,0.798l10.547,3.193l7.253,5.289l0.6,4.689l-0.6,8.082l-3.6,-1.995l-4.807,-3.293l-5.293,-2.195l-5.9,-0.699l-6.16,-0.997h-3.14l-9.7,-0.399l-4,0.399l-4.027,0.408l-4.773,0.689l-5.8,1.098l-3.9,1.097l-5.1,2.096l-4.4,2.694" fill="#3c3651" fill-rule="evenodd" stroke="none" stroke-width="1" stroke-linecap="butt" stroke-linejoin="miter"/><path d="M612.84827,280.86222l0.06977,4.1357l-2.66021,6.4759l-4.80879,4.51113c0,0 -6.09671,1.71179 -6.4489,1.78225c-0.35257,0.07139 -11.10308,-1.85719 -11.10308,-1.85719l-7.70941,-3.81557l-9.11087,-6.44641l-12.08718,-12.85716l-8.75604,-11.8131l-2.02179,-3.96567l1.72171,0.27482l6.82986,4.64346l8.89355,4.08578l7.34065,1.82624l4.13144,-1.65423l2.35615,-2.05916l12.99789,6.96097l7.68792,4.13106l8.67148,4.10266z" fill="#6c1f1b" fill-rule="evenodd" stroke="none" stroke-width="1" stroke-linecap="butt" stroke-linejoin="miter"/><path d="M481.29875,268.37126l14.11806,-2.44433l10.80803,-2.07337l8.37341,-1.52328l1.88001,2.38613l3.78241,2.92737l5.32627,1.36563l6.02988,0.14132l5.39688,-1.44894l-7.83337,7.38369l-13.42244,8.88421l-10.99305,5.22929l-11.46079,0.79905l-7.05278,-3.18002l-4.62182,-5.9035l-1.19381,-6.5215l0.86311,-6.02175" fill="#6c1f1b" fill-rule="evenodd" stroke="none" stroke-width="1" stroke-linecap="butt" stroke-linejoin="miter"/><path d="M463.89784,243.73571l-8.317,-0.998l-3.989,-3.791l-1.061,-4.391v-5.787l2.123,-5.089l5.527,-4.69l5,-1.896l8.4,1.497l4.9,4.191l1.2,7.633l-1.2,5.239l-3.6,4.088l-5,2.797l-3.983,1.197" fill="#6c1f1b" fill-rule="evenodd" stroke="none" stroke-width="1" stroke-linecap="butt" stroke-linejoin="miter"/><path d="M535.68148,251.96341c-0.85,-0.111 -1.656,-0.403 -2.518,-0.521c-1.182,-0.162 -2.13,-0.974 -2.95,-1.834c-0.392,-0.413 -0.622,-0.975 -0.994,-1.411c-0.359,-0.421 -0.584,-0.853 -0.705,-1.404c-0.225,-1.029 -0.592,-2.027 -0.841,-3.052c-0.263,-1.085 -0.516,-2.178 -0.665,-3.282c-0.165,-1.231 0.242,-2.485 -0.069,-3.723c-0.015,-0.059 -0.015,-0.132 0.005,-0.189c0.452,-1.289 0.754,-2.633 1.652,-3.739c0.581,-0.716 1.094,-1.495 1.576,-2.283c0.854,-1.394 2.079,-2.429 3.303,-3.458c0.98,-0.824 2.231,-1.211 3.281,-1.972c1.464,-1.061 3.325,-1.194 5.048,-1.618c0.146,-0.035 0.317,0.023 0.476,0.045c1.079,0.148 2.155,0.378 3.239,0.425c1.125,0.05 2.126,0.452 3.116,0.873c0.918,0.392 1.774,0.933 2.654,1.416c1.529,0.839 2.76,2.038 3.582,3.535c0.82,1.496 1.27,3.161 1.288,4.899c0.011,0.997 -0.078,1.999 0.006,2.989c0.069,0.812 0.044,1.582 -0.139,2.38c-0.364,1.6 -0.844,3.134 -1.637,4.593c-0.406,0.745 -0.803,1.453 -1.419,2.031c-1.006,0.943 -2.082,1.797 -3.169,2.648c-1.557,1.218 -3.342,1.91 -5.18,2.428c-1.47,0.415 -3.03,0.51 -4.634,0.76c-1.391,-0.173 -2.849,-0.345 -4.306,-0.536zM554.13645,233.3954c-0.078,-0.821 -0.328,-1.558 -0.881,-2.18c-0.021,-0.025 -0.059,-0.044 -0.064,-0.071c-0.267,-1.28 -1.385,-1.772 -2.313,-2.396c-0.999,-0.671 -2.043,-1.303 -3.137,-1.801c-1.477,-0.673 -3.012,-1.205 -4.701,-1.06c-0.593,0.051 -1.202,-0.113 -1.804,-0.126c-0.305,-0.006 -0.615,0.092 -0.915,0.172c-0.217,0.057 -0.415,0.212 -0.631,0.236c-1.763,0.197 -3.168,1.155 -4.56,2.13c-0.887,0.622 -1.799,1.224 -2.602,1.944c-0.682,0.611 -1.32,1.319 -1.801,2.093c-0.673,1.084 -1.236,2.245 -1.747,3.417c-0.426,0.976 -0.467,2.013 -0.323,3.097c0.134,1.006 0.159,2.023 0.43,3.014c0.278,1.011 0.502,2.036 0.757,3.053c0.07,0.278 0.186,0.544 0.248,0.823c0.412,1.851 1.714,2.834 3.373,3.48c0.325,0.127 0.638,0.285 0.958,0.426c0.114,0.051 0.234,0.143 0.346,0.136c1.868,-0.112 3.684,0.357 5.531,0.465c0.472,0.027 0.96,-0.069 1.429,-0.162c1.063,-0.209 2.11,-0.518 3.18,-0.662c0.988,-0.134 1.796,-0.637 2.668,-1.02c1.306,-0.574 2.381,-1.453 3.368,-2.46c0.174,-0.178 0.444,-0.258 0.648,-0.412c1.127,-0.851 1.703,-2.121 2.096,-3.364c0.571,-1.798 1,-3.676 0.818,-5.624c-0.126,-1.049 -0.271,-2.096 -0.371,-3.148z" fill="#12193b" fill-rule="nonzero" stroke="none" stroke-width="1" stroke-linecap="butt" stroke-linejoin="miter"/><path d="M490.62137,231.43034c0.346,0.077 0.686,0.204 1.035,0.237c1.156,0.106 2.062,0.668 2.838,1.48c0.284,0.297 0.543,0.617 0.819,0.922c1.133,1.252 1.619,2.751 1.615,4.407c-0.004,1.568 -0.452,3.043 -1.145,4.44c-0.661,1.332 -1.454,2.569 -2.717,3.43c-0.636,0.434 -1.254,0.893 -1.907,1.298c-1.588,0.986 -3.304,1.54 -5.196,1.434c-0.22,-0.012 -0.444,-0.057 -0.656,-0.118c-0.707,-0.202 -1.387,-0.496 -2.153,-0.464c-0.232,0.009 -0.476,-0.17 -0.706,-0.281c-0.29,-0.138 -0.556,-0.344 -0.859,-0.436c-0.761,-0.232 -1.228,-0.753 -1.595,-1.422c-0.698,-1.272 -1.127,-2.609 -1.372,-4.051c-0.302,-1.774 -0.138,-3.437 0.303,-5.178c0.418,-1.651 1.707,-2.529 2.71,-3.627c0.689,-0.754 1.677,-1.376 2.813,-1.524c0.156,-0.02 0.309,-0.099 0.45,-0.174c1.113,-0.594 2.329,-0.682 3.869,-0.778c0.427,0.094 1.141,0.248 1.854,0.405zM493.73637,235.30534c-1.089,-1.028 -2.358,-1.424 -3.754,-1.709c-0.812,-0.165 -1.592,-0.443 -2.438,-0.328c-0.123,0.016 -0.265,-0.059 -0.379,-0.026c-0.976,0.284 -1.992,0.486 -2.912,0.899c-1.689,0.758 -3.067,1.908 -3.743,3.706c-0.478,1.274 -0.61,2.59 -0.37,3.941c0.237,1.335 0.68,2.566 1.613,3.591c0.455,0.501 0.999,0.821 1.666,0.846c0.399,0.016 0.723,0.146 1.088,0.276c0.559,0.201 1.194,0.197 1.797,0.278c1.472,0.197 2.781,-0.316 4.035,-0.984c0.731,-0.39 1.468,-0.805 2.101,-1.33c0.53,-0.441 0.959,-1.028 1.345,-1.609c0.458,-0.687 0.934,-1.399 1.195,-2.171c0.228,-0.677 0.168,-1.451 0.244,-2.273c-0.126,-1.146 -0.526,-2.198 -1.488,-3.107z" fill="#17204b" fill-rule="nonzero" stroke="none" stroke-width="1" stroke-linecap="butt" stroke-linejoin="miter"/><path d="M363.92248,263.91172l-4.425,-2.621l-3.3,-3.964l-2.175,-7.035l-0.525,-9.804l2.85,-13.62l4.575,-13.247l3.425,-8.606l3.5,-7.484l0.6,-2.544l0.725,-0.524l0.875,2.02l6.025,14.145l5.1,13.246l2.25,11.001l2.025,9.404l-0.9,8.782l-4.425,6.886l-4.375,3.442l-1.625,0.523h-8.775h-1.425" fill="#f7ec1e" fill-rule="evenodd" stroke="none" stroke-width="1" stroke-linecap="butt" stroke-linejoin="miter"/><path d="M531.88663,253.32654c-0.96969,-0.12663 -1.88917,-0.45974 -2.87254,-0.59436c-1.34844,-0.18481 -2.42992,-1.11114 -3.36538,-2.09223c-0.44719,-0.47115 -0.70958,-1.11229 -1.13396,-1.60968c-0.40955,-0.48028 -0.66624,-0.97311 -0.80427,-1.60169c-0.25669,-1.17389 -0.67536,-2.31241 -0.95942,-3.48173c-0.30003,-1.23778 -0.58866,-2.48467 -0.75863,-3.74412c-0.18823,-1.40433 0.27607,-2.8349 -0.07872,-4.24722c-0.01711,-0.0673 -0.01711,-0.15058 0.00571,-0.21561c0.51564,-1.4705 0.86017,-3.00374 1.88461,-4.26547c0.6628,-0.81681 1.24804,-1.7055 1.7979,-2.60445c0.97425,-1.59028 2.37173,-2.77101 3.76808,-3.94491c1.11799,-0.94002 2.54513,-1.38151 3.74297,-2.24966c1.67014,-1.2104 3.79318,-1.36212 5.75879,-1.84582c0.16656,-0.03992 0.36163,0.02624 0.54301,0.05133c1.23093,0.16884 2.45844,0.43123 3.69507,0.48484c1.2834,0.05704 2.42536,0.51565 3.55475,0.99592c1.04725,0.44719 2.02379,1.06437 3.02769,1.61538c1.74429,0.95713 3.14862,2.32496 4.08636,4.03275c0.93546,1.70664 1.44883,3.60609 1.46936,5.5888c0.01255,1.13738 -0.08899,2.28047 0.00684,3.40986c0.07871,0.92633 0.0502,1.80475 -0.15858,2.71511c-0.41525,1.82529 -0.96283,3.57529 -1.8675,5.23972c-0.46316,0.8499 -0.91606,1.65759 -1.6188,2.31697c-1.14765,1.07578 -2.37515,2.05002 -3.61521,3.02085c-1.77623,1.3895 -3.81256,2.17894 -5.90936,2.76987c-1.67698,0.47343 -3.45664,0.58181 -5.2865,0.86701c-1.58686,-0.19736 -3.25015,-0.39358 -4.91231,-0.61147zM552.94017,232.14407c-0.08898,-0.93661 -0.37418,-1.77738 -1.00505,-2.48696c-0.02395,-0.02852 -0.06732,-0.0502 -0.07301,-0.081c-0.3046,-1.46023 -1.58002,-2.0215 -2.63868,-2.73336c-1.13966,-0.76548 -2.33066,-1.48647 -3.5787,-2.05459c-1.68497,-0.76776 -3.43611,-1.37466 -5.36293,-1.20925c-0.6765,0.05819 -1.37124,-0.12892 -2.058,-0.14374c-0.34795,-0.00684 -0.70159,0.10495 -1.04384,0.19622c-0.24756,0.06502 -0.47344,0.24185 -0.71985,0.26923c-2.01124,0.22474 -3.61406,1.31763 -5.20207,2.42991c-1.01189,0.70958 -2.05231,1.39634 -2.96837,2.21772c-0.77803,0.69703 -1.50587,1.50473 -2.05459,2.38771c-0.76776,1.23663 -1.41004,2.5611 -1.99299,3.89812c-0.48598,1.11343 -0.53275,2.29644 -0.36848,3.53308c0.15287,1.14764 0.18138,2.30785 0.49054,3.43838c0.31714,1.15336 0.57269,2.32268 0.86359,3.48288c0.07986,0.31714 0.21219,0.62059 0.28292,0.93888c0.47001,2.11163 1.95534,3.23304 3.84794,3.97c0.37076,0.14489 0.72783,0.32513 1.09289,0.48598c0.13005,0.05818 0.26695,0.16314 0.39472,0.15516c2.13103,-0.12777 4.20272,0.40727 6.30979,0.53047c0.53846,0.0308 1.09518,-0.07871 1.63021,-0.18481c1.21267,-0.23843 2.4071,-0.59094 3.62775,-0.75522c1.12712,-0.15286 2.04889,-0.72669 3.04367,-1.16362c1.48989,-0.65483 2.71625,-1.65759 3.84223,-2.80638c0.1985,-0.20306 0.50652,-0.29432 0.73924,-0.47001c1.28569,-0.97082 1.94279,-2.41964 2.39112,-3.83766c0.6514,-2.05117 1.14081,-4.1936 0.93318,-6.41589c-0.14374,-1.1967 -0.30916,-2.39113 -0.42324,-3.59125z" fill-opacity="0.54902" fill="#ffd500" fill-rule="nonzero" stroke="none" stroke-width="1" stroke-linecap="butt" stroke-linejoin="miter"/><path d="M366.74751,247.8127l-1.9,-1.048l-1.1,-3.069v-5.612l2.1,-9.505l3.1,-9.879h1.025l3.975,12.498l1.8,10.678l-0.975,4.14l-1.725,1.797l-5.175,0.598l-1.125,-0.598" fill="#fbf5a8" fill-rule="evenodd" stroke="none" stroke-width="1" stroke-linecap="butt" stroke-linejoin="miter"/><g fill-rule="evenodd" stroke="none" stroke-width="1" stroke-linecap="butt" stroke-linejoin="miter"><path d="M383.42248,245.91172l-4.425,-2.621l-3.3,-3.964l-2.175,-7.035l-0.525,-9.804l2.85,-13.62l4.575,-13.247l3.425,-8.606l3.5,-7.484l0.6,-2.544l0.725,-0.524l0.875,2.02l6.025,14.145l5.1,13.246l2.25,11.001l2.025,9.404l-0.9,8.782l-4.425,6.886l-4.375,3.442l-1.625,0.523h-8.775h-1.425" fill="#f7ec1e"/><path d="M385.74751,234.3127l-1.9,-1.048l-1.1,-3.069v-5.612l2.1,-9.505l3.1,-9.879h1.025l3.975,12.498l1.8,10.678l-0.975,4.14l-1.725,1.797l-5.175,0.598l-1.125,-0.598" fill="#fbf5a8"/></g><path d="M352.42248,317.91172l-4.425,-2.621l-3.3,-3.964l-2.175,-7.035l-0.525,-9.804l2.85,-13.62l4.575,-13.247l3.425,-8.606l3.5,-7.484l0.6,-2.544l0.725,-0.524l0.875,2.02l6.025,14.145l5.1,13.246l2.25,11.001l2.025,9.404l-0.9,8.782l-4.425,6.886l-4.375,3.442l-1.625,0.523h-8.775h-1.425" fill="#f7ec1e" fill-rule="evenodd" stroke="none" stroke-width="1" stroke-linecap="butt" stroke-linejoin="miter"/><path d="M354.74751,306.3127l-1.9,-1.048l-1.1,-3.069v-5.612l2.1,-9.505l3.1,-9.879h1.025l3.975,12.498l1.8,10.678l-0.975,4.14l-1.725,1.797l-5.175,0.598l-1.125,-0.598" fill="#fbf5a8" fill-rule="evenodd" stroke="none" stroke-width="1" stroke-linecap="butt" stroke-linejoin="miter"/><g fill-rule="evenodd" stroke="none" stroke-width="1" stroke-linecap="butt" stroke-linejoin="miter"><path d="M381.42248,305.41172l-4.425,-2.621l-3.3,-3.964l-2.175,-7.035l-0.525,-9.804l2.85,-13.62l4.575,-13.247l3.425,-8.606l3.5,-7.484l0.6,-2.544l0.725,-0.524l0.875,2.02l6.025,14.145l5.1,13.246l2.25,11.001l2.025,9.404l-0.9,8.782l-4.425,6.886l-4.375,3.442l-1.625,0.523h-8.775h-1.425" fill="#f7ec1e"/><path d="M383.74751,293.8127l-1.9,-1.048l-1.1,-3.069v-5.612l2.1,-9.505l3.1,-9.879h1.025l3.975,12.498l1.8,10.678l-0.975,4.14l-1.725,1.797l-5.175,0.598l-1.125,-0.598" fill="#fbf5a8"/></g><path d="M491.42249,288.91172l-4.425,-2.621l-3.3,-3.964l-2.175,-7.035l-0.525,-9.804l2.85,-13.62l4.575,-13.247l3.425,-8.606l3.5,-7.484l0.6,-2.544l0.725,-0.524l0.875,2.02l6.025,14.145l5.1,13.246l2.25,11.001l2.025,9.404l-0.9,8.782l-4.425,6.886l-4.375,3.442l-1.625,0.523h-8.775h-1.425" fill="#f7ec1e" fill-rule="evenodd" stroke="none" stroke-width="1" stroke-linecap="butt" stroke-linejoin="miter"/><path d="M493.24751,279.3127l-1.9,-1.048l-1.1,-3.069v-5.612l2.1,-9.505l3.1,-9.879h1.025l3.975,12.498l1.8,10.678l-0.975,4.14l-1.725,1.797l-5.175,0.598l-1.125,-0.598" fill="#fbf5a8" fill-rule="evenodd" stroke="none" stroke-width="1" stroke-linecap="butt" stroke-linejoin="miter"/><path d="M412.42249,272.91172l-4.425,-2.621l-3.3,-3.964l-2.175,-7.035l-0.525,-9.804l2.85,-13.62l4.575,-13.247l3.425,-8.606l3.5,-7.484l0.6,-2.544l0.725,-0.524l0.875,2.02l6.025,14.145l5.1,13.246l2.25,11.001l2.025,9.404l-0.9,8.782l-4.425,6.886l-4.375,3.442l-1.625,0.523h-8.775h-1.425" fill="#f7ec1e" fill-rule="evenodd" stroke="none" stroke-width="1" stroke-linecap="butt" stroke-linejoin="miter"/><g fill-rule="evenodd" stroke="none" stroke-width="1" stroke-linecap="butt" stroke-linejoin="miter"><path d="M441.42249,238.91172l-4.425,-2.621l-3.3,-3.964l-2.175,-7.035l-0.525,-9.804l2.85,-13.62l4.575,-13.247l3.425,-8.606l3.5,-7.484l0.6,-2.544l0.725,-0.524l0.875,2.02l6.025,14.145l5.1,13.246l2.25,11.001l2.025,9.404l-0.9,8.782l-4.425,6.886l-4.375,3.442l-1.625,0.523h-8.775h-1.425" fill="#f7ec1e"/><path d="M443.74751,227.3127l-1.9,-1.048l-1.1,-3.069v-5.612l2.1,-9.505l3.1,-9.879h1.025l3.975,12.498l1.8,10.678l-0.975,4.14l-1.725,1.797l-5.175,0.598l-1.125,-0.598" fill="#fbf5a8"/></g><path d="M414.74751,259.8127l-1.9,-1.048l-1.1,-3.069v-5.612l2.1,-9.505l3.1,-9.879h1.025l3.975,12.498l1.8,10.678l-0.975,4.14l-1.725,1.797l-5.175,0.598l-1.125,-0.598" fill="#fbf5a8" fill-rule="evenodd" stroke="none" stroke-width="1" stroke-linecap="butt" stroke-linejoin="miter"/><g fill-rule="evenodd" stroke="none" stroke-width="1" stroke-linecap="butt" stroke-linejoin="miter"><path d="M568.42243,292.91172l-4.425,-2.621l-3.3,-3.964l-2.175,-7.035l-0.525,-9.804l2.85,-13.62l4.575,-13.247l3.425,-8.606l3.5,-7.484l0.6,-2.544l0.725,-0.524l0.875,2.02l6.025,14.145l5.1,13.246l2.25,11.001l2.025,9.404l-0.9,8.782l-4.425,6.886l-4.375,3.442l-1.625,0.523h-8.775h-1.425" fill="#f7ec1e"/><path d="M570.74745,281.3127l-1.9,-1.048l-1.1,-3.069v-5.612l2.1,-9.505l3.1,-9.879h1.025l3.975,12.498l1.8,10.678l-0.975,4.14l-1.725,1.797l-5.175,0.598l-1.125,-0.598" fill="#fbf5a8"/></g><path d="M469.92249,244.91172l-4.425,-2.621l-3.3,-3.964l-2.175,-7.035l-0.525,-9.804l2.85,-13.62l4.575,-13.247l3.425,-8.606l3.5,-7.484l0.6,-2.544l0.725,-0.524l0.875,2.02l6.025,14.145l5.1,13.246l2.25,11.001l2.025,9.404l-0.9,8.782l-4.425,6.886l-4.375,3.442l-1.625,0.523h-8.775h-1.425" fill="#f7ec1e" fill-rule="evenodd" stroke="none" stroke-width="1" stroke-linecap="butt" stroke-linejoin="miter"/><path d="M472.24751,233.3127l-1.9,-1.048l-1.1,-3.069v-5.612l2.1,-9.505l3.1,-9.879h1.025l3.975,12.498l1.8,10.678l-0.975,4.14l-1.725,1.797l-5.175,0.598l-1.125,-0.598" fill="#fbf5a8" fill-rule="evenodd" stroke="none" stroke-width="1" stroke-linecap="butt" stroke-linejoin="miter"/><g fill-rule="evenodd" stroke="none" stroke-width="1" stroke-linecap="butt" stroke-linejoin="miter"><path d="M502.42249,272.91172l-4.425,-2.621l-3.3,-3.964l-2.175,-7.035l-0.525,-9.804l2.85,-13.62l4.575,-13.247l3.425,-8.606l3.5,-7.484l0.6,-2.544l0.725,-0.524l0.875,2.02l6.025,14.145l5.1,13.246l2.25,11.001l2.025,9.404l-0.9,8.782l-4.425,6.886l-4.375,3.442l-1.625,0.523h-8.775h-1.425" fill="#f7ec1e"/><path d="M504.74751,261.3127l-1.9,-1.048l-1.1,-3.069v-5.612l2.1,-9.505l3.1,-9.879h1.025l3.975,12.498l1.8,10.678l-0.975,4.14l-1.725,1.797l-5.175,0.598l-1.125,-0.598" fill="#fbf5a8"/></g><path d="M432.42249,316.91172l-4.425,-2.621l-3.3,-3.964l-2.175,-7.035l-0.525,-9.804l2.85,-13.62l4.575,-13.247l3.425,-8.606l3.5,-7.484l0.6,-2.544l0.725,-0.524l0.875,2.02l6.025,14.145l5.1,13.246l2.25,11.001l2.025,9.404l-0.9,8.782l-4.425,6.886l-4.375,3.442l-1.625,0.523h-8.775h-1.425" fill="#f7ec1e" fill-rule="evenodd" stroke="none" stroke-width="1" stroke-linecap="butt" stroke-linejoin="miter"/><path d="M434.74751,305.3127l-1.9,-1.048l-1.1,-3.069v-5.612l2.1,-9.505l3.1,-9.879h1.025l3.975,12.498l1.8,10.678l-0.975,4.14l-1.725,1.797l-5.175,0.598l-1.125,-0.598" fill="#fbf5a8" fill-rule="evenodd" stroke="none" stroke-width="1" stroke-linecap="butt" stroke-linejoin="miter"/><g fill-rule="evenodd" stroke="none" stroke-width="1" stroke-linecap="butt" stroke-linejoin="miter"><path d="M485.42249,336.41172l-4.425,-2.621l-3.3,-3.964l-2.175,-7.035l-0.525,-9.804l2.85,-13.62l4.575,-13.247l3.425,-8.606l3.5,-7.484l0.6,-2.544l0.725,-0.524l0.875,2.02l6.025,14.145l5.1,13.246l2.25,11.001l2.025,9.404l-0.9,8.782l-4.425,6.886l-4.375,3.442l-1.625,0.523h-8.775h-1.425" fill="#f7ec1e"/><path d="M487.74751,324.8127l-1.9,-1.048l-1.1,-3.069v-5.612l2.1,-9.505l3.1,-9.879h1.025l3.975,12.498l1.8,10.678l-0.975,4.14l-1.725,1.797l-5.175,0.598l-1.125,-0.598" fill="#fbf5a8"/></g><path d="M526.92243,261.41172l-4.425,-2.621l-3.3,-3.964l-2.175,-7.035l-0.525,-9.804l2.85,-13.62l4.575,-13.247l3.425,-8.606l3.5,-7.484l0.6,-2.544l0.725,-0.524l0.875,2.02l6.025,14.145l5.1,13.246l2.25,11.001l2.025,9.404l-0.9,8.782l-4.425,6.886l-4.375,3.442l-1.625,0.523h-8.775h-1.425" fill="#f7ec1e" fill-rule="evenodd" stroke="none" stroke-width="1" stroke-linecap="butt" stroke-linejoin="miter"/><path d="M529.13393,249.68776l-2.12928,-1.17447l-1.23274,-3.43935v-6.28922l2.35342,-10.65201l3.47409,-11.07114h1.14869l4.45468,14.00618l2.01721,11.96656l-1.09266,4.63959l-1.93316,2.01385l-5.79949,0.67016l-1.26076,-0.67016" fill="#fbf5a8" fill-rule="evenodd" stroke="none" stroke-width="1" stroke-linecap="butt" stroke-linejoin="miter"/><g fill-rule="evenodd" stroke="none" stroke-width="1" stroke-linecap="butt" stroke-linejoin="miter"><path d="M595.92243,265.41172l-4.425,-2.621l-3.3,-3.964l-2.175,-7.035l-0.525,-9.804l2.85,-13.62l4.575,-13.247l3.425,-8.606l3.5,-7.484l0.6,-2.544l0.725,-0.524l0.875,2.02l6.025,14.145l5.1,13.246l2.25,11.001l2.025,9.404l-0.9,8.782l-4.425,6.886l-4.375,3.442l-1.625,0.523h-8.775h-1.425" fill="#f7ec1e"/><path d="M598.24745,253.8127l-1.9,-1.048l-1.1,-3.069v-5.612l2.1,-9.505l3.1,-9.879h1.025l3.975,12.498l1.8,10.678l-0.975,4.14l-1.725,1.797l-5.175,0.598l-1.125,-0.598" fill="#fbf5a8"/></g><path d="M535.42243,323.91172l-4.425,-2.621l-3.3,-3.964l-2.175,-7.035l-0.525,-9.804l2.85,-13.62l4.575,-13.247l3.425,-8.606l3.5,-7.484l0.6,-2.544l0.725,-0.524l0.875,2.02l6.025,14.145l5.1,13.246l2.25,11.001l2.025,9.404l-0.9,8.782l-4.425,6.886l-4.375,3.442l-1.625,0.523h-8.775h-1.425" fill="#f7ec1e" fill-rule="evenodd" stroke="none" stroke-width="1" stroke-linecap="butt" stroke-linejoin="miter"/><path d="M538.24745,309.8127l-1.9,-1.048l-1.1,-3.069v-5.612l2.1,-9.505l3.1,-9.879h1.025l3.975,12.498l1.8,10.678l-0.975,4.14l-1.725,1.797l-5.175,0.598l-1.125,-0.598" fill="#fbf5a8" fill-rule="evenodd" stroke="none" stroke-width="1" stroke-linecap="butt" stroke-linejoin="miter"/><g fill-rule="evenodd" stroke="none" stroke-width="1" stroke-linecap="butt" stroke-linejoin="miter"><path d="M596.42243,312.91172l-4.425,-2.621l-3.3,-3.964l-2.175,-7.035l-0.525,-9.804l2.85,-13.62l4.575,-13.247l3.425,-8.606l3.5,-7.484l0.6,-2.544l0.725,-0.524l0.875,2.02l6.025,14.145l5.1,13.246l2.25,11.001l2.025,9.404l-0.9,8.782l-4.425,6.886l-4.375,3.442l-1.625,0.523h-8.775h-1.425" fill="#f7ec1e"/><path d="M598.74745,301.3127l-1.9,-1.048l-1.1,-3.069v-5.612l2.1,-9.505l3.1,-9.879h1.025l3.975,12.498l1.8,10.678l-0.975,4.14l-1.725,1.797l-5.175,0.598l-1.125,-0.598" fill="#fbf5a8"/></g><path d="M421.47257,277.54629l-7.43198,0.91048l-18.08731,-2.06084l-15.2989,-4.37365l-17.50266,-8.00644l-19.69894,-9.72709l-1.82865,-6.06725l1.13673,-13.61344l3.90983,-13.05839l10.24104,-18.42857l7.1643,-11.42466l8.73026,-7.39431l5.58826,-3.34764l32.42299,19.95422l15.83814,11.63504l8.65359,9.98312l4.45401,7.17914l4.2369,11.73111l1.97019,11.43628l-3.22193,9.09641l-5.63745,7.30186l-7.8077,5.2709l-7.83074,3.00373" fill-opacity="0.54902" fill="#ffd500" fill-rule="evenodd" stroke="none" stroke-width="1" stroke-linecap="butt" stroke-linejoin="miter"/><path d="M330.1443,296.80469l1.82529,-16.39222l7.30115,-1.82073l10.38132,-2.8463l13.11925,-2.50406l7.786,0.45517l8.52751,-0.79628l11.29397,0.91037l12.03206,3.64258l8.27426,6.03372l0.68448,5.34924l-0.68448,9.21998l-4.1069,-2.27591l-5.48384,-3.75666l-6.03827,-2.50406l-6.73075,-0.79742l-7.02735,-1.13738h-3.58212l-11.06581,-0.45519l-4.56322,0.45519l-4.59402,0.46544l-5.44506,0.78602l-6.61667,1.2526l-4.44914,1.25146l-5.81811,2.39112l-5.01954,3.07333" fill-opacity="0.54902" fill="#ffd500" fill-rule="evenodd" stroke="none" stroke-width="1" stroke-linecap="butt" stroke-linejoin="miter"/><path d="M480.20423,264.87399l16.10595,-2.7885l12.32985,-2.36532l9.55242,-1.73776l2.14472,2.7221l4.31499,3.33956l6.07623,1.55792l6.87892,0.16122l6.15679,-1.65296l-8.93635,8.42335l-15.31238,10.13514l-12.54092,5.9656l-13.07452,0.91156l-8.04584,-3.62779l-5.27259,-6.73474l-1.3619,-7.43975l0.98464,-6.86964" fill-opacity="0.54902" fill="#ffd500" fill-rule="evenodd" stroke="none" stroke-width="1" stroke-linecap="butt" stroke-linejoin="miter"/><path d="M465.93042,246.33057l-9.48808,-1.13852l-4.55066,-4.32479l-1.21039,-5.00928v-6.60184l2.42192,-5.80555l6.30523,-5.35037l5.70401,-2.16297l9.58276,1.70779l5.58994,4.78111l1.36897,8.70776l-1.36897,5.97668l-4.1069,4.66361l-5.70401,3.19083l-4.54383,1.36554" fill-opacity="0.54902" fill="#ffd500" fill-rule="evenodd" stroke="none" stroke-width="1" stroke-linecap="butt" stroke-linejoin="miter"/><path d="M498.23457,223.29256c0.39472,0.08784 0.78259,0.23273 1.18073,0.27037c1.31877,0.12092 2.35234,0.76205 3.2376,1.68839c0.32399,0.33882 0.61946,0.70388 0.93432,1.05183c1.29253,1.42829 1.84696,3.13835 1.8424,5.02753c-0.00456,1.78878 -0.51564,3.47147 -1.30622,5.06517c-0.75407,1.51955 -1.65873,2.93073 -3.09957,3.91296c-0.72555,0.49511 -1.43057,1.01874 -2.17551,1.48077c-1.8116,1.12483 -3.76922,1.75684 -5.92762,1.63591c-0.25098,-0.01369 -0.50652,-0.06502 -0.74838,-0.13461c-0.80655,-0.23045 -1.58229,-0.56583 -2.45614,-0.52933c-0.26467,0.01027 -0.54303,-0.19394 -0.80541,-0.32057c-0.33083,-0.15743 -0.63428,-0.39244 -0.97995,-0.49739c-0.86815,-0.26467 -1.40091,-0.85903 -1.81959,-1.62222c-0.79628,-1.45111 -1.28568,-2.97636 -1.56518,-4.6214c-0.34453,-2.02379 -0.15743,-3.92095 0.34566,-5.90708c0.47686,-1.88347 1.94736,-2.88509 3.09158,-4.1377c0.78601,-0.86016 1.91313,-1.56975 3.20908,-1.73859c0.17796,-0.02281 0.35251,-0.11294 0.51337,-0.1985c1.26972,-0.67764 2.65693,-0.77803 4.41377,-0.88754c0.48712,0.10724 1.30165,0.28292 2.11505,0.46202zM501.78821,227.71318c-1.24234,-1.17275 -2.69003,-1.62451 -4.28259,-1.94964c-0.92633,-0.18823 -1.81616,-0.50538 -2.78128,-0.37419c-0.14031,0.01825 -0.30232,-0.0673 -0.43237,-0.02965c-1.11343,0.32399 -2.27247,0.55444 -3.32201,1.02558c-1.92682,0.86473 -3.49885,2.17665 -4.27004,4.22782c-0.5453,1.45339 -0.69589,2.95469 -0.4221,4.49592c0.27037,1.52297 0.77575,2.92731 1.84012,4.09663c0.51907,0.57155 1.13966,0.9366 1.90058,0.96512c0.45518,0.01825 0.8248,0.16655 1.2412,0.31486c0.63771,0.2293 1.36212,0.22474 2.05003,0.31714c1.67926,0.22474 3.17258,-0.3605 4.60314,-1.12256c0.83392,-0.44491 1.6747,-0.91834 2.39683,-1.51726c0.60463,-0.5031 1.09403,-1.17275 1.53439,-1.83556c0.52249,-0.78373 1.06551,-1.59599 1.36326,-2.47669c0.26011,-0.77233 0.19166,-1.6553 0.27836,-2.59305c-0.14374,-1.30736 -0.60006,-2.50748 -1.69751,-3.54448z" fill-opacity="0.54902" fill="#ffd500" fill-rule="nonzero" stroke="none" stroke-width="1" stroke-linecap="butt" stroke-linejoin="miter"/><path d="M351.87805,255.80282l-5.04807,-2.99005l-3.76465,-4.52214l-2.48125,-8.02556l-0.59892,-11.18445l3.25129,-15.53776l5.21918,-15.11223l3.90725,-9.81777l3.99282,-8.53778l0.68449,-2.90221l0.82708,-0.59779l0.9982,2.30443l6.87335,16.13668l5.8181,15.1111l2.56681,12.54998l2.31013,10.72813l-1.02672,10.01855l-5.04806,7.85558l-4.99102,3.92664l-1.85381,0.59664h-10.01056h-1.62564" fill-opacity="0.54902" fill="#ffd500" fill-rule="evenodd" stroke="none" stroke-width="1" stroke-linecap="butt" stroke-linejoin="miter"/><path d="M355.10087,237.43699l-2.16752,-1.19556l-1.25489,-3.50113v-6.4022l2.39569,-10.84335l3.53649,-11.27001h1.16933l4.53469,14.25777l2.05345,12.18151l-1.11228,4.72293l-1.96789,2.05003l-5.90367,0.6822l-1.28341,-0.6822" fill-opacity="0.54902" fill="#ffd500" fill-rule="evenodd" stroke="none" stroke-width="1" stroke-linecap="butt" stroke-linejoin="miter"/><g fill-opacity="0.54902" fill="#ffd500" fill-rule="evenodd" stroke="none" stroke-width="1" stroke-linecap="butt" stroke-linejoin="miter"><path d="M374.12375,235.26834l-5.04806,-2.99005l-3.76465,-4.52215l-2.48125,-8.02556l-0.59893,-11.18445l3.2513,-15.53776l5.21918,-15.11224l3.90725,-9.81777l3.99282,-8.53778l0.68448,-2.90221l0.82709,-0.59778l0.99821,2.30442l6.87334,16.13668l5.8181,15.1111l2.56681,12.55l2.31014,10.72813l-1.02673,10.01854l-5.04806,7.85559l-4.99102,3.92665l-1.85381,0.59664h-10.01056h-1.62565"/><path d="M376.77615,222.03612l-2.16753,-1.19556l-1.25489,-3.50113v-6.4022l2.39569,-10.84335l3.53649,-11.27001h1.16933l4.5347,14.25777l2.05344,12.18151l-1.11228,4.72294l-1.96789,2.05002l-5.90366,0.6822l-1.28341,-0.6822"/></g><path d="M338.75881,317.40627l-5.04806,-2.99005l-3.76466,-4.52215l-2.48125,-8.02556l-0.59892,-11.18444l3.25129,-15.53777l5.21918,-15.11223l3.90726,-9.81777l3.99282,-8.53778l0.68448,-2.9022l0.82709,-0.59778l0.9982,2.30442l6.87334,16.13668l5.81811,15.1111l2.56681,12.55l2.31013,10.72812l-1.02673,10.01855l-5.04806,7.85558l-4.99102,3.92665l-1.8538,0.59664h-10.01056h-1.62565" fill-opacity="0.54902" fill="#ffd500" fill-rule="evenodd" stroke="none" stroke-width="1" stroke-linecap="butt" stroke-linejoin="miter"/><path d="M341.41121,304.17406l-2.16753,-1.19556l-1.25489,-3.50113v-6.4022l2.39569,-10.84335l3.5365,-11.27001h1.16933l4.53469,14.25777l2.05345,12.18152l-1.11228,4.72293l-1.96789,2.05003l-5.90366,0.6822l-1.28341,-0.6822" fill-opacity="0.54902" fill="#ffd500" fill-rule="evenodd" stroke="none" stroke-width="1" stroke-linecap="butt" stroke-linejoin="miter"/><g fill-opacity="0.54902" fill="#ffd500" fill-rule="evenodd" stroke="none" stroke-width="1" stroke-linecap="butt" stroke-linejoin="miter"><path d="M371.84214,303.14621l-5.04806,-2.99005l-3.76465,-4.52215l-2.48125,-8.02556l-0.59892,-11.18444l3.25129,-15.53776l5.21919,-15.11224l3.90725,-9.81777l3.99282,-8.53778l0.68449,-2.9022l0.82708,-0.59779l0.9982,2.30443l6.87335,16.13668l5.81811,15.1111l2.5668,12.54999l2.31014,10.72813l-1.02672,10.01855l-5.04806,7.85558l-4.99102,3.92664l-1.85381,0.59664h-10.01056h-1.62565"/><path d="M374.49454,289.914l-2.16753,-1.19556l-1.25489,-3.50113v-6.4022l2.39569,-10.84335l3.5365,-11.27001h1.16933l4.5347,14.25778l2.05345,12.18151l-1.11228,4.72293l-1.96789,2.05003l-5.90367,0.68219l-1.2834,-0.68219"/></g><path d="M517.24916,305.03826l-5.04806,-2.99005l-3.76466,-4.52215l-2.48125,-8.02556l-0.59892,-11.18445l3.25129,-15.53776l5.21918,-15.11223l3.90726,-9.81777l3.99282,-8.53778l0.68448,-2.90221l0.82708,-0.59778l0.99821,2.30443l6.87335,16.13667l5.8181,15.1111l2.56681,12.54999l2.31013,10.72812l-1.02672,10.01855l-5.04806,7.85559l-4.99102,3.92665l-1.85381,0.59664h-10.01056h-1.62565" fill-opacity="0.54902" fill="#ffd500" fill-rule="evenodd" stroke="none" stroke-width="1" stroke-linecap="butt" stroke-linejoin="miter"/><path d="M499.41261,273.37233l-2.16753,-1.19556l-1.25489,-3.50113v-6.40219l2.39569,-10.84335l3.5365,-11.27001h1.16932l4.5347,14.25778l2.05345,12.18151l-1.11228,4.72293l-1.96789,2.05003l-5.90367,0.6822l-1.2834,-0.6822" fill-opacity="0.54902" fill="#ffd500" fill-rule="evenodd" stroke="none" stroke-width="1" stroke-linecap="butt" stroke-linejoin="miter"/><path d="M407.20707,266.07007l-5.04806,-2.99005l-3.76465,-4.52215l-2.48125,-8.02557l-0.59893,-11.18445l3.25129,-15.53775l5.21919,-15.11225l3.90725,-9.81776l3.99282,-8.53778l0.68448,-2.90221l0.82709,-0.59778l0.9982,2.30443l6.87335,16.13668l5.8181,15.1111l2.56681,12.54999l2.31013,10.72813l-1.02672,10.01854l-5.04806,7.85558l-4.99102,3.92666l-1.8538,0.59664h-10.01056h-1.62565" fill-opacity="0.54902" fill="#ffd500" fill-rule="evenodd" stroke="none" stroke-width="1" stroke-linecap="butt" stroke-linejoin="miter"/><g fill-opacity="0.54902" fill="#ffd500" fill-rule="evenodd" stroke="none" stroke-width="1" stroke-linecap="butt" stroke-linejoin="miter"><path d="M440.29041,227.28271l-5.04807,-2.99005l-3.76465,-4.52215l-2.48125,-8.02556l-0.59892,-11.18445l3.25129,-15.53776l5.21918,-15.11223l3.90726,-9.81777l3.99281,-8.53778l0.68448,-2.90221l0.82709,-0.59778l0.9982,2.30443l6.87335,16.13668l5.81811,15.1111l2.56681,12.54999l2.31013,10.72813l-1.02672,10.01855l-5.04806,7.85558l-4.99102,3.92665l-1.85381,0.59664h-10.01056h-1.62565"/><path d="M442.9428,214.0505l-2.16753,-1.19557l-1.25488,-3.50113v-6.4022l2.39569,-10.84335l3.5365,-11.27h1.16932l4.5347,14.25777l2.05345,12.18151l-1.11229,4.72293l-1.96789,2.05003l-5.90366,0.6822l-1.28341,-0.6822"/></g><path d="M409.85948,251.12664l-2.16753,-1.19556l-1.25489,-3.50113v-6.4022l2.39569,-10.84334l3.5365,-11.27001h1.16933l4.53469,14.25778l2.05345,12.18151l-1.11228,4.72293l-1.96789,2.05002l-5.90366,0.6822l-1.28341,-0.6822" fill-opacity="0.54902" fill="#ffd500" fill-rule="evenodd" stroke="none" stroke-width="1" stroke-linecap="butt" stroke-linejoin="miter"/><g fill-opacity="0.54902" fill="#ffd500" fill-rule="evenodd" stroke="none" stroke-width="1" stroke-linecap="butt" stroke-linejoin="miter"><path d="M585.17261,288.88615l-5.04806,-2.99005l-3.76465,-4.52215l-2.48125,-8.02555l-0.59893,-11.18445l3.2513,-15.53776l5.21918,-15.11224l3.90725,-9.81777l3.99282,-8.53778l0.68448,-2.9022l0.82709,-0.59779l0.9982,2.30443l6.87335,16.13667l5.8181,15.1111l2.56681,12.54999l2.31013,10.72813l-1.02672,10.01855l-5.04806,7.85558l-4.99102,3.92665l-1.85381,0.59664h-10.01056h-1.62564"/><path d="M587.82494,275.65394l-2.16753,-1.19556l-1.25488,-3.50113v-6.4022l2.39569,-10.84335l3.53649,-11.27h1.16933l4.53469,14.25777l2.05345,12.18151l-1.11228,4.72294l-1.96789,2.05003l-5.90366,0.6822l-1.2834,-0.6822"/></g><path d="M472.80335,234.12754l-5.04805,-2.99005l-3.76466,-4.52215l-2.48125,-8.02556l-0.59892,-11.18445l3.2513,-15.53776l5.21918,-15.11224l3.90726,-9.81777l3.99282,-8.53778l0.68448,-2.90221l0.82708,-0.59778l0.9982,2.30442l6.87335,16.13669l5.81811,15.11109l2.56681,12.54999l2.31013,10.72813l-1.02673,10.01854l-5.04806,7.85559l-4.99102,3.92665l-1.85381,0.59664h-10.01056h-1.62565" fill-opacity="0.54902" fill="#ffd500" fill-rule="evenodd" stroke="none" stroke-width="1" stroke-linecap="butt" stroke-linejoin="miter"/><path d="M475.45576,220.89532l-2.16753,-1.19556l-1.25489,-3.50113v-6.4022l2.39569,-10.84335l3.53649,-11.27001h1.16933l4.5347,14.25778l2.05344,12.1815l-1.11228,4.72294l-1.96789,2.05002l-5.90367,0.68221l-1.2834,-0.68221" fill-opacity="0.54902" fill="#ffd500" fill-rule="evenodd" stroke="none" stroke-width="1" stroke-linecap="butt" stroke-linejoin="miter"/><g fill-opacity="0.54902" fill="#ffd500" fill-rule="evenodd" stroke="none" stroke-width="1" stroke-linecap="butt" stroke-linejoin="miter"><path d="M509.87949,266.07007l-5.04806,-2.99005l-3.76465,-4.52215l-2.48125,-8.02557l-0.59893,-11.18445l3.25129,-15.53775l5.21918,-15.11225l3.90725,-9.81776l3.99282,-8.53778l0.68448,-2.90221l0.82708,-0.59778l0.99821,2.30443l6.87334,16.13668l5.8181,15.1111l2.56681,12.54999l2.31013,10.72813l-1.02672,10.01854l-5.04806,7.85558l-4.99103,3.92666l-1.8538,0.59664h-10.01056h-1.62565"/><path d="M512.53185,252.83785l-2.16753,-1.19556l-1.25489,-3.50113v-6.4022l2.39569,-10.84335l3.53649,-11.27001h1.16933l4.5347,14.25778l2.05345,12.18151l-1.11229,4.72294l-1.96789,2.05003l-5.90366,0.6822l-1.28341,-0.6822"/></g><path d="M430.02318,316.26547l-5.04806,-2.99005l-3.76466,-4.52215l-2.48125,-8.02556l-0.59892,-11.18444l3.25129,-15.53776l5.21918,-15.11224l3.90726,-9.81777l3.99282,-8.53778l0.68448,-2.90221l0.82709,-0.59778l0.9982,2.30443l6.87335,16.13668l5.8181,15.1111l2.56682,12.54999l2.31012,10.72812l-1.02672,10.01855l-5.04806,7.85558l-4.99102,3.92665l-1.85381,0.59664h-10.01056h-1.62565" fill-opacity="0.54902" fill="#ffd500" fill-rule="evenodd" stroke="none" stroke-width="1" stroke-linecap="butt" stroke-linejoin="miter"/><path d="M432.67557,303.03325l-2.16753,-1.19556l-1.25489,-3.50113v-6.4022l2.39569,-10.84334l3.5365,-11.27001h1.16933l4.53469,14.25777l2.05345,12.18152l-1.11228,4.72293l-1.96789,2.05003l-5.90366,0.6822l-1.28341,-0.6822" fill-opacity="0.54902" fill="#ffd500" fill-rule="evenodd" stroke="none" stroke-width="1" stroke-linecap="butt" stroke-linejoin="miter"/><g fill-opacity="0.54902" fill="#ffd500" fill-rule="evenodd" stroke="none" stroke-width="1" stroke-linecap="butt" stroke-linejoin="miter"><path d="M490.48583,338.51116l-5.04806,-2.99005l-3.76466,-4.52215l-2.48125,-8.02555l-0.59892,-11.18445l3.25129,-15.53776l5.21918,-15.11223l3.90725,-9.81777l3.99282,-8.53778l0.68448,-2.9022l0.82709,-0.59779l0.9982,2.30443l6.87335,16.13668l5.8181,15.1111l2.56681,12.54999l2.31012,10.72813l-1.02672,10.01854l-5.04806,7.85558l-4.99101,3.92665l-1.85381,0.59664h-10.01056h-1.62565"/><path d="M493.13821,325.27894l-2.16753,-1.19556l-1.25489,-3.50113v-6.4022l2.39569,-10.84335l3.53649,-11.27h1.16933l4.5347,14.25777l2.05344,12.18151l-1.11228,4.72294l-1.96789,2.05003l-5.90367,0.6822l-1.2834,-0.6822"/></g><path d="M537.82922,252.95081l-5.04806,-2.99005l-3.76465,-4.52215l-2.48125,-8.02556l-0.59893,-11.18445l3.2513,-15.53776l5.21918,-15.11224l3.90726,-9.81776l3.99282,-8.53778l0.68448,-2.90221l0.82709,-0.59778l0.9982,2.30443l6.87334,16.13669l5.81811,15.11109l2.56681,12.54999l2.31013,10.72813l-1.02672,10.01855l-5.04806,7.85558l-4.99102,3.92665l-1.85381,0.59664h-10.01056h-1.62565" fill-opacity="0.54902" fill="#ffd500" fill-rule="evenodd" stroke="none" stroke-width="1" stroke-linecap="butt" stroke-linejoin="miter"/><path d="M540.35205,239.57607l-2.4291,-1.33984l-1.40631,-3.92363v-7.17477l2.68479,-12.15186l3.96326,-12.63001h1.31044l5.08191,15.97832l2.30124,13.6515l-1.24651,5.29287l-2.20536,2.29741l-6.61609,0.76453l-1.43828,-0.76453" fill-opacity="0.54902" fill="#ffd500" fill-rule="evenodd" stroke="none" stroke-width="1" stroke-linecap="butt" stroke-linejoin="miter"/><g fill-opacity="0.54902" fill="#ffd500" fill-rule="evenodd" stroke="none" stroke-width="1" stroke-linecap="butt" stroke-linejoin="miter"><path d="M616.54468,257.51403l-5.04806,-2.99004l-3.76466,-4.52215l-2.48125,-8.02556l-0.59892,-11.18445l3.25129,-15.53776l5.21919,-15.11224l3.90725,-9.81777l3.99282,-8.53778l0.68448,-2.90221l0.82708,-0.59778l0.9982,2.30443l6.87335,16.13669l5.8181,15.11109l2.56682,12.54999l2.31012,10.72813l-1.02673,10.01855l-5.04806,7.85558l-4.99102,3.92664l-1.8538,0.59664h-10.01056h-1.62564"/><path d="M619.19706,244.28181l-2.16753,-1.19556l-1.25489,-3.50113v-6.4022l2.39569,-10.84334l3.53649,-11.27001h1.16932l4.5347,14.25778l2.05345,12.18151l-1.11228,4.72293l-1.96789,2.05003l-5.90366,0.6822l-1.28341,-0.6822"/></g><path d="M547.52604,324.2511l-5.04806,-2.99005l-3.76465,-4.52215l-2.48125,-8.02556l-0.59893,-11.18445l3.2513,-15.53776l5.21919,-15.11223l3.90725,-9.81777l3.99282,-8.53778l0.68448,-2.90221l0.82708,-0.59779l0.99821,2.30443l6.87334,16.13668l5.8181,15.1111l2.56681,12.54998l2.31013,10.72813l-1.02673,10.01855l-5.04806,7.85557l-4.99102,3.92665l-1.8538,0.59664h-10.01056h-1.62565" fill-opacity="0.54902" fill="#ffd500" fill-rule="evenodd" stroke="none" stroke-width="1" stroke-linecap="butt" stroke-linejoin="miter"/><path d="M550.7488,308.16686l-2.16753,-1.19556l-1.25489,-3.50113v-6.4022l2.39569,-10.84334l3.5365,-11.27h1.16932l4.5347,14.25777l2.05345,12.18151l-1.11228,4.72293l-1.96789,2.05002l-5.90366,0.68221l-1.28341,-0.68221" fill-opacity="0.54902" fill="#ffd500" fill-rule="evenodd" stroke="none" stroke-width="1" stroke-linecap="butt" stroke-linejoin="miter"/><g fill-opacity="0.54902" fill="#ffd500" fill-rule="evenodd" stroke="none" stroke-width="1" stroke-linecap="butt" stroke-linejoin="miter"><path d="M584.05022,324.84851l-5.04806,-2.99005l-3.76466,-4.52215l-2.48125,-8.02556l-0.59892,-11.18445l3.2513,-15.53776l5.21918,-15.11224l3.90725,-9.81777l3.99282,-8.53778l0.68448,-2.9022l0.82708,-0.59778l0.99821,2.30442l6.87334,16.13668l5.81811,15.11109l2.56681,12.54999l2.31013,10.72813l-1.02672,10.01854l-5.04806,7.85558l-4.99102,3.92665l-1.8538,0.59664h-10.01057h-1.62564"/><path d="M586.70264,311.61629l-2.16753,-1.19556l-1.25488,-3.50113v-6.4022l2.39569,-10.84334l3.53649,-11.27001h1.16933l4.5347,14.25777l2.05345,12.18152l-1.11228,4.72293l-1.96789,2.05003l-5.90367,0.6822l-1.2834,-0.6822"/></g><g fill-opacity="0.54902" fill="#ffd500" fill-rule="evenodd" stroke="none" stroke-width="1" stroke-linecap="butt" stroke-linejoin="miter"><path d="M479.4826,265.49286l-3.39819,-2.0128l-2.53424,-3.04417l-1.6703,-5.40256l-0.40319,-7.52901l2.18867,-10.45952l3.51339,-10.17308l2.63024,-6.60901l2.68784,-5.74736l0.46077,-1.95368l0.55676,-0.4024l0.67196,1.55126l4.62692,10.8627l3.91656,10.17231l1.72789,8.44826l1.55511,7.22183l-0.69116,6.74416l-3.39819,5.28813l-3.3598,2.6433l-1.24792,0.40163h-6.73879h-1.09434"/><path d="M481.26813,256.58536l-1.45911,-0.80482l-0.84474,-2.35685v-4.30975l1.6127,-7.2994l2.38065,-7.58661h0.78715l3.05262,9.59788l1.38232,8.2002l-0.74876,3.17933l-1.32472,1.38001l-3.97415,0.45924l-0.86395,-0.45924"/></g><path d="M182.70009,222.50005c2.1,1.9 6.7,5.8 6.7,5.8c0,0 14.3,-2.5 14.3,4.7c0,4.3 -7.2,5.3 -16.9,4.4c-0.6,-0.1 -1.2,-0.3 -1.7,-0.7c-2.2,-1.9 -8.5,-7.5 -12.5,-11.4c-5.9,-5.8 -10.8,-9.6 -10.8,-9.6c-8.5,-8.3 -1.6,-11.8 1.1,-16.6c2.5,-4.1 3.6,-3.3 9.6,-2.1c3.4,0.5 5.4,0.8 7.6,0.7c3.3,-0.1 2.7,4.7 1.8,7.2c0,0 -1.4,3.7 -2.7,5.6c-1.6,2.3 -2.8,3.8 -4,4.7z" fill="#ffab19" fill-rule="evenodd" stroke="#001026" stroke-width="1.2" stroke-linecap="round" stroke-linejoin="round"/><path d="M174.3001,215.10005c0,0 -1.5,-1.2 -3.1,-2.7c-2,-1.8 -4,-3.3 -2,-6.4c1.8,-2.4 3.5,-5.6 8,-2.7c4.3,2.7 2.4,5.2 2.4,5.2c-2.2,4.5 -5.3,6.6 -5.3,6.6z" fill="#ffffff" fill-rule="evenodd" stroke="none" stroke-width="1" stroke-linecap="butt" stroke-linejoin="miter"/><g fill-rule="evenodd"><path d="M200.60011,161.21672c3,4.4 2.8,9.8 0.1,11.7c-3.3,1.9 -7.7,0.5 -10.7,-3.9c-3.1,-4.4 -3.3,-10.1 -0.2,-12.3c3.1,-2.3 7.8,0.1 10.8,4.5z" fill="#ffffff" stroke="#001026" stroke-width="1.2" stroke-linecap="round" stroke-linejoin="round"/><path d="M200.0001,167.01672c0,1.1 -0.8,2 -1.8,2c-1,0 -1.8,-0.9 -1.8,-2c0,-1.1 0.8,-2 1.8,-2c1,0.1 1.8,0.9 1.8,2" fill="#001026" stroke="none" stroke-width="1" stroke-linecap="butt" stroke-linejoin="miter"/></g><g fill-rule="nonzero" stroke="none" stroke-width="1" stroke-linecap="butt" stroke-linejoin="miter"><path d="M149.45734,185.1164l-7.25038,-21.49228l1.87876,-17.03584c0,0 17.99317,-8.6486 18.79659,-8.12505c0.80683,0.52355 26.31934,0 26.31934,0l24.70567,16.77365l5.10267,23.06335l-6.1746,13.629l-15.84548,8.6486l-30.07728,-5.76573z" fill-opacity="0.5451" fill="#ffffff"/><path d="M160.91323,132.04271c3.99825,-0.53728 7.98537,-1.34717 12.00158,-1.51822c2.81814,-0.11861 5.87701,0.13277 8.48393,1.10329c5.77311,2.15331 11.38117,4.76732 16.96401,7.37468c5.89497,2.75343 10.86124,6.97682 13.99878,12.36216c2.91135,5.00121 5.67263,10.27128 6.61928,16.26425c0.85686,5.41323 1.21559,10.41112 -1.32676,15.62874c-1.78555,3.66487 -2.59964,7.87035 -6.13868,10.3799c-3.17688,2.25818 -6.72361,4.0207 -10.11171,5.99963c-0.14366,0.08365 -0.34078,0.08032 -0.48444,0.16397c-4.04101,2.3872 -8.4587,2.06258 -12.92984,1.93024c-4.95559,-0.14317 -9.92571,0.18853 -14.89199,0.18479c-0.84232,0 -1.67096,-0.6842 -2.52397,-1.00507c-4.85169,-1.83243 -9.68883,-3.69608 -14.56532,-5.45526c-3.13412,-1.12742 -5.40753,-3.1796 -7.78485,-5.43779c-4.14148,-3.92997 -7.17854,-8.5612 -9.15436,-13.59737c-1.97582,-5.01911 -4.49295,-10.10772 -3.94095,-15.80021c0.35873,-3.75185 0.24414,-7.62939 1.2374,-11.21393c1.287,-4.64205 5.11678,-7.84579 8.87089,-10.66249c3.18073,-2.3872 6.91003,-4.10435 10.47771,-5.96799c1.53841,-0.80281 3.28805,-1.21815 4.94105,-1.80788c0.08594,0.3629 0.17231,0.71874 0.25826,1.07498zM143.15303,156.17067c0.29417,9.20337 2.77881,15.83475 6.47946,22.09949c0.90689,1.53944 1.50934,3.41016 2.79334,4.53717c2.1011,1.84658 4.55025,3.37188 7.02077,4.74318c8.27955,4.6071 17.72808,5.46234 26.72082,7.8075c6.01682,1.57066 11.36706,-0.33835 16.6057,-2.485c2.06518,-0.84817 3.84047,-2.87579 5.18519,-4.74984c1.73168,-2.41175 2.90409,-5.21097 4.30268,-7.84954c0.45921,-0.86898 1.33018,-1.7904 1.25493,-2.62109c-0.29032,-3.15505 -0.9428,-6.27555 -1.35883,-9.4202c-0.68497,-5.20348 -4.02347,-9.16175 -6.80228,-13.27983c-1.93606,-2.87246 -4.5216,-5.62964 -7.45476,-7.49329c-5.19204,-3.30196 -10.26607,-7.11665 -16.91399,-7.52867c-3.45651,-0.21641 -6.93483,-1.31928 -10.32677,-1.05751c-5.06675,0.39454 -10.352,0.55518 -14.76628,3.72396c-2.24819,1.61602 -4.63277,3.04351 -6.81297,4.73653c-3.51765,2.72555 -5.94841,6.09701 -5.92703,8.83713z" fill="#30419a"/></g></g></g></svg>