<svg version="1.1" xmlns="http://www.w3.org/2000/svg" xmlns:xlink="http://www.w3.org/1999/xlink" width="103.62235" height="43.75412" viewBox="0,0,103.62235,43.75412"><g transform="translate(-267.46158,-158.14084)"><g data-paper-data="{&quot;isPaintingLayer&quot;:true}" stroke-miterlimit="10" stroke-dasharray="" stroke-dashoffset="0" style="mix-blend-mode: normal"><path d="M313.35803,172.84448c0.91948,-1.79418 4.15184,-5.23005 6.54676,-5.21515c1.48585,0.00924 4.05052,-0.3697 4.05052,1.95066c0,2.39445 -3.88198,1.53386 -5.21239,3.38655c-0.22073,0.30739 -1.28651,1.34048 -1.25235,1.38173c1.15895,1.39989 4.41235,1.54688 5.04524,2.567c0.62423,0.33933 1.04299,0.96517 1.04299,1.68111c0,1.07732 -0.9482,1.95066 -2.11789,1.95066c-0.42584,0 -0.82234,-0.11575 -1.1544,-0.31497c-3.78497,-0.05337 -8.64842,-4.07051 -6.94849,-7.38759z" fill="#000000" fill-rule="nonzero" stroke="#ffffff" stroke-width="2" stroke-linecap="butt" stroke-linejoin="miter"/><path d="M268.9133,200.58008v-40.4h42v40.4z" fill="#ffffff" fill-rule="nonzero" stroke="none" stroke-width="0" stroke-linecap="butt" stroke-linejoin="miter"/><path d="M316.41237,197.71921v-14.7h52.7v14.7z" fill="#ff0000" fill-rule="nonzero" stroke="#001026" stroke-width="2.5" stroke-linecap="butt" stroke-linejoin="miter"/><path d="M316.71236,197.31921v-13.1h37.56003v13.1z" fill="#24ff00" fill-rule="nonzero" stroke="none" stroke-width="0" stroke-linecap="butt" stroke-linejoin="miter"/><path d="M297.88723,192.0098c0.28994,0.23195 3.82718,4.40705 4.98692,3.36328c1.3917,-1.21774 3.30528,-3.59523 5.39283,-1.68164c2.08755,1.91359 -1.8556,5.16089 -3.53723,6.0307c-4.00113,1.79761 -7.24844,-1.62365 -7.94429,-2.55145c-0.69585,-0.9278 -1.91359,-2.49346 -1.91359,-4.00114c0.05798,-1.62365 2.02956,-2.02956 3.01535,-1.15975z" fill="#ffab19" fill-rule="evenodd" stroke="#001026" stroke-width="1.2" stroke-linecap="round" stroke-linejoin="round"/><path d="M283.12584,200.57773c-4.92894,-4.81296 -2.32779,0.15748 -0.76214,-2.62592c1.44968,-2.37749 2.08755,-1.91359 5.5668,-1.21774c1.97157,0.28994 3.13132,0.4639 4.40705,0.40591c1.91359,-0.05799 2.26566,2.42541 1.74378,3.8751c0,0 0.58817,-2.25446 -0.16566,-1.1527c-0.9278,1.33371 -0.52365,-0.09647 -1.2195,0.42541z" fill="#ffab19" fill-rule="evenodd" stroke="#001026" stroke-width="1.2" stroke-linecap="round" stroke-linejoin="round"/><path d="M274.02948,201.29496c-0.52188,-1.79761 0.98579,-2.95736 2.26152,-3.94315c2.49346,-1.79761 4.58101,-3.42126 6.90051,-2.55145c2.89938,1.04378 0.81182,3.36327 -0.63787,4.40704c-0.86981,0.63786 -1.73962,1.33372 -2.37748,1.73963c-0.12054,0.2009 -2.14663,-0.23519 -3.94117,-0.27579c-0.79539,-0.018 -2.02742,1.24702 -2.20551,0.62372z" fill="#ffab19" fill-rule="evenodd" stroke="#001026" stroke-width="1.2" stroke-linecap="round" stroke-linejoin="round"/><g fill-rule="evenodd"><path d="M298.48422,163.39127c0.17396,-0.11597 0.4639,-0.05799 0.52188,0.17396l1.50768,6.20466c0,0 3.7112,2.72541 4.81296,4.639c1.8556,3.18931 1.91358,5.79875 1.91358,5.79875c0,0 3.22823,1.16218 3.92408,4.46747c0.69585,3.30528 -0.96672,9.6235 -11.86836,11.76903c-10.90164,2.14553 -19.65775,-0.81182 -23.77486,-7.4224c-4.11711,-6.61058 2.37749,-14.49687 2.02956,-14.03297l-1.21774,-10.37976c-0.05798,-0.23195 0.23195,-0.40591 0.4639,-0.28993l7.01648,4.58101c0,0 2.60944,-0.98578 5.33485,-1.10176c1.62365,-0.11597 3.01535,0 4.34906,0.23195z" fill="#ffab19" stroke="#001026" stroke-width="1.2" stroke-linecap="butt" stroke-linejoin="miter"/><path d="M307.06637,180.43959c0,0 4.00113,1.04378 4.69698,4.34906c0.69585,3.30528 -2.08755,9.278 -12.87322,11.36554c-14.03297,2.89937 -20.70153,-5.45082 -16.81637,-11.5975c3.88516,-6.20466 10.55372,-0.9278 15.42467,-1.27572c4.1751,-0.28994 4.639,-3.94315 9.56794,-2.84139z" fill="#ffffff" stroke="none" stroke-width="1" stroke-linecap="butt" stroke-linejoin="miter"/><path d="M288.8003,186.64425c0,-0.23195 0.23195,-0.40591 0.4639,-0.34793c1.10176,0.40591 4.23309,1.33371 7.71233,1.56566c3.13133,0.17396 4.98693,0 5.85674,-0.17396c0.28994,-0.05799 0.52188,0.23195 0.40591,0.52188c-0.52188,1.56566 -2.72541,5.91473 -8.8141,5.5668c-5.27686,-0.57987 -5.79874,-4.29108 -5.62478,-7.13246z" fill="#ffffff" stroke="#001026" stroke-width="1.2" stroke-linecap="round" stroke-linejoin="round"/><path d="" fill="none" stroke="#001026" stroke-width="1.2" stroke-linecap="round" stroke-linejoin="round"/><path d="" fill="none" stroke="#001026" stroke-width="1.2" stroke-linecap="round" stroke-linejoin="round"/><path d="M297.26648,181.7733c1.21774,0 2.49347,0.11598 2.55145,0.52189c0.05798,0.81182 -0.81182,2.43547 -1.73962,2.49346c-1.04377,0.11597 -3.47925,-1.33371 -3.47925,-2.26151c-0.05798,-0.69585 1.50768,-0.75384 2.66743,-0.75384z" fill="#001026" stroke="#001026" stroke-width="1.2" stroke-linecap="round" stroke-linejoin="round"/><path d="M271.17211,180.90349c0,0 4.98692,1.62365 7.01648,3.42126" fill="none" stroke="#001026" stroke-width="1.2" stroke-linecap="round" stroke-linejoin="round"/><path d="M278.36256,186.35431c-2.49346,0.98578 -6.78454,0.34793 -6.78454,0.34793" fill="none" stroke="#001026" stroke-width="1.2" stroke-linecap="round" stroke-linejoin="round"/><g><path d="M304.10901,174.98877c1.68163,2.60943 1.73962,5.5668 0.11597,6.61058c-1.62365,1.04378 -4.29108,-0.17397 -6.0307,-2.7834c-1.68164,-2.60943 -1.73962,-5.5668 -0.11597,-6.61058c1.62365,-1.10176 4.34907,0.17397 6.0307,2.7834z" fill="#ffffff" stroke="#001026" stroke-width="1.2" stroke-linecap="round" stroke-linejoin="round"/><path d="M303.87706,178.29405c0,0.63786 -0.4639,1.15975 -1.04377,1.15975c-0.57988,0 -1.04377,-0.52189 -1.04377,-1.15975c0,-0.63786 0.4639,-1.15975 1.04377,-1.15975c0.57988,0 1.04377,0.52189 1.04377,1.15975" fill="#001026" stroke="none" stroke-width="1" stroke-linecap="butt" stroke-linejoin="miter"/></g><g><path d="M289.72811,176.61242c1.73962,2.55145 1.62364,5.68277 0.05798,6.78454c-1.91359,1.10176 -4.46504,0.28994 -6.20466,-2.26151c-1.79761,-2.55145 -1.91359,-5.85674 -0.11597,-7.13246c1.79761,-1.33371 4.52303,0.05799 6.26265,2.60943z" fill="#ffffff" stroke="#001026" stroke-width="1.2" stroke-linecap="round" stroke-linejoin="round"/><path d="M289.38019,179.97569c0,0.63786 -0.4639,1.15975 -1.04377,1.15975c-0.57988,0 -1.04377,-0.52189 -1.04377,-1.15975c0,-0.63786 0.4639,-1.15975 1.04377,-1.15975c0.57988,0.05799 1.04377,0.52189 1.04377,1.15975" fill="#001026" stroke="none" stroke-width="1" stroke-linecap="butt" stroke-linejoin="miter"/></g></g><path d="M274.61697,189.50479l-4.20432,-12.46283l1.08945,-9.87866c0,0 10.43378,-5.01511 10.89967,-4.71151c0.46786,0.3036 15.26193,0 15.26193,0l12.21508,9.72662l-0.04109,13.70719l1.53062,7.56978l-9.1884,5.0151l-17.44106,-3.3434z" fill-opacity="0.5451" fill="#ffffff" fill-rule="nonzero" stroke="none" stroke-width="1" stroke-linecap="butt" stroke-linejoin="miter"/><path d="M283.84163,158.8098c2.31849,-0.31155 5.2991,0.58186 7.62799,0.48267c1.63417,-0.06878 1.38305,0.07024 2.89474,0.63303c3.34768,1.24865 5.63894,0.61697 8.87628,2.12891c3.41834,1.59664 6.29816,4.04568 8.11754,7.1685c1.68822,2.90007 -1.93281,6.73384 -1.38387,10.20901c0.49687,3.13899 2.14933,4.03715 0.67508,7.06271c-1.03539,2.12517 2.27032,5.78604 0.21812,7.24126c-1.8422,1.30946 -3.89885,2.3315 -5.86352,3.47903c-0.0833,0.04851 -0.19761,0.04658 -0.28091,0.09509c-2.34328,1.38428 -4.90499,1.19603 -7.49769,1.11929c-2.87362,-0.08302 -5.75566,0.10933 -8.63548,0.10716c-0.48844,0 -0.96895,-0.39675 -1.46359,-0.58282c-2.81338,-1.06258 -5.6183,-2.14326 -8.44606,-3.16336c-1.81739,-0.65376 -3.13569,-1.84378 -4.51424,-3.15324c-2.40154,-2.27889 -4.16265,-4.96442 -5.30838,-7.88477c-1.14573,-2.91046 -0.38313,-5.75011 -0.06304,-9.05104c0.20802,-2.1756 -0.6362,-4.42409 -0.06023,-6.50268c0.7463,-2.69181 1.52264,-4.66069 3.69956,-6.29402c1.84443,-1.38428 4.00695,-2.38001 6.07576,-3.46069c0.89209,-0.46553 1.96318,0.59342 2.92171,0.25145c0.04983,0.21043 0.04339,0.02149 0.09323,0.22807zM271.22595,172.0098c0.17058,5.3368 1.61136,9.18217 3.75727,12.81494c0.52589,0.89268 0.87523,1.97746 1.61979,2.63099c1.21837,1.07079 2.63858,1.95528 4.07117,2.75045c4.8011,2.67154 10.28006,3.16747 15.49473,4.52737c3.489,0.91079 6.59147,-0.1962 9.62923,-1.44099c1.19754,-0.49183 2.22699,-1.6676 3.00676,-2.75431c1.00416,-1.39852 1.68401,-3.02171 2.49501,-4.55175c0.26628,-0.5039 0.77134,-1.03821 0.72771,-1.51991c-0.16835,-1.82953 -0.54671,-3.63903 -0.78796,-5.46253c-0.3972,-3.01737 -2.33311,-5.31267 -3.94447,-7.70064c-1.12267,-1.66566 -2.62196,-3.26449 -4.32283,-4.34517c-3.01074,-1.91473 -5.95303,-4.12676 -9.808,-4.36568c-2.00435,-0.12549 -4.02133,-0.76502 -5.98823,-0.61322c-2.93808,0.22878 -6.00286,0.32193 -8.56259,2.15943c-1.30367,0.93709 -2.68642,1.76486 -3.95067,2.7466c-2.0398,1.58048 -3.44934,3.53551 -3.43694,5.12443z" fill="#30419a" fill-rule="nonzero" stroke="none" stroke-width="1" stroke-linecap="butt" stroke-linejoin="miter"/><path d="M268.71159,200.40605v-41.01521h42.02235v41.01521z" fill="none" fill-rule="nonzero" stroke="#001026" stroke-width="2.5" stroke-linecap="butt" stroke-linejoin="miter"/><path d="M315.11159,198.20605v-15.71521h54.72235v15.71521z" fill="none" fill-rule="nonzero" stroke="#001026" stroke-width="2.5" stroke-linecap="butt" stroke-linejoin="miter"/><path d="M326.83197,182.90473v14.9" fill="none" fill-rule="nonzero" stroke="#001026" stroke-width="2.5" stroke-linecap="round" stroke-linejoin="miter"/><path d="M340.43197,184.10473v14" fill="none" fill-rule="nonzero" stroke="#001026" stroke-width="2.5" stroke-linecap="round" stroke-linejoin="miter"/><path d="M355.03197,182.88444v14.02029" fill="none" fill-rule="nonzero" stroke="#001026" stroke-width="2.5" stroke-linecap="round" stroke-linejoin="miter"/><path d="M340.30043,175.14992c0.10866,1.19524 -1.08658,1.3039 -1.08658,1.3039l-1.16482,0.10094c-0.42958,-0.00057 -0.85827,0.00334 -1.28627,0.01041c0.24786,0.48819 0.5083,0.97203 0.78673,1.44916l0.29393,0.80129c0,0 0.37953,1.13859 -0.75906,1.51812c-1.13859,0.37953 -1.51811,-0.75906 -1.51811,-0.75906l-0.09013,-0.35088c-0.49612,-0.8508 -0.99498,-1.71068 -1.47109,-2.58241c-1.78285,0.0605 -3.56051,0.12577 -5.34666,0.09765c-0.60771,0.95887 -1.18252,1.95279 -1.79059,2.90843c0,0 -0.64434,1.01254 -1.65689,0.36819c-1.01254,-0.64434 -0.3682,-1.65689 -0.3682,-1.65689c0.36512,-0.5737 0.71857,-1.16216 1.07443,-1.74864c-0.22157,-0.01835 -0.44339,-0.03886 -0.66546,-0.06175c0,0 -1.1938,-0.1235 -1.0703,-1.31731c0.1235,-1.1938 1.3173,-1.0703 1.3173,-1.0703c0.63689,0.06616 1.27181,0.11228 1.90531,0.14291c1.1325,-1.52924 2.54149,-2.75137 3.46648,-4.4557l0.03165,-0.02777l-0.01052,-0.0067l0.66125,-1.03911c0.21111,-0.34367 0.59048,-0.57288 1.02339,-0.57288c0.54769,0 1.00968,0.36685 1.15368,0.86823l0.47193,1.51019l-0.16549,0.05172c0.56465,1.16916 1.07598,2.36821 1.60992,3.56401c0.79879,-0.02349 1.59933,-0.04029 2.40276,-0.04127l0.9475,-0.09108c0,0 1.19524,-0.10866 1.3039,1.08659zM332.7331,174.1258c-0.26205,-0.57318 -0.55359,-1.13638 -0.69289,-1.68974c-0.50513,0.66691 -1.05952,1.28285 -1.60215,1.91416c0.79098,-0.00929 1.58119,-0.03157 2.37177,-0.05792c-0.02575,-0.05544 -0.05133,-0.11095 -0.07673,-0.1665z" fill="#000000" fill-rule="nonzero" stroke="#ffffff" stroke-width="1.5" stroke-linecap="butt" stroke-linejoin="miter"/><path d="M338.44424,170.37695c0.32669,-0.40392 0.50039,-1.02184 0.93256,-1.17023c0.07958,-0.02732 0.16794,-0.03874 0.26762,-0.02995c0.0675,0 0.13371,0.00558 0.19817,0.01629c3.56362,0.27138 5.20914,-0.77053 8.08346,-0.77053c0.79029,0 1.87986,-0.0383 1.87986,1.20765c0,0.40318 -0.31501,0.76507 -0.60009,1.05015c-0.33176,0.33176 -1.10148,0.10577 -1.53308,0.20991c-0.83533,0.20156 -1.69295,0.42408 -2.55906,0.59053c0.30772,1.88297 0.28296,4.78609 0.30949,5.68884c0.01397,0.47533 0.40636,1.82311 0.09307,2.24082c-0.73476,0.97969 -1.98972,0.97707 -2.31259,-0.27581c-0.57465,-2.22995 -0.59862,-5.01597 -0.59893,-7.39504c-0.83616,0.00663 -1.67243,-0.00469 -2.50863,-0.00243c-0.24588,0.00066 -1.29719,-0.27426 -1.35672,-0.57191z" fill="#000000" fill-rule="nonzero" stroke="#ffffff" stroke-width="1.5" stroke-linecap="butt" stroke-linejoin="miter"/></g></g></svg>