<svg version="1.1" xmlns="http://www.w3.org/2000/svg" xmlns:xlink="http://www.w3.org/1999/xlink" width="30.14369" height="38.36255" viewBox="0,0,30.14369,38.36255"><g transform="translate(-304.84415,-159.72787)"><g data-paper-data="{&quot;isPaintingLayer&quot;:true}" fill-rule="nonzero" stroke="none" stroke-width="0.5" stroke-linecap="butt" stroke-linejoin="miter" stroke-miterlimit="10" stroke-dasharray="" stroke-dashoffset="0" style="mix-blend-mode: normal"><path d="M333.40453,172.6632c-0.29135,0.98631 -0.85445,1.73365 -1.58743,2.32821c-2.48113,2.0126 -6.90866,2.27463 -9.33076,4.12902c-1.93719,1.48313 -6.59055,6.509 -6.00723,8.1851c0.29325,0.84263 1.07783,2.42812 1.00875,3.27434c-0.14909,1.82632 -2.34091,3.09136 -4,2.1875c-1.15011,-0.62657 -1.94569,-3.89654 -2.09891,-5.16059c-0.54442,-4.4915 7.13059,-12.70123 11.46334,-14.36481c1.79064,-0.68753 3.60355,-1.31782 5.38118,-2.03833c0.23643,-0.09583 2.3144,-1.38696 2.84289,-1.03463z" data-paper-data="{&quot;index&quot;:null}" fill="#ff0000"/><path d="M317.16932,171.62511c-4.08983,3.15775 -3.62057,7.82252 -4.43145,13.35805c-0.30026,2.04974 -0.83143,4.18681 -2.0369,5.87157c-0.24626,0.34417 -1.39103,2.58761 -2.06378,2.7558c-2.28665,0.57166 -3.17987,0.03573 -3.75153,-2.25092c-0.41517,-1.66069 2.41077,-3.51992 2.85222,-4.83152c1.48705,-4.4182 0.7117,-10.03381 1.7201,-14.57159c1.01288,-4.55796 10.50736,-7.16017 13.63202,-8.63912c2.41438,-1.14276 5.11902,-4.72462 7.33339,-3.23073c1.29408,0.09492 2.31448,1.17491 2.31448,2.49322c0,0.92576 -0.50319,1.73399 -1.25098,2.16611c-3.20128,3.49069 -10.73878,4.11596 -14.31757,6.87913z" data-paper-data="{&quot;index&quot;:null}" fill="#00ff0b"/><path d="M332.22568,171.24961c-5.44758,8.30845 -5.47035,8.31621 -13.03565,15.97533c-0.53544,0.54208 -4.5951,2.61153 -4.80152,3.22534c-0.91301,2.71493 -1.70668,10.3716 -6.33815,6.62959c-0.70857,-0.57249 -0.0682,-2.98548 0.05252,-3.45134c0.48475,-1.8707 0.9706,-4.2981 2.06558,-6.08336c1.06365,-1.73418 3.72067,-2.63931 5.36778,-3.7569c4.67925,-3.17493 8.36574,-8.22707 11.2191,-12.98769c1.04022,-1.73552 2.37134,-4.50526 4.41965,-5.51532c0.38156,-0.23591 0.83131,-0.37206 1.31286,-0.37206c1.38071,0 2.5,1.11929 2.5,2.5c0,0.93403 -0.51222,1.74843 -1.27109,2.17761c-0.49803,0.49997 -1.04989,0.9859 -1.49109,1.6588z" data-paper-data="{&quot;index&quot;:null}" fill="#001eff"/></g></g></svg>