<svg version="1.1" xmlns="http://www.w3.org/2000/svg" xmlns:xlink="http://www.w3.org/1999/xlink" width="95.17899" height="93.13805" viewBox="0,0,95.17899,93.13805"><g transform="translate(-272.10915,-146.78802)"><g data-paper-data="{&quot;isPaintingLayer&quot;:true}" stroke-miterlimit="10" stroke-dasharray="" stroke-dashoffset="0" style="mix-blend-mode: normal"><path d="M349.26791,222.5094c0,9.61896 -16.51279,17.41666 -36.88235,17.41666c-20.36956,0 -36.88236,-7.79771 -36.88236,-17.41666c0,-9.61896 16.5128,-17.41666 36.88236,-17.41666c20.36956,0 36.88235,7.79771 36.88235,17.41666z" fill-opacity="0.22353" fill="#000000" fill-rule="nonzero" stroke="none" stroke-width="0" stroke-linecap="butt" stroke-linejoin="miter"/><path d="M325.48996,210.99748c-1.21688,1.53244 -12.78872,13.5513 -19.1695,18.08049l-0.33307,0.20822c-0.33307,0.20822 -0.33044,0.66961 0.00526,0.92276c2.47751,1.3579 7.15453,4.17034 2.69698,7.29141c-4.27221,3.05665 -18.74649,-4.9492 -16.24543,-9.23944c1.23436,-1.72344 3.07281,-1.7152 4.05717,-1.6875c0.53851,-0.00225 1.00184,-0.16329 1.42757,-0.40371c0.96162,-0.70406 2.69953,-2.04776 3.93651,-3.30981c3.1576,-3.13156 3.74593,-4.16814 5.03537,-6.00318c1.28944,-1.83503 4.16116,-6.25409 8.7927,-4.90519c3.98026,1.11298 3.44003,4.07448 2.31581,5.57471z" fill="#ffab19" fill-rule="evenodd" stroke="#001026" stroke-width="1.2" stroke-linecap="round" stroke-linejoin="round"/><path d="M322.63461,211.56945c0,4.53994 1.309,10.60598 -3.19971,10.60598c-1.3005,0 -1.68816,-2.47168 -3.36713,-3.29886c-4.14187,-2.04056 -9.76067,-4.07669 -9.76067,-7.30712c0,-4.53994 3.65504,-8.22028 8.16375,-8.22028c4.50871,0 8.16376,3.68035 8.16376,8.22028z" fill="#ffab19" fill-rule="nonzero" stroke="#001026" stroke-width="0" stroke-linecap="butt" stroke-linejoin="miter"/><g fill-rule="evenodd"><path d="M304.48814,205.79451c0.8,0.34271 2.5,1.1138 0.1,4.0268c-2.4,2.913 -9.3,3.51274 -10.1,3.51274c-3.1,0.08568 -6.9,0.08568 -11.1,-1.1138c-12.2,-3.42707 -12.3,-14.65071 -8.4,-16.44992c3.8,-1.79921 5.5,5.1406 11,9.33875c2.4,1.88489 5.3,2.5703 7.7,2.99868c3.4,0.51406 9.9,-2.74165 10.8,-2.31327z" fill="#ffab19" stroke="#001026" stroke-width="1.2" stroke-linecap="round" stroke-linejoin="round"/><path d="M279.68815,198.8547c1.6,2.31327 4.7,5.56898 4.7,5.56898c0,0 -3.7,-0.77109 -5.8,0.68541c-1.7,1.11379 -1.3,2.99868 -1.1,3.59842c-1.3,-1.11379 -2.9,-2.65598 -3.9,-5.65466c-1,-2.99868 0,-6.59711 2,-7.11116c2,-0.34271 2.5,0.94245 4.1,2.913z" fill="#ffffff" stroke="none" stroke-width="1" stroke-linecap="butt" stroke-linejoin="miter"/></g><path d="M331.10817,206.46224c0.5,0.34271 6.6,6.51142 8.6,4.96924c2.4,-1.79921 5.7,-5.31196 9.3,-2.48463c3.6,2.82733 -3.2,7.62522 -6.1,8.91037c-6.9,2.65598 -12.5,-2.39895 -13.7,-3.76977c-1.2,-1.37083 -3.3,-3.68409 -3.3,-5.91169c0.1,-2.39895 3.5,-2.99868 5.2,-1.71353z" fill="#ffab19" fill-rule="evenodd" stroke="#001026" stroke-width="1.2" stroke-linecap="round" stroke-linejoin="round"/><g fill-rule="evenodd"><path d="M329.68426,223.25392c1.93122,1.77465 6.18373,5.43838 6.18373,5.43838c0,0 14.46055,-1.09468 13.84966,5.0518c-0.36484,3.67081 -7.62372,4.00109 -17.21238,2.52766c-0.58935,-0.12898 -1.17022,-0.34334 -1.63448,-0.72115c-2.03086,-1.78191 -7.833,-7.02047 -11.48768,-10.64059c-2.94288,-2.93938 -3.68063,-4.56962 -5.63887,-6.37628c-0.10261,-0.09467 20.68487,-10.33441 18.64788,-15.9007c-1.22607,-3.35037 -22.44658,-0.92126 -24.14329,0.39876c-4.53641,1.76028 -0.42051,12.57778 -0.45638,12.5422c-0.03587,-0.03559 -2.79014,-11.86444 -2.85148,-11.927c-7.34407,-7.49224 2.02857,2.4058 5.08625,-1.44539c2.83886,-3.31834 5.78085,-2.91848 11.6574,-1.4579c3.34532,0.67399 5.31265,1.07549 7.5132,1.15004c3.29658,0.15452 2.29149,4.20856 1.18261,6.27732c0,0 -1.70888,3.05683 -3.1654,4.58432c-1.78938,1.84714 -3.11232,3.04043 -4.38435,3.72151z" fill="#ffab19" stroke="#001026" stroke-width="1.2" stroke-linecap="round" stroke-linejoin="round"/><path d="M321.82106,216.09c0,0 -1.39278,-1.13345 -2.85974,-2.53027c-1.84006,-1.682 -3.70558,-3.10792 -1.44977,-5.60892c1.99714,-1.91797 3.96252,-4.52616 8.20024,-1.72337c1.93039,1.24593 2.4649,2.34213 2.49502,3.15821c0.03317,0.89836 -0.54489,1.45537 -0.54489,1.45537c-2.57388,3.68162 -5.84087,5.24899 -5.84087,5.24899z" fill="#ffffff" stroke="none" stroke-width="1" stroke-linecap="butt" stroke-linejoin="miter"/></g><path d="M302.41186,213.59386c2.2,2.39895 5.6,5.39763 1.3,7.88225c-5.9,2.82733 -10.8,-5.74033 -11.8,-8.73901c-0.9,-2.65598 1.7,-4.36952 3.9,-5.82602c4.3,-2.65598 7.9,-5.05493 11.9,-3.76978c5,1.54218 1.4,4.96924 -1.1,6.51143c-1.5,0.94245 -3,1.97056 -4.1,2.57029c-0.3,0.42838 -0.4,0.94245 -0.1,1.37083z" fill="#ffab19" fill-rule="evenodd" stroke="#001026" stroke-width="1.2" stroke-linecap="round" stroke-linejoin="round"/><g fill-rule="evenodd"><path d="M333.48814,152.26948c0.3,-0.17136 0.8,-0.08568 0.9,0.25703l2.6,9.1674c0,0 6.4,4.0268 8.3,6.85413c3.2,4.71222 3.3,8.56766 3.3,8.56766c0,0 7.1,1.79921 8.3,6.68278c1.2,4.88357 -3.2,14.13665 -22,17.30669c-18.8,3.17003 -33.9,-1.19948 -41,-10.96661c-7.1,-9.76714 4.1,-21.41917 3.5,-20.73375l-2.1,-15.33612c-0.1,-0.34271 0.4,-0.59974 0.8,-0.42839l12.1,6.76846c0,0 4.5,-1.45649 9.2,-1.62785c2.8,-0.17136 5.2,0 7.5,0.34271z" fill="#ffab19" stroke="#001026" stroke-width="1.2" stroke-linecap="butt" stroke-linejoin="miter"/><path d="M348.28815,177.45842c0,0 6.9,1.54219 8.1,6.42576c1.2,4.88357 -3.6,13.70827 -22.2,16.79262c-24.2,4.28384 -35.7,-8.0536 -29,-17.13533c6.7,-9.1674 18.2,-1.37083 26.6,-1.88489c7.2,-0.42838 8,-5.82602 16.5,-4.19816z" fill="#ffffff" stroke="none" stroke-width="1" stroke-linecap="butt" stroke-linejoin="miter"/><path d="M316.78815,186.62582c0,-0.34271 0.4,-0.59974 0.8,-0.51405c1.9,0.59974 7.3,1.97056 13.3,2.31327c5.4,0.25703 8.6,0.00001 10.1,-0.25703c0.5,-0.08568 0.9,0.34271 0.7,0.77109c-0.9,2.31327 -4.7,8.73902 -15.2,8.22496c-9.1,-0.85676 -10,-6.34007 -9.7,-10.53823z" fill="#ffffff" stroke="#001026" stroke-width="1.2" stroke-linecap="round" stroke-linejoin="round"/><path d="M366.68815,178.40086c-4.7,3.25572 -11.9,3.34139 -11.9,3.34139" fill="none" stroke="#001026" stroke-width="1.2" stroke-linecap="round" stroke-linejoin="round"/><path d="M365.38815,187.99665c-6.3,0.42838 -10.2,-1.19948 -10.2,-1.19948" fill="none" stroke="#001026" stroke-width="1.2" stroke-linecap="round" stroke-linejoin="round"/><path d="M331.38813,179.42898c2.1,0 4.3,0.17135 4.4,0.77109c0.1,1.19948 -1.4,3.59842 -3,3.6841c-1.8,0.17136 -6,-1.97056 -6,-3.34139c-0.1,-1.02812 2.6,-1.11379 4.6,-1.11379z" fill="#001026" stroke="#001026" stroke-width="1.2" stroke-linecap="round" stroke-linejoin="round"/><path d="M286.38813,178.14383c0,0 8.6,2.39895 12.1,5.05492" fill="none" stroke="#001026" stroke-width="1.2" stroke-linecap="round" stroke-linejoin="round"/><path d="M298.78815,186.19744c-4.3,1.4565 -11.7,0.51405 -11.7,0.51405" fill="none" stroke="#001026" stroke-width="1.2" stroke-linecap="round" stroke-linejoin="round"/><g><path d="M343.18815,169.40481c2.9,3.85545 3,8.22496 0.2,9.76714c-2.8,1.54218 -7.4,-0.25703 -10.4,-4.11248c-2.9,-3.85545 -3,-8.22496 -0.2,-9.76714c2.8,-1.62786 7.5,0.25703 10.4,4.11248z" fill="#ffffff" stroke="#001026" stroke-width="1.2" stroke-linecap="round" stroke-linejoin="round"/><path d="M342.78815,174.28838c0,0.94245 -0.8,1.71353 -1.8,1.71353c-1,0 -1.8,-0.77109 -1.8,-1.71353c0,-0.94245 0.8,-1.71353 1.8,-1.71353c1,0 1.8,0.77109 1.8,1.71353" fill="#001026" stroke="none" stroke-width="1" stroke-linecap="butt" stroke-linejoin="miter"/></g><g><path d="M318.38813,171.80375c3,3.76977 2.8,8.39631 0.1,10.02417c-3.3,1.62786 -7.7,0.42838 -10.7,-3.34139c-3.1,-3.76977 -3.3,-8.65335 -0.2,-10.53824c3.1,-1.97056 7.8,0.08568 10.8,3.85545z" fill="#ffffff" stroke="#001026" stroke-width="1.2" stroke-linecap="round" stroke-linejoin="round"/><path d="M317.78815,176.773c0,0.94245 -0.8,1.71354 -1.8,1.71354c-1,0 -1.8,-0.77109 -1.8,-1.71354c0,-0.94245 0.8,-1.71353 1.8,-1.71353c1,0.08568 1.8,0.77109 1.8,1.71353" fill="#001026" stroke="none" stroke-width="1" stroke-linecap="butt" stroke-linejoin="miter"/></g></g><path d="M292.75252,193.5749l-7.25038,-18.41387l1.87876,-14.59575c0,0 17.99317,-7.40984 18.79659,-6.96127c0.80683,0.44857 26.31934,0 26.31934,0l24.70567,14.37111l5.10267,19.75991l-6.1746,11.67688l-15.84548,7.40983l-30.07728,-4.93988z" fill-opacity="0.5451" fill="#ffffff" fill-rule="nonzero" stroke="none" stroke-width="1" stroke-linecap="butt" stroke-linejoin="miter"/><path d="M304.27501,148.1121c3.99825,-0.46032 7.98537,-1.15421 12.00158,-1.30076c2.81814,-0.10162 5.87701,0.11375 8.48393,0.94527c5.77311,1.84489 11.38117,4.08448 16.96401,6.31838c5.89497,2.35905 10.86124,5.97751 13.99878,10.59149c2.91135,4.28487 5.67263,8.80009 6.61928,13.93467c0.85686,4.63788 1.21559,8.9199 -1.32676,13.39018c-1.78555,3.13994 -2.59964,6.74305 -6.13868,8.89315c-3.17688,1.93473 -6.72361,3.4448 -10.11171,5.14028c-0.14366,0.07167 -0.34078,0.06882 -0.48444,0.14048c-4.04101,2.04528 -8.4587,1.76715 -12.92984,1.65376c-4.95559,-0.12267 -9.92571,0.16153 -14.89199,0.15832c-0.84232,0 -1.67096,-0.5862 -2.52397,-0.86111c-4.85169,-1.56996 -9.68883,-3.16668 -14.56532,-4.67388c-3.13412,-0.96593 -5.40753,-2.72417 -7.78485,-4.65891c-4.14148,-3.36707 -7.17854,-7.33496 -9.15436,-11.64978c-1.97582,-4.3002 -4.49295,-8.65996 -3.94095,-13.53709c0.35873,-3.21446 0.24414,-6.53661 1.2374,-9.60772c1.287,-3.97716 5.11678,-6.72201 8.87089,-9.13526c3.18073,-2.04528 6.91003,-3.51647 10.47771,-5.11318c1.53841,-0.68782 3.28805,-1.04367 4.94105,-1.54893c0.08594,0.31092 0.17231,0.6158 0.25826,0.921zM286.51486,168.77517c0.29417,7.88514 2.77881,13.56669 6.47946,18.93411c0.90689,1.31894 1.50934,2.92171 2.79334,3.8873c2.1011,1.58208 4.55025,2.88892 7.02077,4.06381c8.27955,3.94721 17.72808,4.67995 26.72082,6.6892c6.01682,1.34569 11.36706,-0.28988 16.6057,-2.12906c2.06518,-0.72669 3.84047,-2.46388 5.18519,-4.0695c1.73168,-2.06631 2.90409,-4.46458 4.30268,-6.72523c0.45921,-0.74451 1.33018,-1.53396 1.25493,-2.24566c-0.29032,-2.70314 -0.9428,-5.37668 -1.35883,-8.07092c-0.68497,-4.45817 -4.02347,-7.84948 -6.80228,-11.37772c-1.93606,-2.46102 -4.5216,-4.82329 -7.45476,-6.42001c-5.19204,-2.82901 -10.26607,-6.09731 -16.91399,-6.45031c-3.45651,-0.18542 -6.93483,-1.13031 -10.32677,-0.90604c-5.06675,0.33803 -10.352,0.47566 -14.76628,3.19057c-2.24819,1.38455 -4.63277,2.60758 -6.81297,4.05811c-3.51765,2.33516 -5.94841,5.22371 -5.92703,7.57136z" fill="#30419a" fill-rule="nonzero" stroke="none" stroke-width="1" stroke-linecap="butt" stroke-linejoin="miter"/><path d="M312.62022,217.29737v-4.77166c0,0 5.89724,1.11351 6.00006,1.15052c1.36519,0.49139 2.37153,1.73719 2.37153,1.73719l-5.35708,4.14391z" fill="#ffab19" fill-rule="nonzero" stroke="#001026" stroke-width="0" stroke-linecap="butt" stroke-linejoin="miter"/><path d="M327.9601,210.4835c0,0 0.07116,-0.23577 0.15013,-0.51285c0.02692,-0.09446 0.06374,-0.20266 0.07964,-0.29903c0.00608,-0.03688 0.02973,-0.06439 0.02796,-0.09998c-0.01751,-0.35247 -0.25773,-1.16218 -0.25773,-1.16218l1.11047,-0.63218l1.09572,-0.02937l0.06474,0.03955l-2.03381,2.71391z" fill="#ffab19" fill-rule="nonzero" stroke="none" stroke-width="0" stroke-linecap="butt" stroke-linejoin="miter"/></g></g></svg>