<svg version="1.1" xmlns="http://www.w3.org/2000/svg" xmlns:xlink="http://www.w3.org/1999/xlink" width="314.23463" height="190.45619" viewBox="0,0,314.23463,190.45619"><g transform="translate(-11.36846,-33.70454)"><g data-paper-data="{&quot;isPaintingLayer&quot;:true}" stroke="none" stroke-width="1" stroke-linecap="butt" stroke-linejoin="miter" stroke-miterlimit="10" stroke-dasharray="" stroke-dashoffset="0" style="mix-blend-mode: normal"><path d="M305.61662,168.75704l0.07959,4.71803l-3.03478,7.38773l-5.48589,5.14632c0,0 -6.95516,1.95282 -7.35694,2.0332c-0.40222,0.08145 -12.66644,-2.1187 -12.66644,-2.1187l-8.79493,-4.35282l-10.39372,-7.35409l-13.78911,-14.66751l-9.98893,-13.47644l-2.30647,-4.52405l1.96413,0.31351l7.79154,5.29728l10.1458,4.66108l8.37425,2.08338l4.71317,-1.88715l2.68791,-2.3491l14.82805,7.94111l8.77042,4.71273l9.89247,4.68034z" fill-opacity="0.54902" fill="#ffd500" fill-rule="evenodd"/><path d="M108.38218,162.33541l-6.51469,0.7981l-15.85487,-1.80648l-13.41063,-3.83383l-15.34238,-7.01824l-17.26758,-8.52652l-1.60294,-5.31839l0.99642,-11.9332l3.42726,-11.44665l8.97704,-16.15401l6.28004,-10.01456l7.65272,-6.48166l4.89853,-2.93446l28.42116,17.49135l13.8833,10.19898l7.58551,8.75095l3.90427,6.29305l3.71396,10.28319l1.72702,10.02475l-2.82426,7.97368l-4.94164,6.40062l-6.84403,4.62033l-6.86422,2.63299" fill="#504a59" fill-rule="evenodd"/><path d="M25.18335,182.35965l1.6,-14.369l6.4,-1.596l9.1,-2.495l11.5,-2.195l6.825,0.399l7.475,-0.698l9.9,0.798l10.547,3.193l7.253,5.289l0.6,4.689l-0.6,8.082l-3.6,-1.995l-4.807,-3.293l-5.293,-2.195l-5.9,-0.699l-6.16,-0.997h-3.14l-9.7,-0.399l-4,0.399l-4.027,0.408l-4.773,0.689l-5.8,1.098l-3.9,1.097l-5.1,2.096l-4.4,2.694" fill="#3c3651" fill-rule="evenodd"/><path d="M297.35089,166.51179l0.06977,4.1357l-2.66021,6.4759l-4.80879,4.51113c0,0 -6.09671,1.71179 -6.4489,1.78225c-0.35257,0.07139 -11.10308,-1.85719 -11.10308,-1.85719l-7.70941,-3.81557l-9.11087,-6.44641l-12.08718,-12.85716l-8.75604,-11.8131l-2.02179,-3.96567l1.72171,0.27482l6.82986,4.64346l8.89355,4.08578l7.34065,1.82624l4.13144,-1.65423l2.35615,-2.05916l12.99789,6.96097l7.68792,4.13106l8.67148,4.10266z" fill="#6c1f1b" fill-rule="evenodd"/><path d="M165.80129,154.02083l14.11806,-2.44433l10.80803,-2.07337l8.37341,-1.52328l1.88001,2.38613l3.78241,2.92737l5.32627,1.36563l6.02988,0.14132l5.39688,-1.44894l-7.83337,7.38369l-13.42244,8.88421l-10.99305,5.22929l-11.46079,0.79905l-7.05278,-3.18002l-4.62182,-5.9035l-1.19381,-6.5215l0.86311,-6.02175" fill="#6c1f1b" fill-rule="evenodd"/><path d="M148.40039,129.38528l-8.317,-0.998l-3.989,-3.791l-1.061,-4.391v-5.787l2.123,-5.089l5.527,-4.69l5,-1.896l8.4,1.497l4.9,4.191l1.2,7.633l-1.2,5.239l-3.6,4.088l-5,2.797l-3.983,1.197" fill="#6c1f1b" fill-rule="evenodd"/><path d="M220.18404,137.61298c-0.85,-0.111 -1.656,-0.403 -2.518,-0.521c-1.182,-0.162 -2.13,-0.974 -2.95,-1.834c-0.392,-0.413 -0.622,-0.975 -0.994,-1.411c-0.359,-0.421 -0.584,-0.853 -0.705,-1.404c-0.225,-1.029 -0.592,-2.027 -0.841,-3.052c-0.263,-1.085 -0.516,-2.178 -0.665,-3.282c-0.165,-1.231 0.242,-2.485 -0.069,-3.723c-0.015,-0.059 -0.015,-0.132 0.005,-0.189c0.452,-1.289 0.754,-2.633 1.652,-3.739c0.581,-0.716 1.094,-1.495 1.576,-2.283c0.854,-1.394 2.079,-2.429 3.303,-3.458c0.98,-0.824 2.231,-1.211 3.281,-1.972c1.464,-1.061 3.325,-1.194 5.048,-1.618c0.146,-0.035 0.317,0.023 0.476,0.045c1.079,0.148 2.155,0.378 3.239,0.425c1.125,0.05 2.126,0.452 3.116,0.873c0.918,0.392 1.774,0.933 2.654,1.416c1.529,0.839 2.76,2.038 3.582,3.535c0.82,1.496 1.27,3.161 1.288,4.899c0.011,0.997 -0.078,1.999 0.006,2.989c0.069,0.812 0.044,1.582 -0.139,2.38c-0.364,1.6 -0.844,3.134 -1.637,4.593c-0.406,0.745 -0.803,1.453 -1.419,2.031c-1.006,0.943 -2.082,1.797 -3.169,2.648c-1.557,1.218 -3.342,1.91 -5.18,2.428c-1.47,0.415 -3.03,0.51 -4.634,0.76c-1.391,-0.173 -2.849,-0.345 -4.306,-0.536zM238.63906,119.04497c-0.078,-0.821 -0.328,-1.558 -0.881,-2.18c-0.021,-0.025 -0.059,-0.044 -0.064,-0.071c-0.267,-1.28 -1.385,-1.772 -2.313,-2.396c-0.999,-0.671 -2.043,-1.303 -3.137,-1.801c-1.477,-0.673 -3.012,-1.205 -4.701,-1.06c-0.593,0.051 -1.202,-0.113 -1.804,-0.126c-0.305,-0.006 -0.615,0.092 -0.915,0.172c-0.217,0.057 -0.415,0.212 -0.631,0.236c-1.763,0.197 -3.168,1.155 -4.56,2.13c-0.887,0.622 -1.799,1.224 -2.602,1.944c-0.682,0.611 -1.32,1.319 -1.801,2.093c-0.673,1.084 -1.236,2.245 -1.747,3.417c-0.426,0.976 -0.467,2.013 -0.323,3.097c0.134,1.006 0.159,2.023 0.43,3.014c0.278,1.011 0.502,2.036 0.757,3.053c0.07,0.278 0.186,0.544 0.248,0.823c0.412,1.851 1.714,2.834 3.373,3.48c0.325,0.127 0.638,0.285 0.958,0.426c0.114,0.051 0.234,0.143 0.346,0.136c1.868,-0.112 3.684,0.357 5.531,0.465c0.472,0.027 0.96,-0.069 1.429,-0.162c1.063,-0.209 2.11,-0.518 3.18,-0.662c0.988,-0.134 1.796,-0.637 2.668,-1.02c1.306,-0.574 2.381,-1.453 3.368,-2.46c0.174,-0.178 0.444,-0.258 0.648,-0.412c1.127,-0.851 1.703,-2.121 2.096,-3.364c0.571,-1.798 1,-3.676 0.818,-5.624c-0.126,-1.049 -0.271,-2.096 -0.371,-3.148z" fill="#12193b" fill-rule="nonzero"/><path d="M175.1239,117.07991c0.346,0.077 0.686,0.204 1.035,0.237c1.156,0.106 2.062,0.668 2.838,1.48c0.284,0.297 0.543,0.617 0.819,0.922c1.133,1.252 1.619,2.751 1.615,4.407c-0.004,1.568 -0.452,3.043 -1.145,4.44c-0.661,1.332 -1.454,2.569 -2.717,3.43c-0.636,0.434 -1.254,0.893 -1.907,1.298c-1.588,0.986 -3.304,1.54 -5.196,1.434c-0.22,-0.012 -0.444,-0.057 -0.656,-0.118c-0.707,-0.202 -1.387,-0.496 -2.153,-0.464c-0.232,0.009 -0.476,-0.17 -0.706,-0.281c-0.29,-0.138 -0.556,-0.344 -0.859,-0.436c-0.761,-0.232 -1.228,-0.753 -1.595,-1.422c-0.698,-1.272 -1.127,-2.609 -1.372,-4.051c-0.302,-1.774 -0.138,-3.437 0.303,-5.178c0.418,-1.651 1.707,-2.529 2.71,-3.627c0.689,-0.754 1.677,-1.376 2.813,-1.524c0.156,-0.02 0.309,-0.099 0.45,-0.174c1.113,-0.594 2.329,-0.682 3.869,-0.778c0.427,0.094 1.141,0.248 1.854,0.405zM178.2389,120.95491c-1.089,-1.028 -2.358,-1.424 -3.754,-1.709c-0.812,-0.165 -1.592,-0.443 -2.438,-0.328c-0.123,0.016 -0.265,-0.059 -0.379,-0.026c-0.976,0.284 -1.992,0.486 -2.912,0.899c-1.689,0.758 -3.067,1.908 -3.743,3.706c-0.478,1.274 -0.61,2.59 -0.37,3.941c0.237,1.335 0.68,2.566 1.613,3.591c0.455,0.501 0.999,0.821 1.666,0.846c0.399,0.016 0.723,0.146 1.088,0.276c0.559,0.201 1.194,0.197 1.797,0.278c1.472,0.197 2.781,-0.316 4.035,-0.984c0.731,-0.39 1.468,-0.805 2.101,-1.33c0.53,-0.441 0.959,-1.028 1.345,-1.609c0.458,-0.687 0.934,-1.399 1.195,-2.171c0.228,-0.677 0.168,-1.451 0.244,-2.273c-0.126,-1.146 -0.526,-2.198 -1.488,-3.107z" fill="#17204b" fill-rule="nonzero"/><path d="M48.42502,149.56129l-4.425,-2.621l-3.3,-3.964l-2.175,-7.035l-0.525,-9.804l2.85,-13.62l4.575,-13.247l3.425,-8.606l3.5,-7.484l0.6,-2.544l0.725,-0.524l0.875,2.02l6.025,14.145l5.1,13.246l2.25,11.001l2.025,9.404l-0.9,8.782l-4.425,6.886l-4.375,3.442l-1.625,0.523h-8.775h-1.425" fill="#f7ec1e" fill-rule="evenodd"/><path d="M216.38921,138.97612c-0.96968,-0.12663 -1.88917,-0.45974 -2.87254,-0.59436c-1.34843,-0.18481 -2.42991,-1.11114 -3.36537,-2.09223c-0.44719,-0.47115 -0.70958,-1.11229 -1.13396,-1.60968c-0.40955,-0.48028 -0.66624,-0.97311 -0.80427,-1.60169c-0.25669,-1.17389 -0.67535,-2.31241 -0.95941,-3.48174c-0.30003,-1.23777 -0.58865,-2.48467 -0.75863,-3.74412c-0.18823,-1.40433 0.27607,-2.8349 -0.07872,-4.24722c-0.01711,-0.06731 -0.01711,-0.15058 0.00571,-0.21561c0.51565,-1.4705 0.86016,-3.00374 1.88461,-4.26547c0.6628,-0.81682 1.24804,-1.70551 1.7979,-2.60446c0.97425,-1.59028 2.37174,-2.77101 3.76808,-3.9449c1.11799,-0.94003 2.54513,-1.38152 3.74298,-2.24967c1.67014,-1.2104 3.79318,-1.36212 5.75879,-1.84582c0.16655,-0.03992 0.36163,0.02623 0.54301,0.05133c1.23093,0.16884 2.45844,0.43123 3.69507,0.48484c1.2834,0.05704 2.42535,0.51565 3.55475,0.99592c1.04726,0.44719 2.02379,1.06437 3.02769,1.61538c1.74429,0.95713 3.14862,2.32496 4.08636,4.03275c0.93546,1.70664 1.44882,3.60609 1.46936,5.58881c0.01255,1.13738 -0.08899,2.28046 0.00684,3.40986c0.07871,0.92633 0.05019,1.80476 -0.15858,2.71511c-0.41525,1.82528 -0.96283,3.57528 -1.86749,5.23972c-0.46317,0.8499 -0.91607,1.65759 -1.6188,2.31697c-1.14765,1.07578 -2.37516,2.05003 -3.61521,3.02085c-1.77623,1.3895 -3.81256,2.17893 -5.90936,2.76987c-1.67698,0.47343 -3.45664,0.58181 -5.2865,0.86701c-1.58686,-0.19736 -3.25016,-0.39357 -4.91231,-0.61147zM237.44278,117.79365c-0.08898,-0.93661 -0.37418,-1.77737 -1.00504,-2.48695c-0.02396,-0.02852 -0.06732,-0.0502 -0.07301,-0.081c-0.3046,-1.46023 -1.58002,-2.02151 -2.63868,-2.73337c-1.13967,-0.76548 -2.33066,-1.48647 -3.5787,-2.05459c-1.68497,-0.76776 -3.43611,-1.37466 -5.36292,-1.20925c-0.6765,0.05818 -1.37124,-0.12892 -2.05801,-0.14375c-0.34795,-0.00684 -0.70159,0.10495 -1.04384,0.19622c-0.24756,0.06503 -0.47343,0.24185 -0.71985,0.26923c-2.01124,0.22474 -3.61407,1.31762 -5.20207,2.42991c-1.0119,0.70958 -2.05231,1.39634 -2.96838,2.21773c-0.77803,0.69703 -1.50586,1.50473 -2.05459,2.38771c-0.76776,1.23664 -1.41003,2.5611 -1.99299,3.89813c-0.48598,1.11343 -0.53276,2.29644 -0.36848,3.53307c0.15286,1.14764 0.18139,2.30785 0.49054,3.43838c0.31715,1.15336 0.57269,2.32268 0.86359,3.48288c0.07986,0.31715 0.21219,0.6206 0.28292,0.93888c0.47001,2.11163 1.95534,3.23304 3.84794,3.97c0.37076,0.14488 0.72783,0.32512 1.09289,0.48598c0.13005,0.05819 0.26695,0.16314 0.39472,0.15516c2.13102,-0.12777 4.20272,0.40727 6.30979,0.53047c0.53846,0.0308 1.09518,-0.07871 1.63021,-0.18481c1.21267,-0.23843 2.40709,-0.59094 3.62776,-0.75521c1.12712,-0.15286 2.04889,-0.7267 3.04367,-1.16362c1.48989,-0.65482 2.71625,-1.65759 3.84223,-2.80638c0.1985,-0.20306 0.50652,-0.29433 0.73925,-0.47001c1.28569,-0.97082 1.94279,-2.41965 2.39112,-3.83767c0.6514,-2.05116 1.14081,-4.1936 0.93318,-6.41589c-0.14374,-1.1967 -0.30916,-2.39113 -0.42324,-3.59126z" fill-opacity="0.54902" fill="#ffd500" fill-rule="nonzero"/><path d="M51.25005,133.46227l-1.9,-1.048l-1.1,-3.069v-5.612l2.1,-9.505l3.1,-9.879h1.025l3.975,12.498l1.8,10.678l-0.975,4.14l-1.725,1.797l-5.175,0.598l-1.125,-0.598" fill="#fbf5a8" fill-rule="evenodd"/><g fill-rule="evenodd"><path d="M67.92502,131.56129l-4.425,-2.621l-3.3,-3.964l-2.175,-7.035l-0.525,-9.804l2.85,-13.62l4.575,-13.247l3.425,-8.606l3.5,-7.484l0.6,-2.544l0.725,-0.524l0.875,2.02l6.025,14.145l5.1,13.246l2.25,11.001l2.025,9.404l-0.9,8.782l-4.425,6.886l-4.375,3.442l-1.625,0.523h-8.775h-1.425" fill="#f7ec1e"/><path d="M70.25005,119.96227l-1.9,-1.048l-1.1,-3.069v-5.612l2.1,-9.505l3.1,-9.879h1.025l3.975,12.498l1.8,10.678l-0.975,4.14l-1.725,1.797l-5.175,0.598l-1.125,-0.598" fill="#fbf5a8"/></g><path d="M36.92502,203.56129l-4.425,-2.621l-3.3,-3.964l-2.175,-7.035l-0.525,-9.804l2.85,-13.62l4.575,-13.247l3.425,-8.606l3.5,-7.484l0.6,-2.544l0.725,-0.524l0.875,2.02l6.025,14.145l5.1,13.246l2.25,11.001l2.025,9.404l-0.9,8.782l-4.425,6.886l-4.375,3.442l-1.625,0.523h-8.775h-1.425" fill="#f7ec1e" fill-rule="evenodd"/><path d="M39.25005,191.96227l-1.9,-1.048l-1.1,-3.069v-5.612l2.1,-9.505l3.1,-9.879h1.025l3.975,12.498l1.8,10.678l-0.975,4.14l-1.725,1.797l-5.175,0.598l-1.125,-0.598" fill="#fbf5a8" fill-rule="evenodd"/><g fill-rule="evenodd"><path d="M65.92502,191.06129l-4.425,-2.621l-3.3,-3.964l-2.175,-7.035l-0.525,-9.804l2.85,-13.62l4.575,-13.247l3.425,-8.606l3.5,-7.484l0.6,-2.544l0.725,-0.524l0.875,2.02l6.025,14.145l5.1,13.246l2.25,11.001l2.025,9.404l-0.9,8.782l-4.425,6.886l-4.375,3.442l-1.625,0.523h-8.775h-1.425" fill="#f7ec1e"/><path d="M68.25005,179.46227l-1.9,-1.048l-1.1,-3.069v-5.612l2.1,-9.505l3.1,-9.879h1.025l3.975,12.498l1.8,10.678l-0.975,4.14l-1.725,1.797l-5.175,0.598l-1.125,-0.598" fill="#fbf5a8"/></g><path d="M175.92502,174.56129l-4.425,-2.621l-3.3,-3.964l-2.175,-7.035l-0.525,-9.804l2.85,-13.62l4.575,-13.247l3.425,-8.606l3.5,-7.484l0.6,-2.544l0.725,-0.524l0.875,2.02l6.025,14.145l5.1,13.246l2.25,11.001l2.025,9.404l-0.9,8.782l-4.425,6.886l-4.375,3.442l-1.625,0.523h-8.775h-1.425" fill="#f7ec1e" fill-rule="evenodd"/><path d="M177.75005,164.96227l-1.9,-1.048l-1.1,-3.069v-5.612l2.1,-9.505l3.1,-9.879h1.025l3.975,12.498l1.8,10.678l-0.975,4.14l-1.725,1.797l-5.175,0.598l-1.125,-0.598" fill="#fbf5a8" fill-rule="evenodd"/><path d="M96.92502,158.56129l-4.425,-2.621l-3.3,-3.964l-2.175,-7.035l-0.525,-9.804l2.85,-13.62l4.575,-13.247l3.425,-8.606l3.5,-7.484l0.6,-2.544l0.725,-0.524l0.875,2.02l6.025,14.145l5.1,13.246l2.25,11.001l2.025,9.404l-0.9,8.782l-4.425,6.886l-4.375,3.442l-1.625,0.523h-8.775h-1.425" fill="#f7ec1e" fill-rule="evenodd"/><g fill-rule="evenodd"><path d="M125.92503,124.56129l-4.425,-2.621l-3.3,-3.964l-2.175,-7.035l-0.525,-9.804l2.85,-13.62l4.575,-13.247l3.425,-8.606l3.5,-7.484l0.6,-2.544l0.725,-0.524l0.875,2.02l6.025,14.145l5.1,13.246l2.25,11.001l2.025,9.404l-0.9,8.782l-4.425,6.886l-4.375,3.442l-1.625,0.523h-8.775h-1.425" fill="#f7ec1e"/><path d="M128.25005,112.96227l-1.9,-1.048l-1.1,-3.069v-5.612l2.1,-9.505l3.1,-9.879h1.025l3.975,12.498l1.8,10.678l-0.975,4.14l-1.725,1.797l-5.175,0.598l-1.125,-0.598" fill="#fbf5a8"/></g><path d="M99.25005,145.46227l-1.9,-1.048l-1.1,-3.069v-5.612l2.1,-9.505l3.1,-9.879h1.025l3.975,12.498l1.8,10.678l-0.975,4.14l-1.725,1.797l-5.175,0.598l-1.125,-0.598" fill="#fbf5a8" fill-rule="evenodd"/><g fill-rule="evenodd"><path d="M252.92503,178.56129l-4.425,-2.621l-3.3,-3.964l-2.175,-7.035l-0.525,-9.804l2.85,-13.62l4.575,-13.247l3.425,-8.606l3.5,-7.484l0.6,-2.544l0.725,-0.524l0.875,2.02l6.025,14.145l5.1,13.246l2.25,11.001l2.025,9.404l-0.9,8.782l-4.425,6.886l-4.375,3.442l-1.625,0.523h-8.775h-1.425" fill="#f7ec1e"/><path d="M255.25005,166.96227l-1.9,-1.048l-1.1,-3.069v-5.612l2.1,-9.505l3.1,-9.879h1.025l3.975,12.498l1.8,10.678l-0.975,4.14l-1.725,1.797l-5.175,0.598l-1.125,-0.598" fill="#fbf5a8"/></g><path d="M154.42503,130.56129l-4.425,-2.621l-3.3,-3.964l-2.175,-7.035l-0.525,-9.804l2.85,-13.62l4.575,-13.247l3.425,-8.606l3.5,-7.484l0.6,-2.544l0.725,-0.524l0.875,2.02l6.025,14.145l5.1,13.246l2.25,11.001l2.025,9.404l-0.9,8.782l-4.425,6.886l-4.375,3.442l-1.625,0.523h-8.775h-1.425" fill="#f7ec1e" fill-rule="evenodd"/><path d="M156.75005,118.96227l-1.9,-1.048l-1.1,-3.069v-5.612l2.1,-9.505l3.1,-9.879h1.025l3.975,12.498l1.8,10.678l-0.975,4.14l-1.725,1.797l-5.175,0.598l-1.125,-0.598" fill="#fbf5a8" fill-rule="evenodd"/><g fill-rule="evenodd"><path d="M186.92503,158.56129l-4.425,-2.621l-3.3,-3.964l-2.175,-7.035l-0.525,-9.804l2.85,-13.62l4.575,-13.247l3.425,-8.606l3.5,-7.484l0.6,-2.544l0.725,-0.524l0.875,2.02l6.025,14.145l5.1,13.246l2.25,11.001l2.025,9.404l-0.9,8.782l-4.425,6.886l-4.375,3.442l-1.625,0.523h-8.775h-1.425" fill="#f7ec1e"/><path d="M189.25005,146.96227l-1.9,-1.048l-1.1,-3.069v-5.612l2.1,-9.505l3.1,-9.879h1.025l3.975,12.498l1.8,10.678l-0.975,4.14l-1.725,1.797l-5.175,0.598l-1.125,-0.598" fill="#fbf5a8"/></g><path d="M116.92503,202.56129l-4.425,-2.621l-3.3,-3.964l-2.175,-7.035l-0.525,-9.804l2.85,-13.62l4.575,-13.247l3.425,-8.606l3.5,-7.484l0.6,-2.544l0.725,-0.524l0.875,2.02l6.025,14.145l5.1,13.246l2.25,11.001l2.025,9.404l-0.9,8.782l-4.425,6.886l-4.375,3.442l-1.625,0.523h-8.775h-1.425" fill="#f7ec1e" fill-rule="evenodd"/><path d="M119.25005,190.96227l-1.9,-1.048l-1.1,-3.069v-5.612l2.1,-9.505l3.1,-9.879h1.025l3.975,12.498l1.8,10.678l-0.975,4.14l-1.725,1.797l-5.175,0.598l-1.125,-0.598" fill="#fbf5a8" fill-rule="evenodd"/><g fill-rule="evenodd"><path d="M169.92503,222.06129l-4.425,-2.621l-3.3,-3.964l-2.175,-7.035l-0.525,-9.804l2.85,-13.62l4.575,-13.247l3.425,-8.606l3.5,-7.484l0.6,-2.544l0.725,-0.524l0.875,2.02l6.025,14.145l5.1,13.246l2.25,11.001l2.025,9.404l-0.9,8.782l-4.425,6.886l-4.375,3.442l-1.625,0.523h-8.775h-1.425" fill="#f7ec1e"/><path d="M172.25005,210.46227l-1.9,-1.048l-1.1,-3.069v-5.612l2.1,-9.505l3.1,-9.879h1.025l3.975,12.498l1.8,10.678l-0.975,4.14l-1.725,1.797l-5.175,0.598l-1.125,-0.598" fill="#fbf5a8"/></g><path d="M211.42504,147.06129l-4.425,-2.621l-3.3,-3.964l-2.175,-7.035l-0.525,-9.804l2.85,-13.62l4.575,-13.247l3.425,-8.606l3.5,-7.484l0.6,-2.544l0.725,-0.524l0.875,2.02l6.025,14.145l5.1,13.246l2.25,11.001l2.025,9.404l-0.9,8.782l-4.425,6.886l-4.375,3.442l-1.625,0.523h-8.775h-1.425" fill="#f7ec1e" fill-rule="evenodd"/><path d="M213.6365,135.33733l-2.12928,-1.17447l-1.23274,-3.43935v-6.28922l2.35342,-10.65201l3.47409,-11.07114h1.14869l4.45468,14.00618l2.01721,11.96656l-1.09266,4.63959l-1.93316,2.01385l-5.79949,0.67016l-1.26076,-0.67016" fill="#fbf5a8" fill-rule="evenodd"/><g fill-rule="evenodd"><path d="M280.42503,151.06129l-4.425,-2.621l-3.3,-3.964l-2.175,-7.035l-0.525,-9.804l2.85,-13.62l4.575,-13.247l3.425,-8.606l3.5,-7.484l0.6,-2.544l0.725,-0.524l0.875,2.02l6.025,14.145l5.1,13.246l2.25,11.001l2.025,9.404l-0.9,8.782l-4.425,6.886l-4.375,3.442l-1.625,0.523h-8.775h-1.425" fill="#f7ec1e"/><path d="M282.75005,139.46227l-1.9,-1.048l-1.1,-3.069v-5.612l2.1,-9.505l3.1,-9.879h1.025l3.975,12.498l1.8,10.678l-0.975,4.14l-1.725,1.797l-5.175,0.598l-1.125,-0.598" fill="#fbf5a8"/></g><path d="M219.92504,209.56129l-4.425,-2.621l-3.3,-3.964l-2.175,-7.035l-0.525,-9.804l2.85,-13.62l4.575,-13.247l3.425,-8.606l3.5,-7.484l0.6,-2.544l0.725,-0.524l0.875,2.02l6.025,14.145l5.1,13.246l2.25,11.001l2.025,9.404l-0.9,8.782l-4.425,6.886l-4.375,3.442l-1.625,0.523h-8.775h-1.425" fill="#f7ec1e" fill-rule="evenodd"/><path d="M222.75005,195.46227l-1.9,-1.048l-1.1,-3.069v-5.612l2.1,-9.505l3.1,-9.879h1.025l3.975,12.498l1.8,10.678l-0.975,4.14l-1.725,1.797l-5.175,0.598l-1.125,-0.598" fill="#fbf5a8" fill-rule="evenodd"/><g fill-rule="evenodd"><path d="M280.92503,198.56129l-4.425,-2.621l-3.3,-3.964l-2.175,-7.035l-0.525,-9.804l2.85,-13.62l4.575,-13.247l3.425,-8.606l3.5,-7.484l0.6,-2.544l0.725,-0.524l0.875,2.02l6.025,14.145l5.1,13.246l2.25,11.001l2.025,9.404l-0.9,8.782l-4.425,6.886l-4.375,3.442l-1.625,0.523h-8.775h-1.425" fill="#f7ec1e"/><path d="M283.25005,186.96227l-1.9,-1.048l-1.1,-3.069v-5.612l2.1,-9.505l3.1,-9.879h1.025l3.975,12.498l1.8,10.678l-0.975,4.14l-1.725,1.797l-5.175,0.598l-1.125,-0.598" fill="#fbf5a8"/></g><path d="M105.97512,163.19586l-7.43198,0.91048l-18.08731,-2.06085l-15.29891,-4.37365l-17.50266,-8.00644l-19.69893,-9.72709l-1.82865,-6.06725l1.13673,-13.61344l3.90983,-13.05839l10.24105,-18.42857l7.1643,-11.42466l8.73026,-7.39431l5.58826,-3.34764l32.42299,19.95422l15.83814,11.63504l8.65359,9.98313l4.45401,7.17914l4.2369,11.73111l1.97019,11.43628l-3.22193,9.09641l-5.63744,7.30186l-7.8077,5.27089l-7.83074,3.00373" fill-opacity="0.54902" fill="#ffd500" fill-rule="evenodd"/><path d="M14.64686,182.45426l1.82528,-16.39222l7.30115,-1.82073l10.38133,-2.8463l13.11925,-2.50407l7.786,0.45518l8.52751,-0.79628l11.29397,0.91037l12.03206,3.64258l8.27426,6.03372l0.68448,5.34924l-0.68448,9.21998l-4.1069,-2.27591l-5.48385,-3.75666l-6.03827,-2.50406l-6.73075,-0.79742l-7.02735,-1.13738h-3.58212l-11.0658,-0.45519l-4.56322,0.45519l-4.59402,0.46544l-5.44506,0.78602l-6.61667,1.2526l-4.44914,1.25146l-5.8181,2.39112l-5.01954,3.07333" fill-opacity="0.54902" fill="#ffd500" fill-rule="evenodd"/><path d="M164.70679,150.52358l16.10595,-2.7885l12.32985,-2.36532l9.55243,-1.73776l2.14472,2.7221l4.31499,3.33956l6.07623,1.55792l6.87892,0.16121l6.15679,-1.65295l-8.93635,8.42335l-15.31238,10.13514l-12.54092,5.9656l-13.07453,0.91156l-8.04584,-3.62779l-5.27259,-6.73474l-1.3619,-7.43975l0.98464,-6.86964" fill-opacity="0.54902" fill="#ffd500" fill-rule="evenodd"/><path d="M150.43296,131.98015l-9.48808,-1.13852l-4.55067,-4.32479l-1.21039,-5.00928v-6.60183l2.42192,-5.80555l6.30524,-5.35037l5.70401,-2.16297l9.58276,1.70778l5.58994,4.78111l1.36897,8.70776l-1.36897,5.97668l-4.1069,4.66361l-5.70401,3.19083l-4.54383,1.36554" fill-opacity="0.54902" fill="#ffd500" fill-rule="evenodd"/><path d="M182.73713,108.94214c0.39472,0.08784 0.78259,0.23273 1.18073,0.27037c1.31877,0.12092 2.35234,0.76206 3.23761,1.68839c0.32399,0.33881 0.61946,0.70388 0.93432,1.05182c1.29253,1.42829 1.84696,3.13835 1.8424,5.02752c-0.00456,1.78878 -0.51564,3.47147 -1.30622,5.06517c-0.75408,1.51955 -1.65874,2.93073 -3.09957,3.91296c-0.72555,0.49511 -1.43057,1.01874 -2.17551,1.48076c-1.8116,1.12484 -3.76922,1.75684 -5.92762,1.63591c-0.25098,-0.01369 -0.50652,-0.06502 -0.74838,-0.13461c-0.80655,-0.23045 -1.58229,-0.56583 -2.45614,-0.52933c-0.26467,0.01027 -0.54303,-0.19394 -0.80541,-0.32057c-0.33084,-0.15744 -0.63429,-0.39244 -0.97995,-0.49739c-0.86815,-0.26466 -1.40091,-0.85903 -1.81958,-1.62223c-0.79628,-1.4511 -1.28569,-2.97636 -1.56519,-4.6214c-0.34453,-2.02379 -0.15743,-3.92094 0.34566,-5.90708c0.47686,-1.88347 1.94735,-2.88509 3.09158,-4.1377c0.78601,-0.86016 1.91313,-1.56975 3.20908,-1.73859c0.17797,-0.02281 0.35251,-0.11294 0.51337,-0.1985c1.26971,-0.67764 2.65693,-0.77802 4.41377,-0.88755c0.48712,0.10724 1.30165,0.28292 2.11505,0.46202zM186.29074,113.36276c-1.24233,-1.17275 -2.69003,-1.62451 -4.28259,-1.94964c-0.92633,-0.18823 -1.81616,-0.50538 -2.78128,-0.37419c-0.14031,0.01825 -0.30232,-0.0673 -0.43237,-0.02965c-1.11343,0.32399 -2.27247,0.55443 -3.32201,1.02558c-1.92682,0.86473 -3.49885,2.17665 -4.27004,4.22782c-0.54531,1.45338 -0.69589,2.95469 -0.4221,4.49591c0.27037,1.52298 0.77575,2.92731 1.84012,4.09663c0.51907,0.57155 1.13966,0.9366 1.90058,0.96512c0.45519,0.01825 0.8248,0.16656 1.2412,0.31486c0.63771,0.2293 1.36212,0.22474 2.05003,0.31714c1.67926,0.22474 3.17258,-0.3605 4.60314,-1.12255c0.83392,-0.44491 1.6747,-0.91835 2.39683,-1.51727c0.60463,-0.5031 1.09403,-1.17275 1.53439,-1.83555c0.52249,-0.78373 1.06551,-1.59599 1.36326,-2.47669c0.26011,-0.77232 0.19165,-1.6553 0.27836,-2.59305c-0.14374,-1.30736 -0.60006,-2.50748 -1.69751,-3.54447z" fill-opacity="0.54902" fill="#ffd500" fill-rule="nonzero"/><path d="M36.3806,141.4524l-5.04807,-2.99005l-3.76465,-4.52214l-2.48125,-8.02556l-0.59892,-11.18445l3.25129,-15.53776l5.21918,-15.11223l3.90725,-9.81777l3.99282,-8.53778l0.68449,-2.9022l0.82708,-0.59779l0.9982,2.30443l6.87335,16.13668l5.8181,15.1111l2.56681,12.54998l2.31013,10.72813l-1.02672,10.01855l-5.04806,7.85558l-4.99102,3.92664l-1.85381,0.59664h-10.01056h-1.62564" fill-opacity="0.54902" fill="#ffd500" fill-rule="evenodd"/><path d="M39.60341,123.08656l-2.16753,-1.19557l-1.25488,-3.50113v-6.4022l2.39569,-10.84335l3.53649,-11.27h1.16933l4.53469,14.25778l2.05345,12.18151l-1.11228,4.72293l-1.96789,2.05003l-5.90367,0.6822l-1.2834,-0.6822" fill-opacity="0.54902" fill="#ffd500" fill-rule="evenodd"/><g fill-opacity="0.54902" fill="#ffd500" fill-rule="evenodd"><path d="M58.62629,120.91792l-5.04806,-2.99005l-3.76465,-4.52215l-2.48125,-8.02556l-0.59892,-11.18445l3.25129,-15.53776l5.21918,-15.11224l3.90726,-9.81777l3.99282,-8.53778l0.68448,-2.90221l0.82709,-0.59778l0.99821,2.30442l6.87335,16.13668l5.8181,15.11109l2.56681,12.55l2.31013,10.72813l-1.02672,10.01854l-5.04806,7.85559l-4.99102,3.92665l-1.85381,0.59664h-10.01056h-1.62565"/><path d="M61.2787,107.6857l-2.16753,-1.19556l-1.25489,-3.50113v-6.4022l2.39569,-10.84334l3.5365,-11.27001h1.16933l4.5347,14.25777l2.05344,12.18151l-1.11228,4.72294l-1.96789,2.05002l-5.90367,0.68221l-1.28341,-0.68221"/></g><path d="M23.26135,203.05585l-5.04806,-2.99005l-3.76465,-4.52215l-2.48125,-8.02556l-0.59892,-11.18445l3.25129,-15.53777l5.21918,-15.11223l3.90725,-9.81777l3.99282,-8.53778l0.68449,-2.90221l0.82709,-0.59778l0.9982,2.30442l6.87335,16.13668l5.8181,15.1111l2.56681,12.54999l2.31013,10.72812l-1.02673,10.01855l-5.04806,7.85558l-4.99102,3.92665l-1.85381,0.59664h-10.01056h-1.62565" fill-opacity="0.54902" fill="#ffd500" fill-rule="evenodd"/><path d="M25.91375,189.82363l-2.16753,-1.19556l-1.25489,-3.50114v-6.4022l2.39569,-10.84335l3.53649,-11.27h1.16933l4.53469,14.25777l2.05345,12.18152l-1.11228,4.72293l-1.96789,2.05003l-5.90366,0.6822l-1.2834,-0.6822" fill-opacity="0.54902" fill="#ffd500" fill-rule="evenodd"/><g fill-opacity="0.54902" fill="#ffd500" fill-rule="evenodd"><path d="M56.34468,188.79579l-5.04806,-2.99005l-3.76465,-4.52214l-2.48125,-8.02556l-0.59892,-11.18444l3.25129,-15.53777l5.21918,-15.11223l3.90725,-9.81777l3.99282,-8.53778l0.68449,-2.9022l0.82708,-0.59779l0.9982,2.30443l6.87335,16.13668l5.81811,15.1111l2.56681,12.54999l2.31013,10.72813l-1.02672,10.01855l-5.04806,7.85558l-4.99102,3.92664l-1.85381,0.59664h-10.01056h-1.62565"/><path d="M58.99709,175.56358l-2.16753,-1.19556l-1.25489,-3.50113v-6.4022l2.39569,-10.84335l3.5365,-11.27001h1.16933l4.5347,14.25778l2.05344,12.18151l-1.11228,4.72293l-1.96789,2.05003l-5.90367,0.6822l-1.28341,-0.6822"/></g><path d="M201.75177,190.68784l-5.04806,-2.99005l-3.76466,-4.52214l-2.48125,-8.02556l-0.59892,-11.18445l3.25129,-15.53776l5.21918,-15.11224l3.90725,-9.81777l3.99282,-8.53778l0.68448,-2.90221l0.82708,-0.59778l0.99821,2.30443l6.87335,16.13667l5.8181,15.1111l2.56681,12.54999l2.31013,10.72813l-1.02672,10.01854l-5.04806,7.85559l-4.99102,3.92664l-1.85381,0.59664h-10.01056h-1.62565" fill-opacity="0.54902" fill="#ffd500" fill-rule="evenodd"/><path d="M183.91519,159.02191l-2.16753,-1.19556l-1.25489,-3.50113v-6.40219l2.39569,-10.84335l3.5365,-11.27001h1.16932l4.5347,14.25777l2.05345,12.18151l-1.11229,4.72294l-1.96789,2.05003l-5.90367,0.6822l-1.2834,-0.6822" fill-opacity="0.54902" fill="#ffd500" fill-rule="evenodd"/><path d="M91.70962,151.71964l-5.04806,-2.99005l-3.76465,-4.52215l-2.48125,-8.02556l-0.59893,-11.18444l3.25129,-15.53775l5.21918,-15.11225l3.90725,-9.81776l3.99282,-8.53778l0.68448,-2.90221l0.82709,-0.59778l0.9982,2.30442l6.87335,16.13668l5.8181,15.1111l2.56681,12.54999l2.31013,10.72813l-1.02672,10.01854l-5.04806,7.85558l-4.99102,3.92665l-1.8538,0.59664h-10.01056h-1.62565" fill-opacity="0.54902" fill="#ffd500" fill-rule="evenodd"/><g fill-opacity="0.54902" fill="#ffd500" fill-rule="evenodd"><path d="M124.79297,112.93228l-5.04806,-2.99005l-3.76466,-4.52214l-2.48125,-8.02556l-0.59892,-11.18445l3.25129,-15.53776l5.21918,-15.11223l3.90726,-9.81777l3.99281,-8.53778l0.68448,-2.9022l0.82709,-0.59779l0.9982,2.30443l6.87335,16.13668l5.81811,15.1111l2.56681,12.54999l2.31013,10.72813l-1.02672,10.01855l-5.04806,7.85558l-4.99102,3.92665l-1.85381,0.59664h-10.01056h-1.62565"/><path d="M127.44536,99.70007l-2.16753,-1.19557l-1.25488,-3.50112v-6.4022l2.39569,-10.84335l3.5365,-11.27h1.16933l4.5347,14.25777l2.05345,12.18151l-1.11228,4.72293l-1.96789,2.05003l-5.90366,0.6822l-1.28341,-0.6822"/></g><path d="M94.36203,136.77622l-2.16752,-1.19556l-1.25489,-3.50114v-6.4022l2.39569,-10.84334l3.5365,-11.27001h1.16933l4.53469,14.25778l2.05345,12.18152l-1.11228,4.72293l-1.96789,2.05003l-5.90366,0.6822l-1.28341,-0.6822" fill-opacity="0.54902" fill="#ffd500" fill-rule="evenodd"/><g fill-opacity="0.54902" fill="#ffd500" fill-rule="evenodd"><path d="M269.67515,174.53573l-5.04806,-2.99005l-3.76466,-4.52215l-2.48125,-8.02555l-0.59893,-11.18445l3.25129,-15.53776l5.21918,-15.11224l3.90726,-9.81777l3.99282,-8.53778l0.68448,-2.9022l0.82709,-0.59779l0.9982,2.30443l6.87335,16.13667l5.81811,15.1111l2.56681,12.54999l2.31013,10.72813l-1.02672,10.01854l-5.04807,7.85558l-4.99102,3.92665l-1.85381,0.59664h-10.01056h-1.62565"/><path d="M272.32755,161.30352l-2.16753,-1.19556l-1.25489,-3.50113v-6.4022l2.39569,-10.84335l3.53649,-11.27h1.16933l4.53469,14.25777l2.05345,12.18151l-1.11228,4.72294l-1.96789,2.05003l-5.90366,0.6822l-1.2834,-0.6822"/></g><path d="M157.3059,119.77711l-5.04806,-2.99005l-3.76466,-4.52214l-2.48125,-8.02556l-0.59892,-11.18445l3.25129,-15.53776l5.21918,-15.11224l3.90725,-9.81777l3.99282,-8.53778l0.68448,-2.90221l0.82708,-0.59778l0.99821,2.30442l6.87335,16.13669l5.81811,15.11109l2.56681,12.54999l2.31013,10.72813l-1.02673,10.01854l-5.04806,7.85559l-4.99102,3.92665l-1.85381,0.59664h-10.01056h-1.62565" fill-opacity="0.54902" fill="#ffd500" fill-rule="evenodd"/><path d="M159.9583,106.54489l-2.16753,-1.19556l-1.25489,-3.50113v-6.40219l2.39569,-10.84335l3.53649,-11.27001h1.16932l4.5347,14.25778l2.05344,12.18151l-1.11228,4.72294l-1.96789,2.05002l-5.90367,0.68221l-1.2834,-0.68221" fill-opacity="0.54902" fill="#ffd500" fill-rule="evenodd"/><g fill-opacity="0.54902" fill="#ffd500" fill-rule="evenodd"><path d="M194.38205,151.71964l-5.04806,-2.99005l-3.76465,-4.52215l-2.48125,-8.02556l-0.59893,-11.18444l3.25129,-15.53775l5.21918,-15.11225l3.90726,-9.81776l3.99281,-8.53778l0.68448,-2.90221l0.82709,-0.59778l0.9982,2.30442l6.87335,16.13668l5.81811,15.1111l2.56681,12.54999l2.31013,10.72813l-1.02672,10.01854l-5.04806,7.85558l-4.99103,3.92665l-1.8538,0.59664h-10.01056h-1.62565"/><path d="M197.03444,138.48743l-2.16753,-1.19556l-1.25489,-3.50113v-6.40219l2.39569,-10.84335l3.5365,-11.27h1.16933l4.5347,14.25777l2.05345,12.18151l-1.11229,4.72294l-1.96789,2.05003l-5.90366,0.6822l-1.28341,-0.6822"/></g><path d="M114.52573,201.91504l-5.04806,-2.99005l-3.76466,-4.52215l-2.48125,-8.02556l-0.59892,-11.18445l3.25129,-15.53776l5.21918,-15.11224l3.90726,-9.81777l3.99282,-8.53778l0.68448,-2.90221l0.82708,-0.59778l0.9982,2.30443l6.87335,16.13667l5.8181,15.1111l2.56681,12.54999l2.31012,10.72813l-1.02672,10.01854l-5.04806,7.85558l-4.99102,3.92665l-1.85381,0.59664h-10.01056h-1.62565" fill-opacity="0.54902" fill="#ffd500" fill-rule="evenodd"/><path d="M117.17812,188.68283l-2.16753,-1.19556l-1.25488,-3.50114v-6.4022l2.39569,-10.84334l3.5365,-11.27001h1.16933l4.53469,14.25777l2.05345,12.18152l-1.11228,4.72293l-1.96788,2.05003l-5.90367,0.6822l-1.28341,-0.6822" fill-opacity="0.54902" fill="#ffd500" fill-rule="evenodd"/><g fill-opacity="0.54902" fill="#ffd500" fill-rule="evenodd"><path d="M174.98837,224.16073l-5.04806,-2.99005l-3.76466,-4.52215l-2.48125,-8.02555l-0.59892,-11.18445l3.25129,-15.53776l5.21918,-15.11223l3.90725,-9.81777l3.99282,-8.53778l0.68448,-2.9022l0.82709,-0.59779l0.9982,2.30443l6.87335,16.13668l5.81811,15.1111l2.56681,12.54999l2.31012,10.72813l-1.02672,10.01854l-5.04806,7.85558l-4.99102,3.92665l-1.85381,0.59664h-10.01056h-1.62564"/><path d="M177.64077,210.92852l-2.16753,-1.19556l-1.25489,-3.50113v-6.4022l2.39569,-10.84335l3.53649,-11.27h1.16932l4.5347,14.25777l2.05344,12.18151l-1.11228,4.72294l-1.96789,2.05003l-5.90367,0.6822l-1.2834,-0.6822"/></g><path d="M222.33177,138.60038l-5.04806,-2.99005l-3.76466,-4.52215l-2.48125,-8.02556l-0.59892,-11.18445l3.25129,-15.53776l5.21918,-15.11224l3.90726,-9.81776l3.99281,-8.53778l0.68448,-2.90221l0.82709,-0.59778l0.9982,2.30443l6.87335,16.13669l5.81811,15.1111l2.56681,12.54999l2.31013,10.72813l-1.02672,10.01855l-5.04807,7.85558l-4.99102,3.92665l-1.8538,0.59664h-10.01057h-1.62564" fill-opacity="0.54902" fill="#ffd500" fill-rule="evenodd"/><path d="M224.85462,125.22564l-2.42909,-1.33984l-1.40632,-3.92363v-7.17477l2.68479,-12.15186l3.96326,-12.63001h1.31043l5.08192,15.97832l2.30124,13.65151l-1.24651,5.29286l-2.20535,2.29741l-6.61609,0.76453l-1.43828,-0.76453" fill-opacity="0.54902" fill="#ffd500" fill-rule="evenodd"/><g fill-opacity="0.54902" fill="#ffd500" fill-rule="evenodd"><path d="M301.04728,143.1636l-5.04806,-2.99005l-3.76466,-4.52215l-2.48125,-8.02556l-0.59892,-11.18445l3.25129,-15.53776l5.21918,-15.11224l3.90726,-9.81776l3.99282,-8.53778l0.68448,-2.9022l0.82708,-0.59778l0.9982,2.30443l6.87335,16.13669l5.8181,15.11109l2.56682,12.54999l2.31012,10.72812l-1.02672,10.01855l-5.04806,7.85558l-4.99102,3.92665l-1.8538,0.59664h-10.01056h-1.62565"/><path d="M303.69967,129.93139l-2.16753,-1.19556l-1.25489,-3.50113v-6.4022l2.39569,-10.84334l3.53649,-11.27001h1.16933l4.5347,14.25778l2.05345,12.18151l-1.11228,4.72293l-1.96789,2.05003l-5.90366,0.6822l-1.2834,-0.6822"/></g><path d="M232.02861,209.90068l-5.04806,-2.99005l-3.76466,-4.52215l-2.48125,-8.02556l-0.59893,-11.18445l3.25129,-15.53776l5.21919,-15.11223l3.90725,-9.81777l3.99282,-8.53778l0.68448,-2.90221l0.82708,-0.59778l0.99821,2.30443l6.87335,16.13668l5.81811,15.1111l2.56681,12.54998l2.31013,10.72813l-1.02672,10.01855l-5.04806,7.85557l-4.99102,3.92665l-1.8538,0.59664h-10.01056h-1.62565" fill-opacity="0.54902" fill="#ffd500" fill-rule="evenodd"/><path d="M235.2514,193.81645l-2.16753,-1.19556l-1.25489,-3.50113v-6.4022l2.39569,-10.84334l3.5365,-11.27h1.16932l4.5347,14.25777l2.05344,12.18151l-1.11228,4.72293l-1.96789,2.05002l-5.90367,0.68221l-1.2834,-0.68221" fill-opacity="0.54902" fill="#ffd500" fill-rule="evenodd"/><g fill-opacity="0.54902" fill="#ffd500" fill-rule="evenodd"><path d="M268.55283,210.49809l-5.04806,-2.99005l-3.76466,-4.52215l-2.48125,-8.02556l-0.59892,-11.18445l3.2513,-15.53776l5.21918,-15.11224l3.90726,-9.81777l3.99282,-8.53778l0.68448,-2.9022l0.82708,-0.59778l0.99821,2.30442l6.87334,16.13668l5.81811,15.1111l2.56681,12.54999l2.31013,10.72813l-1.02672,10.01854l-5.04807,7.85558l-4.99102,3.92665l-1.8538,0.59664h-10.01056h-1.62565"/><path d="M271.20523,197.26587l-2.16753,-1.19556l-1.25489,-3.50113v-6.40219l2.39569,-10.84334l3.53649,-11.27001h1.16933l4.5347,14.25777l2.05345,12.18152l-1.11228,4.72293l-1.96789,2.05003l-5.90366,0.6822l-1.2834,-0.6822"/></g><g fill-opacity="0.54902" fill="#ffd500" fill-rule="evenodd"><path d="M163.98516,151.14244l-3.39819,-2.01281l-2.53424,-3.04417l-1.6703,-5.40255l-0.40318,-7.52901l2.18867,-10.45952l3.51339,-10.17308l2.63024,-6.609l2.68784,-5.74736l0.46077,-1.95367l0.55677,-0.40241l0.67196,1.55127l4.62692,10.8627l3.91656,10.17231l1.72789,8.44826l1.55511,7.22183l-0.69116,6.74416l-3.39819,5.28813l-3.3598,2.6433l-1.24792,0.40164h-6.73879h-1.09434"/><path d="M165.77067,142.23493l-1.45911,-0.80482l-0.84475,-2.35685v-4.30975l1.6127,-7.2994l2.38066,-7.58661h0.78715l3.05262,9.59788l1.38232,8.2002l-0.74876,3.17933l-1.32472,1.38001l-3.97415,0.45924l-0.86395,-0.45924"/></g></g></g></svg>