<svg version="1.1" xmlns="http://www.w3.org/2000/svg" xmlns:xlink="http://www.w3.org/1999/xlink" width="1138.3983" height="773.10273" viewBox="0,0,1138.3983,773.10273"><g transform="translate(151.53702,187.07492)"><g data-paper-data="{&quot;isPaintingLayer&quot;:true}" stroke-miterlimit="10" stroke-dasharray="" stroke-dashoffset="0" style="mix-blend-mode: normal"><path d="M753.46299,397.52782c0,104.10568 -202.59115,188.5 -452.5,188.5c-249.90885,0 -452.5,-84.39432 -452.5,-188.5c0,-104.10568 202.59115,-188.5 452.5,-188.5c249.90885,0 452.5,84.39432 452.5,188.5z" fill="#d7d7d7" fill-rule="nonzero" stroke="none" stroke-width="0" stroke-linecap="butt" stroke-linejoin="miter"/><path d="M335.88217,300.8354l-6.51469,0.7981l-15.85487,-1.80648l-13.41063,-3.83383l-15.34238,-7.01824l-17.26758,-8.52652l-1.60294,-5.31839l0.99642,-11.9332l3.42726,-11.44665l8.97704,-16.15401l6.28004,-10.01456l7.65272,-6.48166l4.89853,-2.93446l28.42116,17.49135l13.8833,10.19898l7.58551,8.75095l3.90427,6.29305l3.71396,10.28319l1.72702,10.02475l-2.82426,7.97368l-4.94164,6.40062l-6.84403,4.62033l-6.86422,2.63299" fill="#504a59" fill-rule="evenodd" stroke="none" stroke-width="1" stroke-linecap="butt" stroke-linejoin="miter"/><path d="M256.68336,316.35963l1.6,-14.369l6.4,-1.596l9.1,-2.495l11.5,-2.195l6.825,0.399l7.475,-0.698l9.9,0.798l10.547,3.193l7.253,5.289l0.6,4.689l-0.6,8.082l-3.6,-1.995l-4.807,-3.293l-5.293,-2.195l-5.9,-0.699l-6.16,-0.997h-3.14l-9.7,-0.399l-4,0.399l-4.027,0.408l-4.773,0.689l-5.8,1.098l-3.9,1.097l-5.1,2.096l-4.4,2.694" fill="#3c3651" fill-rule="evenodd" stroke="none" stroke-width="1" stroke-linecap="butt" stroke-linejoin="miter"/><path d="M407.93423,314.08119l-0.34296,2.37537l-1.72428,2.58008l-3.33263,1.23645l-8.73564,-0.65506l-14.19853,-2.75729l-12.53574,-2.41617l-8.81706,-2.58652l-8.93864,-3.61444l15.4313,-1.40931l15.05616,0.55727l13.16018,0.58663l8.03249,1.15976l4.41839,1.85039l2.00598,1.70415l0.52097,1.3887" fill="#ef463c" fill-rule="evenodd" stroke="none" stroke-width="1" stroke-linecap="butt" stroke-linejoin="miter"/><path d="M528.85088,300.01178l0.06977,4.1357l-2.66021,6.4759l-4.80879,4.51113c0,0 -6.09671,1.71179 -6.4489,1.78225c-0.35257,0.07139 -11.10308,-1.85719 -11.10308,-1.85719l-7.70941,-3.81557l-9.11087,-6.44641l-12.08718,-12.85716l-8.75604,-11.8131l-2.02179,-3.96567l1.72171,0.27482l6.82986,4.64346l8.89355,4.08578l7.34065,1.82624l4.13144,-1.65423l2.35615,-2.05916l12.99789,6.96097l7.68792,4.13106l8.67148,4.10266z" fill="#6c1f1b" fill-rule="evenodd" stroke="none" stroke-width="1" stroke-linecap="butt" stroke-linejoin="miter"/><path d="M397.30129,287.52083l14.11806,-2.44433l10.80803,-2.07337l8.37341,-1.52328l1.88001,2.38613l3.78241,2.92737l5.32627,1.36563l6.02988,0.14132l5.39688,-1.44894l-7.83337,7.38369l-13.42244,8.88421l-10.99305,5.22929l-11.46079,0.79905l-7.05278,-3.18002l-4.62182,-5.9035l-1.19381,-6.5215l0.86311,-6.02175" fill="#6c1f1b" fill-rule="evenodd" stroke="none" stroke-width="1" stroke-linecap="butt" stroke-linejoin="miter"/><path d="M355.95004,260.65729l-5.8,3.293l-9.4,0.898l-8.55,-2.096l-4.75,-3.393l3.481,-1.995l7.819,-1.497l7.8,0.599c0,0 5.5,1.596 5.8,1.696c0.3,0.1 3.6,2.495 3.6,2.495z" fill="#6c1f1b" fill-rule="evenodd" stroke="none" stroke-width="1" stroke-linecap="butt" stroke-linejoin="miter"/><path d="M315.61699,212.48931c-0.491,0.144 -1.013,0.142 -1.203,-0.139c-0.196,-0.288 -0.196,-0.974 0.095,-1.237c0.292,-0.263 0.727,-0.634 1.016,-0.572c0.5,0.108 1.146,0.277 1.208,1.009c-0.249,0.458 -0.582,0.783 -1.116,0.939z" fill="#30419a" fill-rule="evenodd" stroke="none" stroke-width="1" stroke-linecap="butt" stroke-linejoin="miter"/><path d="M332.45,207.8203c-0.308,-0.421 -0.335,-1.15 -0.057,-1.514c0.243,-0.318 0.9,-0.393 1.417,-0.163c0.518,0.232 0.627,0.676 0.401,1.733c-0.977,0.428 -1.421,0.408 -1.761,-0.056z" fill="#30419a" fill-rule="evenodd" stroke="none" stroke-width="1" stroke-linecap="butt" stroke-linejoin="miter"/><path d="M358.07004,205.8923c0.492,0.19 0.874,0.791 0.793,1.217c-0.165,0.864 -0.941,0.814 -1.636,1.094c-0.236,-0.532 -0.452,-1.015 -0.69,-1.551c0.498,-0.47 0.831,-1.03 1.533,-0.76z" fill="#30419a" fill-rule="evenodd" stroke="none" stroke-width="1" stroke-linecap="butt" stroke-linejoin="miter"/><path d="M374.08404,213.03731c-0.416,0.02 -0.873,-0.048 -1.251,-0.217c-0.378,-0.17 -0.32,-0.57 -0.197,-0.934c0.181,-0.537 0.434,-0.669 1.182,-0.745c0.578,-0.058 0.705,0.288 0.816,0.714c0.056,0.213 0.134,0.42 0.218,0.678c-0.309,0.214 -0.532,0.492 -0.768,0.504z" fill="#30419a" fill-rule="evenodd" stroke="none" stroke-width="1" stroke-linecap="butt" stroke-linejoin="miter"/><path d="M379.90038,263.38527l-8.317,-0.998l-3.989,-3.791l-1.061,-4.391v-5.787l2.123,-5.089l5.527,-4.69l5,-1.896l8.4,1.497l4.9,4.191l1.2,7.633l-1.2,5.239l-3.6,4.088l-5,2.797l-3.983,1.197" fill="#6c1f1b" fill-rule="evenodd" stroke="none" stroke-width="1" stroke-linecap="butt" stroke-linejoin="miter"/><path d="M393.96105,266.99629l-5.311,-0.698l-2.7,-3.493v-5.089l2.7,-4.191l5.311,-1.696l5.989,1.397l2,2.395v3.738l-1.9,4.145l-3.1,2.794l-2.989,0.698" fill="#ffffff" fill-rule="evenodd" stroke="none" stroke-width="1" stroke-linecap="butt" stroke-linejoin="miter"/><path d="M451.68404,271.61296c-0.85,-0.111 -1.656,-0.403 -2.518,-0.521c-1.182,-0.162 -2.13,-0.974 -2.95,-1.834c-0.392,-0.413 -0.622,-0.975 -0.994,-1.411c-0.359,-0.421 -0.584,-0.853 -0.705,-1.404c-0.225,-1.029 -0.592,-2.027 -0.841,-3.052c-0.263,-1.085 -0.516,-2.178 -0.665,-3.282c-0.165,-1.231 0.242,-2.485 -0.069,-3.723c-0.015,-0.059 -0.015,-0.132 0.005,-0.189c0.452,-1.289 0.754,-2.633 1.652,-3.739c0.581,-0.716 1.094,-1.495 1.576,-2.283c0.854,-1.394 2.079,-2.429 3.303,-3.458c0.98,-0.824 2.231,-1.211 3.281,-1.972c1.464,-1.061 3.325,-1.194 5.048,-1.618c0.146,-0.035 0.317,0.023 0.476,0.045c1.079,0.148 2.155,0.378 3.239,0.425c1.125,0.05 2.126,0.452 3.116,0.873c0.918,0.392 1.774,0.933 2.654,1.416c1.529,0.839 2.76,2.038 3.582,3.535c0.82,1.496 1.27,3.161 1.288,4.899c0.011,0.997 -0.078,1.999 0.006,2.989c0.069,0.812 0.044,1.582 -0.139,2.38c-0.364,1.6 -0.844,3.134 -1.637,4.593c-0.406,0.745 -0.803,1.453 -1.419,2.031c-1.006,0.943 -2.082,1.797 -3.169,2.648c-1.557,1.218 -3.342,1.91 -5.18,2.428c-1.47,0.415 -3.03,0.51 -4.634,0.76c-1.391,-0.173 -2.849,-0.345 -4.306,-0.536zM470.13905,253.04497c-0.078,-0.821 -0.328,-1.558 -0.881,-2.18c-0.021,-0.025 -0.059,-0.044 -0.064,-0.071c-0.267,-1.28 -1.385,-1.772 -2.313,-2.396c-0.999,-0.671 -2.043,-1.303 -3.137,-1.801c-1.477,-0.673 -3.012,-1.205 -4.701,-1.06c-0.593,0.051 -1.202,-0.113 -1.804,-0.126c-0.305,-0.006 -0.615,0.092 -0.915,0.172c-0.217,0.057 -0.415,0.212 -0.631,0.236c-1.763,0.197 -3.168,1.155 -4.56,2.13c-0.887,0.622 -1.799,1.224 -2.602,1.944c-0.682,0.611 -1.32,1.319 -1.801,2.093c-0.673,1.084 -1.236,2.245 -1.747,3.417c-0.426,0.976 -0.467,2.013 -0.323,3.097c0.134,1.006 0.159,2.023 0.43,3.014c0.278,1.011 0.502,2.036 0.757,3.053c0.07,0.278 0.186,0.544 0.248,0.823c0.412,1.851 1.714,2.834 3.373,3.48c0.325,0.127 0.638,0.285 0.958,0.426c0.114,0.051 0.234,0.143 0.346,0.136c1.868,-0.112 3.684,0.357 5.531,0.465c0.472,0.027 0.96,-0.069 1.429,-0.162c1.063,-0.209 2.11,-0.518 3.18,-0.662c0.988,-0.134 1.796,-0.637 2.668,-1.02c1.306,-0.574 2.381,-1.453 3.368,-2.46c0.174,-0.178 0.444,-0.258 0.648,-0.412c1.127,-0.851 1.703,-2.121 2.096,-3.364c0.571,-1.798 1,-3.676 0.818,-5.624c-0.126,-1.049 -0.271,-2.096 -0.371,-3.148z" fill="#12193b" fill-rule="nonzero" stroke="none" stroke-width="1" stroke-linecap="butt" stroke-linejoin="miter"/><path d="M408.21738,255.06363c0.346,0.077 0.686,0.204 1.035,0.237c1.156,0.106 2.062,0.668 2.838,1.48c0.284,0.297 0.543,0.617 0.819,0.922c1.133,1.252 1.619,2.751 1.615,4.407c-0.004,1.568 -0.452,3.043 -1.145,4.44c-0.661,1.332 -1.454,2.569 -2.717,3.43c-0.636,0.434 -1.254,0.893 -1.907,1.298c-1.588,0.986 -3.304,1.54 -5.196,1.434c-0.22,-0.012 -0.444,-0.057 -0.656,-0.118c-0.707,-0.202 -1.387,-0.496 -2.153,-0.464c-0.232,0.009 -0.476,-0.17 -0.706,-0.281c-0.29,-0.138 -0.556,-0.344 -0.859,-0.436c-0.761,-0.232 -1.228,-0.753 -1.595,-1.422c-0.698,-1.272 -1.127,-2.609 -1.372,-4.051c-0.302,-1.774 -0.138,-3.437 0.303,-5.178c0.418,-1.651 1.707,-2.529 2.71,-3.627c0.689,-0.754 1.677,-1.376 2.813,-1.524c0.156,-0.02 0.309,-0.099 0.45,-0.174c1.113,-0.594 2.329,-0.682 3.869,-0.778c0.427,0.094 1.141,0.248 1.854,0.405zM411.33238,258.93863c-1.089,-1.028 -2.358,-1.424 -3.754,-1.709c-0.812,-0.165 -1.592,-0.443 -2.438,-0.328c-0.123,0.016 -0.265,-0.059 -0.379,-0.026c-0.976,0.284 -1.992,0.486 -2.912,0.899c-1.689,0.758 -3.067,1.908 -3.743,3.706c-0.478,1.274 -0.61,2.59 -0.37,3.941c0.237,1.335 0.68,2.566 1.613,3.591c0.455,0.501 0.999,0.821 1.666,0.846c0.399,0.016 0.723,0.146 1.088,0.276c0.559,0.201 1.194,0.197 1.797,0.278c1.472,0.197 2.781,-0.316 4.035,-0.984c0.731,-0.39 1.468,-0.805 2.101,-1.33c0.53,-0.441 0.959,-1.028 1.345,-1.609c0.458,-0.687 0.934,-1.399 1.195,-2.171c0.228,-0.677 0.168,-1.451 0.244,-2.273c-0.126,-1.146 -0.526,-2.198 -1.488,-3.107z" fill="#17204b" fill-rule="nonzero" stroke="none" stroke-width="1" stroke-linecap="butt" stroke-linejoin="miter"/><g fill-rule="evenodd"><path d="M161.70004,209.60004c0.8,0.4 2.5,1.3 0.1,4.7c-2.4,3.4 -9.3,4.1 -10.1,4.1c-3.1,0.1 -6.9,0.1 -11.1,-1.3c-12.2,-4 -12.3,-17.1 -8.4,-19.2c3.8,-2.1 5.5,6 11,10.9c2.4,2.2 5.3,3 7.7,3.5c3.4,0.6 9.9,-3.2 10.8,-2.7z" fill="#ffab19" stroke="#001026" stroke-width="1.2" stroke-linecap="round" stroke-linejoin="round"/><path d="M136.89999,201.50005c1.6,2.7 4.7,6.5 4.7,6.5c0,0 -3.7,-0.9 -5.8,0.8c-1.7,1.3 -1.3,3.5 -1.1,4.2c-1.3,-1.3 -2.9,-3.1 -3.9,-6.6c-1,-3.5 0,-7.7 2,-8.3c2,-0.4 2.5,1.1 4.1,3.4z" fill="#ffffff" stroke="none" stroke-width="1" stroke-linecap="butt" stroke-linejoin="miter"/></g><path d="M166.70004,220.00005c-1.8,1.2 -8,5.6 -15.9,8.1l-0.4,0.1c-0.4,0.1 -0.6,0.6 -0.4,1c1.7,2.4 4.8,7.2 -0.7,8.9c-5.3,1.7 -15.2,-12.4 -11,-16.1c1.9,-1.4 3.6,-0.7 4.5,-0.3c0.5,0.2 1,0.2 1.5,0.1c1.2,-0.4 3.4,-1.2 5.1,-2.1c4.3,-2.2 5.3,-3.1 7.3,-4.6c2,-1.5 6.6,-5.2 10.3,-2c3.2,2.7 1.4,5.7 -0.3,6.9z" fill="#ffab19" fill-rule="evenodd" stroke="#001026" stroke-width="1.2" stroke-linecap="round" stroke-linejoin="round"/><path d="M182.60004,199.20005c0.5,0.4 6.6,7.6 8.6,5.8c2.4,-2.1 5.7,-6.2 9.3,-2.9c3.6,3.3 -3.2,8.9 -6.1,10.4c-6.9,3.1 -12.5,-2.8 -13.7,-4.4c-1.2,-1.6 -3.3,-4.3 -3.3,-6.9c0.1,-2.8 3.5,-3.5 5.2,-2z" fill="#ffab19" fill-rule="evenodd" stroke="#001026" stroke-width="1.2" stroke-linecap="round" stroke-linejoin="round"/><g fill-rule="evenodd"><path d="M182.70004,222.50005c2.1,1.9 6.7,5.8 6.7,5.8c0,0 14.3,-2.5 14.3,4.7c0,4.3 -7.2,5.3 -16.9,4.4c-0.6,-0.1 -1.2,-0.3 -1.7,-0.7c-2.2,-1.9 -8.5,-7.5 -12.5,-11.4c-5.9,-5.8 -10.8,-9.6 -10.8,-9.6c-8.5,-8.3 -1.6,-11.8 1.1,-16.6c2.5,-4.1 3.6,-3.3 9.6,-2.1c3.4,0.5 5.4,0.8 7.6,0.7c3.3,-0.1 2.7,4.7 1.8,7.2c0,0 -1.4,3.7 -2.7,5.6c-1.6,2.3 -2.8,3.8 -4,4.7z" fill="#ffab19" stroke="#001026" stroke-width="1.2" stroke-linecap="round" stroke-linejoin="round"/><path d="M174.30004,215.10004c0,0 -1.5,-1.2 -3.1,-2.7c-2,-1.8 -4,-3.3 -2,-6.4c1.8,-2.4 3.5,-5.6 8,-2.7c4.3,2.7 2.4,5.2 2.4,5.2c-2.2,4.5 -5.3,6.6 -5.3,6.6z" fill="#ffffff" stroke="none" stroke-width="1" stroke-linecap="butt" stroke-linejoin="miter"/></g><path d="M159.20004,206.90004c2.2,2.8 5.6,6.3 1.3,9.2c-5.9,3.3 -10.8,-6.7 -11.8,-10.2c-0.9,-3.1 1.7,-5.1 3.9,-6.8c4.3,-3.1 7.9,-5.9 11.9,-4.4c5,1.8 1.4,5.8 -1.1,7.6c-1.5,1.1 -3,2.3 -4.1,3c-0.3,0.5 -0.4,1.1 -0.1,1.6z" fill="#ffab19" fill-rule="evenodd" stroke="#001026" stroke-width="1.2" stroke-linecap="round" stroke-linejoin="round"/><path d="M190.70004,139.5c0.3,-0.2 0.8,-0.1 0.9,0.3l2.6,10.7c0,0 6.4,4.7 8.3,8c3.2,5.5 3.3,10 3.3,10c0,0 7.1,2.1 8.3,7.8c1.2,5.7 -3.2,16.5 -22,20.2c-18.8,3.7 -33.9,-1.4 -41,-12.8c-7.1,-11.4 4.1,-25 3.5,-24.2l-2.1,-17.9c-0.1,-0.4 0.4,-0.7 0.8,-0.5l12.1,7.9c0,0 4.5,-1.7 9.2,-1.9c2.8,-0.2 5.2,0 7.5,0.4z" fill="#ffab19" fill-rule="evenodd" stroke="#001026" stroke-width="1.2" stroke-linecap="butt" stroke-linejoin="miter"/><path d="M205.50005,168.90005c0,0 6.9,1.8 8.1,7.5c1.2,5.7 -3.6,16 -22.2,19.6c-24.2,5 -35.7,-9.4 -29,-20c6.7,-10.7 18.2,-1.6 26.6,-2.2c7.2,-0.5 8,-6.8 16.5,-4.9z" fill="#ffffff" fill-rule="evenodd" stroke="none" stroke-width="1" stroke-linecap="butt" stroke-linejoin="miter"/><path d="M223.90004,170.00005c-4.7,3.8 -11.9,3.9 -11.9,3.9" fill="none" fill-rule="evenodd" stroke="#001026" stroke-width="1.2" stroke-linecap="round" stroke-linejoin="round"/><path d="M222.60004,181.20005c-6.3,0.5 -10.2,-1.4 -10.2,-1.4" fill="none" fill-rule="evenodd" stroke="#001026" stroke-width="1.2" stroke-linecap="round" stroke-linejoin="round"/><path d="M188.60004,171.20005c2.1,0 4.3,0.2 4.4,0.9c0.1,1.4 -1.4,4.2 -3,4.3c-1.8,0.2 -6,-2.3 -6,-3.9c-0.1,-1.2 2.6,-1.3 4.6,-1.3z" fill="#001026" fill-rule="evenodd" stroke="#001026" stroke-width="1.2" stroke-linecap="round" stroke-linejoin="round"/><path d="M143.60002,169.70005c0,0 8.6,2.8 12.1,5.9" fill="none" fill-rule="evenodd" stroke="#001026" stroke-width="1.2" stroke-linecap="round" stroke-linejoin="round"/><path d="M156,179.10005c-4.3,1.7 -11.7,0.6 -11.7,0.6" fill="none" fill-rule="evenodd" stroke="#001026" stroke-width="1.2" stroke-linecap="round" stroke-linejoin="round"/><g fill-rule="evenodd"><path d="M200.40004,159.5c2.9,4.5 3,9.6 0.2,11.4c-2.8,1.8 -7.4,-0.3 -10.4,-4.8c-2.9,-4.5 -3,-9.6 -0.2,-11.4c2.8,-1.9 7.5,0.3 10.4,4.8z" fill="#ffffff" stroke="#001026" stroke-width="1.2" stroke-linecap="round" stroke-linejoin="round"/><path d="M200.00005,165.20004c0,1.1 -0.8,2 -1.8,2c-1,0 -1.8,-0.9 -1.8,-2c0,-1.1 0.8,-2 1.8,-2c1,0 1.8,0.9 1.8,2" fill="#001026" stroke="none" stroke-width="1" stroke-linecap="butt" stroke-linejoin="miter"/></g><g fill-rule="evenodd"><path d="M175.60004,162.30004c3,4.4 2.8,9.8 0.1,11.7c-3.3,1.9 -7.7,0.5 -10.7,-3.9c-3.1,-4.4 -3.3,-10.1 -0.2,-12.3c3.1,-2.3 7.8,0.1 10.8,4.5z" fill="#ffffff" stroke="#001026" stroke-width="1.2" stroke-linecap="round" stroke-linejoin="round"/><path d="M175.00005,168.10005c0,1.1 -0.8,2 -1.8,2c-1,0 -1.8,-0.9 -1.8,-2c0,-1.1 0.8,-2 1.8,-2c1,0.1 1.8,0.9 1.8,2" fill="#001026" stroke="none" stroke-width="1" stroke-linecap="butt" stroke-linejoin="miter"/></g><path d="M300.75004,280.46227l-1.9,-1.048l-1.1,-3.069v-5.612l2.1,-9.505l3.1,-9.879h1.025l3.975,12.498l1.8,10.678l-0.975,4.14l-1.725,1.797l-5.175,0.598l-1.125,-0.598" fill="#fbf5a8" fill-rule="evenodd" stroke="none" stroke-width="1" stroke-linecap="butt" stroke-linejoin="miter"/><g fill-rule="evenodd" stroke="none" stroke-width="1" stroke-linecap="butt" stroke-linejoin="miter"><path d="M268.92501,292.56129l-4.425,-2.621l-3.3,-3.964l-2.175,-7.035l-0.525,-9.804l2.85,-13.62l4.575,-13.247l3.425,-8.606l3.5,-7.484l0.6,-2.544l0.725,-0.524l0.875,2.02l6.025,14.145l5.1,13.246l2.25,11.001l2.025,9.404l-0.9,8.782l-4.425,6.886l-4.375,3.442l-1.625,0.523h-8.775h-1.425" fill="#f7ec1e"/><path d="M270.75005,280.46227l-1.9,-1.048l-1.1,-3.069v-5.612l2.1,-9.505l3.1,-9.879h1.025l3.975,12.498l1.8,10.678l-0.975,4.14l-1.725,1.797l-5.175,0.598l-1.125,-0.598" fill="#fbf5a8"/><g><path d="M298.92501,292.56129l-4.425,-2.621l-3.3,-3.964l-2.175,-7.035l-0.525,-9.804l2.85,-13.62l4.575,-13.247l3.425,-8.606l3.5,-7.484l0.6,-2.544l0.725,-0.524l0.875,2.02l6.025,14.145l5.1,13.246l2.25,11.001l2.025,9.404l-0.9,8.782l-4.425,6.886l-4.375,3.442l-1.625,0.523h-8.775h-1.425" fill="#f7ec1e"/><path d="M301.25004,280.96227l-1.9,-1.048l-1.1,-3.069v-5.612l2.1,-9.505l3.1,-9.879h1.025l3.975,12.498l1.8,10.678l-0.975,4.14l-1.725,1.797l-5.175,0.598l-1.125,-0.598" fill="#fbf5a8"/></g><path d="M268.42501,337.0613l-4.425,-2.621l-3.3,-3.964l-2.175,-7.035l-0.525,-9.804l2.85,-13.62l4.575,-13.247l3.425,-8.606l3.5,-7.484l0.6,-2.544l0.725,-0.524l0.875,2.02l6.025,14.145l5.1,13.246l2.25,11.001l2.025,9.404l-0.9,8.782l-4.425,6.886l-4.375,3.442l-1.625,0.523h-8.775h-1.425" fill="#f7ec1e"/><path d="M270.75005,325.46227l-1.9,-1.048l-1.1,-3.069v-5.612l2.1,-9.505l3.1,-9.879h1.025l3.975,12.498l1.8,10.678l-0.975,4.14l-1.725,1.797l-5.175,0.598l-1.125,-0.598" fill="#fbf5a8"/><g><path d="M298.42501,337.0613l-4.425,-2.621l-3.3,-3.964l-2.175,-7.035l-0.525,-9.804l2.85,-13.62l4.575,-13.247l3.425,-8.606l3.5,-7.484l0.6,-2.544l0.725,-0.524l0.875,2.02l6.025,14.145l5.1,13.246l2.25,11.001l2.025,9.404l-0.9,8.782l-4.425,6.886l-4.375,3.442l-1.625,0.523h-8.775h-1.425" fill="#f7ec1e"/><path d="M300.75004,325.46227l-1.9,-1.048l-1.1,-3.069v-5.612l2.1,-9.505l3.1,-9.879h1.025l3.975,12.498l1.8,10.678l-0.975,4.14l-1.725,1.797l-5.175,0.598l-1.125,-0.598" fill="#fbf5a8"/></g><path d="M328.42501,292.06129l-4.425,-2.621l-3.3,-3.964l-2.175,-7.035l-0.525,-9.804l2.85,-13.62l4.575,-13.247l3.425,-8.606l3.5,-7.484l0.6,-2.544l0.725,-0.524l0.875,2.02l6.025,14.145l5.1,13.246l2.25,11.001l2.025,9.404l-0.9,8.782l-4.425,6.886l-4.375,3.442l-1.625,0.523h-8.775h-1.425" fill="#f7ec1e"/><path d="M330.75005,280.46227l-1.9,-1.048l-1.1,-3.069v-5.612l2.1,-9.505l3.1,-9.879h1.025l3.975,12.498l1.8,10.678l-0.975,4.14l-1.725,1.797l-5.175,0.598l-1.125,-0.598" fill="#fbf5a8"/><g><path d="M358.42503,292.06129l-4.425,-2.621l-3.3,-3.964l-2.175,-7.035l-0.525,-9.804l2.85,-13.62l4.575,-13.247l3.425,-8.606l3.5,-7.484l0.6,-2.544l0.725,-0.524l0.875,2.02l6.025,14.145l5.1,13.246l2.25,11.001l2.025,9.404l-0.9,8.782l-4.425,6.886l-4.375,3.442l-1.625,0.523h-8.775h-1.425" fill="#f7ec1e"/><path d="M360.75004,280.46227l-1.9,-1.048l-1.1,-3.069v-5.612l2.1,-9.505l3.1,-9.879h1.025l3.975,12.498l1.8,10.678l-0.975,4.14l-1.725,1.797l-5.175,0.598l-1.125,-0.598" fill="#fbf5a8"/></g><path d="M328.42501,337.0613l-4.425,-2.621l-3.3,-3.964l-2.175,-7.035l-0.525,-9.804l2.85,-13.62l4.575,-13.247l3.425,-8.606l3.5,-7.484l0.6,-2.544l0.725,-0.524l0.875,2.02l6.025,14.145l5.1,13.246l2.25,11.001l2.025,9.404l-0.9,8.782l-4.425,6.886l-4.375,3.442l-1.625,0.523h-8.775h-1.425" fill="#f7ec1e"/><path d="M330.75005,325.46227l-1.9,-1.048l-1.1,-3.069v-5.612l2.1,-9.505l3.1,-9.879h1.025l3.975,12.498l1.8,10.678l-0.975,4.14l-1.725,1.797l-5.175,0.598l-1.125,-0.598" fill="#fbf5a8"/><g><path d="M358.42503,337.0613l-4.425,-2.621l-3.3,-3.964l-2.175,-7.035l-0.525,-9.804l2.85,-13.62l4.575,-13.247l3.425,-8.606l3.5,-7.484l0.6,-2.544l0.725,-0.524l0.875,2.02l6.025,14.145l5.1,13.246l2.25,11.001l2.025,9.404l-0.9,8.782l-4.425,6.886l-4.375,3.442l-1.625,0.523h-8.775h-1.425" fill="#f7ec1e"/><path d="M360.75004,325.46227l-1.9,-1.048l-1.1,-3.069v-5.612l2.1,-9.505l3.1,-9.879h1.025l3.975,12.498l1.8,10.678l-0.975,4.14l-1.725,1.797l-5.175,0.598l-1.125,-0.598" fill="#fbf5a8"/></g><path d="M388.42504,292.06129l-4.425,-2.621l-3.3,-3.964l-2.175,-7.035l-0.525,-9.804l2.85,-13.62l4.575,-13.247l3.425,-8.606l3.5,-7.484l0.6,-2.544l0.725,-0.524l0.875,2.02l6.025,14.145l5.1,13.246l2.25,11.001l2.025,9.404l-0.9,8.782l-4.425,6.886l-4.375,3.442l-1.625,0.523h-8.775h-1.425" fill="#f7ec1e"/><path d="M390.75005,280.46227l-1.9,-1.048l-1.1,-3.069v-5.612l2.1,-9.505l3.1,-9.879h1.025l3.975,12.498l1.8,10.678l-0.975,4.14l-1.725,1.797l-5.175,0.598l-1.125,-0.598" fill="#fbf5a8"/><g><path d="M418.42503,292.06129l-4.425,-2.621l-3.3,-3.964l-2.175,-7.035l-0.525,-9.804l2.85,-13.62l4.575,-13.247l3.425,-8.606l3.5,-7.484l0.6,-2.544l0.725,-0.524l0.875,2.02l6.025,14.145l5.1,13.246l2.25,11.001l2.025,9.404l-0.9,8.782l-4.425,6.886l-4.375,3.442l-1.625,0.523h-8.775h-1.425" fill="#f7ec1e"/><path d="M420.75004,280.46227l-1.9,-1.048l-1.1,-3.069v-5.612l2.1,-9.505l3.1,-9.879h1.025l3.975,12.498l1.8,10.678l-0.975,4.14l-1.725,1.797l-5.175,0.598l-1.125,-0.598" fill="#fbf5a8"/></g><path d="M388.42503,337.0613l-4.425,-2.621l-3.3,-3.964l-2.175,-7.035l-0.525,-9.804l2.85,-13.62l4.575,-13.247l3.425,-8.606l3.5,-7.484l0.6,-2.544l0.725,-0.524l0.875,2.02l6.025,14.145l5.1,13.246l2.25,11.001l2.025,9.404l-0.9,8.782l-4.425,6.886l-4.375,3.442l-1.625,0.523h-8.775h-1.425" fill="#f7ec1e"/><path d="M390.75005,325.46227l-1.9,-1.048l-1.1,-3.069v-5.612l2.1,-9.505l3.1,-9.879h1.025l3.975,12.498l1.8,10.678l-0.975,4.14l-1.725,1.797l-5.175,0.598l-1.125,-0.598" fill="#fbf5a8"/><g><path d="M418.42503,337.0613l-4.425,-2.621l-3.3,-3.964l-2.175,-7.035l-0.525,-9.804l2.85,-13.62l4.575,-13.247l3.425,-8.606l3.5,-7.484l0.6,-2.544l0.725,-0.524l0.875,2.02l6.025,14.145l5.1,13.246l2.25,11.001l2.025,9.404l-0.9,8.782l-4.425,6.886l-4.375,3.442l-1.625,0.523h-8.775h-1.425" fill="#f7ec1e"/><path d="M420.75004,325.46227l-1.9,-1.048l-1.1,-3.069v-5.612l2.1,-9.505l3.1,-9.879h1.025l3.975,12.498l1.8,10.678l-0.975,4.14l-1.725,1.797l-5.175,0.598l-1.125,-0.598" fill="#fbf5a8"/></g><path d="M448.42504,292.06129l-4.425,-2.621l-3.3,-3.964l-2.175,-7.035l-0.525,-9.804l2.85,-13.62l4.575,-13.247l3.425,-8.606l3.5,-7.484l0.6,-2.544l0.725,-0.524l0.875,2.02l6.025,14.145l5.1,13.246l2.25,11.001l2.025,9.404l-0.9,8.782l-4.425,6.886l-4.375,3.442l-1.625,0.523h-8.775h-1.425" fill="#f7ec1e"/><path d="M450.75005,280.46227l-1.9,-1.048l-1.1,-3.069v-5.612l2.1,-9.505l3.1,-9.879h1.025l3.975,12.498l1.8,10.678l-0.975,4.14l-1.725,1.797l-5.175,0.598l-1.125,-0.598" fill="#fbf5a8"/><g><path d="M478.42503,292.06129l-4.425,-2.621l-3.3,-3.964l-2.175,-7.035l-0.525,-9.804l2.85,-13.62l4.575,-13.247l3.425,-8.606l3.5,-7.484l0.6,-2.544l0.725,-0.524l0.875,2.02l6.025,14.145l5.1,13.246l2.25,11.001l2.025,9.404l-0.9,8.782l-4.425,6.886l-4.375,3.442l-1.625,0.523h-8.775h-1.425" fill="#f7ec1e"/><path d="M480.75004,280.46227l-1.9,-1.048l-1.1,-3.069v-5.612l2.1,-9.505l3.1,-9.879h1.025l3.975,12.498l1.8,10.678l-0.975,4.14l-1.725,1.797l-5.175,0.598l-1.125,-0.598" fill="#fbf5a8"/></g><path d="M448.42504,337.0613l-4.425,-2.621l-3.3,-3.964l-2.175,-7.035l-0.525,-9.804l2.85,-13.62l4.575,-13.247l3.425,-8.606l3.5,-7.484l0.6,-2.544l0.725,-0.524l0.875,2.02l6.025,14.145l5.1,13.246l2.25,11.001l2.025,9.404l-0.9,8.782l-4.425,6.886l-4.375,3.442l-1.625,0.523h-8.775h-1.425" fill="#f7ec1e"/><path d="M450.75005,325.46227l-1.9,-1.048l-1.1,-3.069v-5.612l2.1,-9.505l3.1,-9.879h1.025l3.975,12.498l1.8,10.678l-0.975,4.14l-1.725,1.797l-5.175,0.598l-1.125,-0.598" fill="#fbf5a8"/><g><path d="M478.42503,337.0613l-4.425,-2.621l-3.3,-3.964l-2.175,-7.035l-0.525,-9.804l2.85,-13.62l4.575,-13.247l3.425,-8.606l3.5,-7.484l0.6,-2.544l0.725,-0.524l0.875,2.02l6.025,14.145l5.1,13.246l2.25,11.001l2.025,9.404l-0.9,8.782l-4.425,6.886l-4.375,3.442l-1.625,0.523h-8.775h-1.425" fill="#f7ec1e"/><path d="M480.75004,325.46227l-1.9,-1.048l-1.1,-3.069v-5.612l2.1,-9.505l3.1,-9.879h1.025l3.975,12.498l1.8,10.678l-0.975,4.14l-1.725,1.797l-5.175,0.598l-1.125,-0.598" fill="#fbf5a8"/></g></g><path d="M183.70005,179.01468c10.5,-0.6 14.3,6.9 15.2,9.6c0.2,0.5 -0.2,1 -0.7,0.9c-1.5,-0.3 -4.7,-0.6 -10.1,-0.3c-6,0.4 -11.4,2 -13.3,2.7c-0.4,0.1 -0.8,-0.2 -0.8,-0.6c-0.3,-4.9 0.6,-11.3 9.7,-12.3z" data-paper-data="{&quot;index&quot;:null}" fill="#ffffff" fill-rule="evenodd" stroke="#001026" stroke-width="1.2" stroke-linecap="round" stroke-linejoin="round"/><path d="M149.54065,184.86639l-7.25038,-21.49228l1.87876,-17.03584c0,0 17.99317,-8.6486 18.79659,-8.12505c0.80683,0.52355 26.31934,0 26.31934,0l24.70567,16.77365l5.10267,23.06335l-6.1746,13.629l-15.84548,8.6486l-30.07728,-5.76573z" fill-opacity="0.5451" fill="#ffffff" fill-rule="nonzero" stroke="none" stroke-width="1" stroke-linecap="butt" stroke-linejoin="miter"/><path d="M161.06319,131.79272c3.99825,-0.53728 7.98537,-1.34717 12.00158,-1.51822c2.81814,-0.11861 5.87701,0.13277 8.48393,1.10329c5.77311,2.15331 11.38117,4.76732 16.96401,7.37468c5.89497,2.75343 10.86124,6.97682 13.99878,12.36216c2.91135,5.00121 5.67263,10.27128 6.61928,16.26425c0.85686,5.41323 1.21559,10.41112 -1.32676,15.62874c-1.78555,3.66487 -2.59964,7.87035 -6.13868,10.3799c-3.17688,2.25818 -6.72361,4.0207 -10.11171,5.99963c-0.14366,0.08365 -0.34078,0.08032 -0.48444,0.16397c-4.04101,2.3872 -8.4587,2.06258 -12.92984,1.93024c-4.95559,-0.14317 -9.92571,0.18853 -14.89199,0.18479c-0.84232,0 -1.67096,-0.6842 -2.52397,-1.00507c-4.85169,-1.83243 -9.68883,-3.69608 -14.56532,-5.45526c-3.13412,-1.12742 -5.40753,-3.1796 -7.78485,-5.43779c-4.14148,-3.92997 -7.17854,-8.5612 -9.15436,-13.59737c-1.97582,-5.01911 -4.49295,-10.10772 -3.94095,-15.80021c0.35873,-3.75185 0.24414,-7.62939 1.2374,-11.21393c1.287,-4.64205 5.11678,-7.84579 8.87089,-10.66249c3.18073,-2.3872 6.91003,-4.10435 10.47771,-5.96799c1.53841,-0.80281 3.28805,-1.21815 4.94105,-1.80788c0.08594,0.3629 0.17231,0.71874 0.25826,1.07498zM143.30301,155.92066c0.29417,9.20337 2.77881,15.83475 6.47946,22.09949c0.90689,1.53944 1.50934,3.41016 2.79334,4.53717c2.1011,1.84658 4.55025,3.37188 7.02077,4.74318c8.27955,4.6071 17.72808,5.46234 26.72082,7.8075c6.01682,1.57066 11.36706,-0.33835 16.6057,-2.485c2.06518,-0.84817 3.84047,-2.87579 5.18519,-4.74984c1.73168,-2.41175 2.90409,-5.21097 4.30268,-7.84954c0.45921,-0.86898 1.33018,-1.7904 1.25493,-2.62109c-0.29032,-3.15505 -0.9428,-6.27555 -1.35883,-9.4202c-0.68497,-5.20348 -4.02347,-9.16175 -6.80228,-13.27983c-1.93606,-2.87246 -4.5216,-5.62964 -7.45476,-7.49329c-5.19204,-3.30196 -10.26607,-7.11665 -16.91399,-7.52867c-3.45651,-0.21641 -6.93483,-1.31928 -10.32677,-1.05751c-5.06675,0.39454 -10.352,0.55518 -14.76628,3.72396c-2.24819,1.61602 -4.63277,3.04351 -6.81297,4.73653c-3.51765,2.72555 -5.94841,6.09701 -5.92703,8.83713z" fill="#30419a" fill-rule="nonzero" stroke="none" stroke-width="1" stroke-linecap="butt" stroke-linejoin="miter"/><path d="M-128.75433,527.6398v-714.71471h1115.61562v714.71471z" fill-opacity="0.20392" fill="#000000" fill-rule="nonzero" stroke="none" stroke-width="NaN" stroke-linecap="butt" stroke-linejoin="miter"/><text transform="translate(212.0865,57.29445) scale(1.57367,1.57367)" font-size="40" xml:space="preserve" fill-opacity="0.20392" fill="#ffffff" fill-rule="nonzero" stroke="none" stroke-width="1" stroke-linecap="butt" stroke-linejoin="miter" stroke-miterlimit="10" stroke-dasharray="" stroke-dashoffset="0" font-family="Pixel" font-weight="normal" text-anchor="start" style="mix-blend-mode: normal"><tspan x="0" dy="0">About</tspan></text><text transform="translate(227.71113,287.76216) scale(1.09949,1.09949)" font-size="40" xml:space="preserve" fill-opacity="0.20392" fill="#ffffff" fill-rule="nonzero" stroke="none" stroke-width="1" stroke-linecap="butt" stroke-linejoin="miter" stroke-miterlimit="10" stroke-dasharray="" stroke-dashoffset="0" font-family="Pixel" font-weight="normal" text-anchor="start" style="mix-blend-mode: normal"><tspan x="0" dy="0">CREDITS</tspan></text></g></g></svg>