<svg version="1.1" xmlns="http://www.w3.org/2000/svg" xmlns:xlink="http://www.w3.org/1999/xlink" width="52.27812" height="43.31549" viewBox="0,0,52.27812,43.31549"><g transform="translate(-290.70591,-159.50319)"><g data-paper-data="{&quot;isPaintingLayer&quot;:true}" fill="#c1b4d8" fill-rule="evenodd" stroke="#a599b9" stroke-width="2.5" stroke-linecap="butt" stroke-linejoin="miter" stroke-miterlimit="10" stroke-dasharray="" stroke-dashoffset="0" style="mix-blend-mode: normal"><path d="M295.08329,184.60023l-1.69731,-3.49884l-0.97078,-4.25865l13.47949,4.40851l-11.27847,-12.76556l4.29218,-3.24492l5.1526,-2.62608l14.03171,14.1199l-4.15587,-15.77142l9.04748,1.08428l11.8848,9.59271l6.24114,-3.16119l0.60976,5.26959l-1.1978,6.13683c0,0 -7.52501,-0.36208 -7.93909,1.2896c-0.19325,0.77083 5.56192,8.19244 5.56192,8.19244l-2.8169,5.65787l-3.93115,4.96654l-2.54218,1.47316l-9.74893,-2.95381l-1.91137,-4.72224l-4.60235,-8.76899l-15.28286,2.24445l-2.226,-2.66417"/></g></g></svg>