<svg version="1.1" xmlns="http://www.w3.org/2000/svg" xmlns:xlink="http://www.w3.org/1999/xlink" width="38.93109" height="42.50267" viewBox="0,0,38.93109,42.50267"><g transform="translate(-304.04036,-162.9626)"><g data-paper-data="{&quot;isPaintingLayer&quot;:true}" fill-rule="nonzero" stroke-width="2" stroke-linecap="butt" stroke-linejoin="miter" stroke-miterlimit="10" stroke-dasharray="" stroke-dashoffset="0" style="mix-blend-mode: normal"><path d="M338.91814,169.14244c-0.60654,-0.15979 -1.08281,-0.66821 -1.68554,-0.84144c-4.46413,-1.28312 -10.99658,-0.78825 -13.7964,4.12482c-0.67585,1.18597 -0.45874,4.46772 -0.69385,5.73129c-0.63336,3.40391 -1.34892,6.6962 -1.76053,10.13265c0,0 -0.20665,1.71974 -1.8141,1.58016c-1.60744,-0.13959 -1.4008,-1.85932 -1.4008,-1.85932c0.51115,-4.24088 1.72254,-8.39891 2.16785,-12.63085c0.15724,-1.4943 -0.14582,-2.97446 0.63133,-4.41263c3.54827,-6.56626 11.61523,-7.64165 17.63132,-6.00499c0.60519,0.16464 1.07899,0.68167 1.68554,0.84144c1.42052,0.37419 1.88405,4.08942 -0.96482,3.33889z" fill="#4b525b" stroke="#4b525b"/><path d="M338.91814,169.14244c-0.60654,-0.15979 -1.08281,-0.66821 -1.68554,-0.84144c-4.46413,-1.28312 -10.99658,-0.78825 -13.7964,4.12482c-0.67585,1.18597 -0.45874,4.46772 -0.69385,5.73129c-0.63336,3.40391 -1.34892,6.6962 -1.76053,10.13265c0,0 -0.20665,1.71974 -1.8141,1.58016c-1.60744,-0.13959 -1.4008,-1.85932 -1.4008,-1.85932c0.51115,-4.24088 1.72254,-8.39891 2.16785,-12.63085c0.15724,-1.4943 -0.14582,-2.97446 0.63133,-4.41263c3.54827,-6.56626 11.61523,-7.64165 17.63132,-6.00499c0.60519,0.16464 1.07899,0.68167 1.68554,0.84144c1.42052,0.37419 1.88405,4.08942 -0.96482,3.33889z" fill="#4b525b" stroke="#4b525b"/><path d="M338.91814,169.14244c-0.60654,-0.15979 -1.08281,-0.66821 -1.68554,-0.84144c-4.46413,-1.28312 -10.99658,-0.78825 -13.7964,4.12482c-0.67585,1.18597 -0.45874,4.46772 -0.69385,5.73129c-0.63336,3.40391 -1.34892,6.6962 -1.76053,10.13265c0,0 -0.20665,1.71974 -1.8141,1.58016c-1.60744,-0.13959 -1.4008,-1.85932 -1.4008,-1.85932c0.51115,-4.24088 1.72254,-8.39891 2.16785,-12.63085c0.15724,-1.4943 -0.14582,-2.97446 0.63133,-4.41263c3.54827,-6.56626 11.61523,-7.64165 17.63132,-6.00499c0.60519,0.16464 1.07899,0.68167 1.68554,0.84144c1.42052,0.37419 1.88405,4.08942 -0.96482,3.33889z" fill="#4b525b" stroke="#4b525b"/><path d="M338.91814,169.14244c-0.60654,-0.15979 -1.08281,-0.66821 -1.68554,-0.84144c-4.46413,-1.28312 -10.99658,-0.78825 -13.7964,4.12482c-0.67585,1.18597 -0.45874,4.46772 -0.69385,5.73129c-0.63336,3.40391 -1.34892,6.6962 -1.76053,10.13265c0,0 -0.20665,1.71974 -1.8141,1.58016c-1.60744,-0.13959 -1.4008,-1.85932 -1.4008,-1.85932c0.51115,-4.24088 1.72254,-8.39891 2.16785,-12.63085c0.15724,-1.4943 -0.14582,-2.97446 0.63133,-4.41263c3.54827,-6.56626 11.61523,-7.64165 17.63132,-6.00499c0.60519,0.16464 1.07899,0.68167 1.68554,0.84144c1.42052,0.37419 1.88405,4.08942 -0.96482,3.33889z" fill="#4b525b" stroke="#4b525b"/><path d="M338.91814,169.14244c-0.60654,-0.15979 -1.08281,-0.66821 -1.68554,-0.84144c-4.46413,-1.28312 -10.99658,-0.78825 -13.7964,4.12482c-0.67585,1.18597 -0.45874,4.46772 -0.69385,5.73129c-0.63336,3.40391 -1.34892,6.6962 -1.76053,10.13265c0,0 -0.20665,1.71974 -1.8141,1.58016c-1.60744,-0.13959 -1.4008,-1.85932 -1.4008,-1.85932c0.51115,-4.24088 1.72254,-8.39891 2.16785,-12.63085c0.15724,-1.4943 -0.14582,-2.97446 0.63133,-4.41263c3.54827,-6.56626 11.61523,-7.64165 17.63132,-6.00499c0.60519,0.16464 1.07899,0.68167 1.68554,0.84144c1.42052,0.37419 1.88405,4.08942 -0.96482,3.33889z" fill="#4b525b" stroke="#4b525b"/><path d="M338.91814,169.14244c-0.60654,-0.15979 -1.08281,-0.66821 -1.68554,-0.84144c-4.46413,-1.28312 -10.99658,-0.78825 -13.7964,4.12482c-0.67585,1.18597 -0.45874,4.46772 -0.69385,5.73129c-0.63336,3.40391 -1.34892,6.6962 -1.76053,10.13265c0,0 -0.20665,1.71974 -1.8141,1.58016c-1.60744,-0.13959 -1.4008,-1.85932 -1.4008,-1.85932c0.51115,-4.24088 1.72254,-8.39891 2.16785,-12.63085c0.15724,-1.4943 -0.14582,-2.97446 0.63133,-4.41263c3.54827,-6.56626 11.61523,-7.64165 17.63132,-6.00499c0.60519,0.16464 1.07899,0.68167 1.68554,0.84144c1.42052,0.37419 1.88405,4.08942 -0.96482,3.33889z" fill="#4b525b" stroke="#4b525b"/><path d="M338.91814,169.14244c-0.60654,-0.15979 -1.08281,-0.66821 -1.68554,-0.84144c-4.46413,-1.28312 -10.99658,-0.78825 -13.7964,4.12482c-0.67585,1.18597 -0.45874,4.46772 -0.69385,5.73129c-0.63336,3.40391 -1.34892,6.6962 -1.76053,10.13265c0,0 -0.20665,1.71974 -1.8141,1.58016c-1.60744,-0.13959 -1.4008,-1.85932 -1.4008,-1.85932c0.51115,-4.24088 1.72254,-8.39891 2.16785,-12.63085c0.15724,-1.4943 -0.14582,-2.97446 0.63133,-4.41263c3.54827,-6.56626 11.61523,-7.64165 17.63132,-6.00499c0.60519,0.16464 1.07899,0.68167 1.68554,0.84144c1.42052,0.37419 1.88405,4.08942 -0.96482,3.33889z" fill="#4b525b" stroke="#4b525b"/><path d="M338.91814,169.14244c-0.60654,-0.15979 -1.08281,-0.66821 -1.68554,-0.84144c-4.46413,-1.28312 -10.99658,-0.78825 -13.7964,4.12482c-0.67585,1.18597 -0.45874,4.46772 -0.69385,5.73129c-0.63336,3.40391 -1.34892,6.6962 -1.76053,10.13265c0,0 -0.20665,1.71974 -1.8141,1.58016c-1.60744,-0.13959 -1.4008,-1.85932 -1.4008,-1.85932c0.51115,-4.24088 1.72254,-8.39891 2.16785,-12.63085c0.15724,-1.4943 -0.14582,-2.97446 0.63133,-4.41263c3.54827,-6.56626 11.61523,-7.64165 17.63132,-6.00499c0.60519,0.16464 1.07899,0.68167 1.68554,0.84144c1.42052,0.37419 1.88405,4.08942 -0.96482,3.33889z" fill="#4b525b" stroke="#4b525b"/><path d="M338.91814,169.14244c-0.60654,-0.15979 -1.08281,-0.66821 -1.68554,-0.84144c-4.46413,-1.28312 -10.99658,-0.78825 -13.7964,4.12482c-0.67585,1.18597 -0.45874,4.46772 -0.69385,5.73129c-0.63336,3.40391 -1.34892,6.6962 -1.76053,10.13265c0,0 -0.20665,1.71974 -1.8141,1.58016c-1.60744,-0.13959 -1.4008,-1.85932 -1.4008,-1.85932c0.51115,-4.24088 1.72254,-8.39891 2.16785,-12.63085c0.15724,-1.4943 -0.14582,-2.97446 0.63133,-4.41263c3.54827,-6.56626 11.61523,-7.64165 17.63132,-6.00499c0.60519,0.16464 1.07899,0.68167 1.68554,0.84144c1.42052,0.37419 1.88405,4.08942 -0.96482,3.33889z" fill="#4b525b" stroke="#4b525b"/><path d="M338.91814,169.14244c-0.60654,-0.15979 -1.08281,-0.66821 -1.68554,-0.84144c-4.46413,-1.28312 -10.99658,-0.78825 -13.7964,4.12482c-0.67585,1.18597 -0.45874,4.46772 -0.69385,5.73129c-0.63336,3.40391 -1.34892,6.6962 -1.76053,10.13265c0,0 -0.20665,1.71974 -1.8141,1.58016c-1.60744,-0.13959 -1.4008,-1.85932 -1.4008,-1.85932c0.51115,-4.24088 1.72254,-8.39891 2.16785,-12.63085c0.15724,-1.4943 -0.14582,-2.97446 0.63133,-4.41263c3.54827,-6.56626 11.61523,-7.64165 17.63132,-6.00499c0.60519,0.16464 1.07899,0.68167 1.68554,0.84144c1.42052,0.37419 1.88405,4.08942 -0.96482,3.33889z" fill="#4b525b" stroke="#4b525b"/><path d="M338.91814,169.14244c-0.60654,-0.15979 -1.08281,-0.66821 -1.68554,-0.84144c-4.46413,-1.28312 -10.99658,-0.78825 -13.7964,4.12482c-0.67585,1.18597 -0.45874,4.46772 -0.69385,5.73129c-0.63336,3.40391 -1.34892,6.6962 -1.76053,10.13265c0,0 -0.20665,1.71974 -1.8141,1.58016c-1.60744,-0.13959 -1.4008,-1.85932 -1.4008,-1.85932c0.51115,-4.24088 1.72254,-8.39891 2.16785,-12.63085c0.15724,-1.4943 -0.14582,-2.97446 0.63133,-4.41263c3.54827,-6.56626 11.61523,-7.64165 17.63132,-6.00499c0.60519,0.16464 1.07899,0.68167 1.68554,0.84144c1.42052,0.37419 1.88405,4.08942 -0.96482,3.33889z" fill="#4b525b" stroke="#4b525b"/><path d="M338.91814,169.14244c-0.60654,-0.15979 -1.08281,-0.66821 -1.68554,-0.84144c-4.46413,-1.28312 -10.99658,-0.78825 -13.7964,4.12482c-0.67585,1.18597 -0.45874,4.46772 -0.69385,5.73129c-0.63336,3.40391 -1.34892,6.6962 -1.76053,10.13265c0,0 -0.20665,1.71974 -1.8141,1.58016c-1.60744,-0.13959 -1.4008,-1.85932 -1.4008,-1.85932c0.51115,-4.24088 1.72254,-8.39891 2.16785,-12.63085c0.15724,-1.4943 -0.14582,-2.97446 0.63133,-4.41263c3.54827,-6.56626 11.61523,-7.64165 17.63132,-6.00499c0.60519,0.16464 1.07899,0.68167 1.68554,0.84144c1.42052,0.37419 1.88405,4.08942 -0.96482,3.33889z" fill="#4b525b" stroke="#4b525b"/><path d="M339.73803,169.15686c-0.64847,-0.17084 -1.15767,-0.71439 -1.80205,-0.89961c-4.77272,-1.37182 -11.75676,-0.84274 -14.75013,4.40997c-0.72257,1.26795 -0.49045,4.77656 -0.74182,6.12749c-0.67714,3.63922 -1.44217,7.1591 -1.88224,10.83312c0,0 -0.22093,1.83863 -1.9395,1.68939c-1.71857,-0.14924 -1.49764,-1.98786 -1.49764,-1.98786c0.54649,-4.53405 1.84163,-8.97952 2.31772,-13.50402c0.16811,-1.59761 -0.1559,-3.18009 0.67498,-4.71767c3.79356,-7.02019 12.41818,-8.1699 18.85015,-6.42011c0.64703,0.17603 1.15359,0.72879 1.80205,0.89961c1.51872,0.40006 2.01429,4.37212 -1.03151,3.5697z" fill="none" stroke="#31363c"/><path d="M339.73803,169.15686c-0.64847,-0.17084 -1.15767,-0.71439 -1.80205,-0.89961c-4.77272,-1.37182 -11.75676,-0.84274 -14.75013,4.40997c-0.72257,1.26795 -0.49045,4.77656 -0.74182,6.12749c-0.67714,3.63922 -1.44217,7.1591 -1.88224,10.83312c0,0 -0.22093,1.83863 -1.9395,1.68939c-1.71857,-0.14924 -1.49764,-1.98786 -1.49764,-1.98786c0.54649,-4.53405 1.84163,-8.97952 2.31772,-13.50402c0.16811,-1.59761 -0.1559,-3.18009 0.67498,-4.71767c3.79356,-7.02019 12.41818,-8.1699 18.85015,-6.42011c0.64703,0.17603 1.15359,0.72879 1.80205,0.89961c1.51872,0.40006 2.01429,4.37212 -1.03151,3.5697z" fill="none" stroke="#31363c"/><path d="M339.73803,169.15686c-0.64847,-0.17084 -1.15767,-0.71439 -1.80205,-0.89961c-4.77272,-1.37182 -11.75676,-0.84274 -14.75013,4.40997c-0.72257,1.26795 -0.49045,4.77656 -0.74182,6.12749c-0.67714,3.63922 -1.44217,7.1591 -1.88224,10.83312c0,0 -0.22093,1.83863 -1.9395,1.68939c-1.71857,-0.14924 -1.49764,-1.98786 -1.49764,-1.98786c0.54649,-4.53405 1.84163,-8.97952 2.31772,-13.50402c0.16811,-1.59761 -0.1559,-3.18009 0.67498,-4.71767c3.79356,-7.02019 12.41818,-8.1699 18.85015,-6.42011c0.64703,0.17603 1.15359,0.72879 1.80205,0.89961c1.51872,0.40006 2.01429,4.37212 -1.03151,3.5697z" fill="none" stroke="#31363c"/><path d="M339.73803,169.15686c-0.64847,-0.17084 -1.15767,-0.71439 -1.80205,-0.89961c-4.77272,-1.37182 -11.75676,-0.84274 -14.75013,4.40997c-0.72257,1.26795 -0.49045,4.77656 -0.74182,6.12749c-0.67714,3.63922 -1.44217,7.1591 -1.88224,10.83312c0,0 -0.22093,1.83863 -1.9395,1.68939c-1.71857,-0.14924 -1.49764,-1.98786 -1.49764,-1.98786c0.54649,-4.53405 1.84163,-8.97952 2.31772,-13.50402c0.16811,-1.59761 -0.1559,-3.18009 0.67498,-4.71767c3.79356,-7.02019 12.41818,-8.1699 18.85015,-6.42011c0.64703,0.17603 1.15359,0.72879 1.80205,0.89961c1.51872,0.40006 2.01429,4.37212 -1.03151,3.5697z" fill="none" stroke="#31363c"/><path d="M339.73803,169.15686c-0.64847,-0.17084 -1.15767,-0.71439 -1.80205,-0.89961c-4.77272,-1.37182 -11.75676,-0.84274 -14.75013,4.40997c-0.72257,1.26795 -0.49045,4.77656 -0.74182,6.12749c-0.67714,3.63922 -1.44217,7.1591 -1.88224,10.83312c0,0 -0.22093,1.83863 -1.9395,1.68939c-1.71857,-0.14924 -1.49764,-1.98786 -1.49764,-1.98786c0.54649,-4.53405 1.84163,-8.97952 2.31772,-13.50402c0.16811,-1.59761 -0.1559,-3.18009 0.67498,-4.71767c3.79356,-7.02019 12.41818,-8.1699 18.85015,-6.42011c0.64703,0.17603 1.15359,0.72879 1.80205,0.89961c1.51872,0.40006 2.01429,4.37212 -1.03151,3.5697z" fill="none" stroke="#31363c"/><path d="M339.73803,169.15686c-0.64847,-0.17084 -1.15767,-0.71439 -1.80205,-0.89961c-4.77272,-1.37182 -11.75676,-0.84274 -14.75013,4.40997c-0.72257,1.26795 -0.49045,4.77656 -0.74182,6.12749c-0.67714,3.63922 -1.44217,7.1591 -1.88224,10.83312c0,0 -0.22093,1.83863 -1.9395,1.68939c-1.71857,-0.14924 -1.49764,-1.98786 -1.49764,-1.98786c0.54649,-4.53405 1.84163,-8.97952 2.31772,-13.50402c0.16811,-1.59761 -0.1559,-3.18009 0.67498,-4.71767c3.79356,-7.02019 12.41818,-8.1699 18.85015,-6.42011c0.64703,0.17603 1.15359,0.72879 1.80205,0.89961c1.51872,0.40006 2.01429,4.37212 -1.03151,3.5697z" fill="none" stroke="#31363c"/><path d="M339.73803,169.15686c-0.64847,-0.17084 -1.15767,-0.71439 -1.80205,-0.89961c-4.77272,-1.37182 -11.75676,-0.84274 -14.75013,4.40997c-0.72257,1.26795 -0.49045,4.77656 -0.74182,6.12749c-0.67714,3.63922 -1.44217,7.1591 -1.88224,10.83312c0,0 -0.22093,1.83863 -1.9395,1.68939c-1.71857,-0.14924 -1.49764,-1.98786 -1.49764,-1.98786c0.54649,-4.53405 1.84163,-8.97952 2.31772,-13.50402c0.16811,-1.59761 -0.1559,-3.18009 0.67498,-4.71767c3.79356,-7.02019 12.41818,-8.1699 18.85015,-6.42011c0.64703,0.17603 1.15359,0.72879 1.80205,0.89961c1.51872,0.40006 2.01429,4.37212 -1.03151,3.5697z" fill="none" stroke="#31363c"/><path d="M339.73803,169.15686c-0.64847,-0.17084 -1.15767,-0.71439 -1.80205,-0.89961c-4.77272,-1.37182 -11.75676,-0.84274 -14.75013,4.40997c-0.72257,1.26795 -0.49045,4.77656 -0.74182,6.12749c-0.67714,3.63922 -1.44217,7.1591 -1.88224,10.83312c0,0 -0.22093,1.83863 -1.9395,1.68939c-1.71857,-0.14924 -1.49764,-1.98786 -1.49764,-1.98786c0.54649,-4.53405 1.84163,-8.97952 2.31772,-13.50402c0.16811,-1.59761 -0.1559,-3.18009 0.67498,-4.71767c3.79356,-7.02019 12.41818,-8.1699 18.85015,-6.42011c0.64703,0.17603 1.15359,0.72879 1.80205,0.89961c1.51872,0.40006 2.01429,4.37212 -1.03151,3.5697z" fill="none" stroke="#31363c"/><path d="M339.73803,169.15686c-0.64847,-0.17084 -1.15767,-0.71439 -1.80205,-0.89961c-4.77272,-1.37182 -11.75676,-0.84274 -14.75013,4.40997c-0.72257,1.26795 -0.49045,4.77656 -0.74182,6.12749c-0.67714,3.63922 -1.44217,7.1591 -1.88224,10.83312c0,0 -0.22093,1.83863 -1.9395,1.68939c-1.71857,-0.14924 -1.49764,-1.98786 -1.49764,-1.98786c0.54649,-4.53405 1.84163,-8.97952 2.31772,-13.50402c0.16811,-1.59761 -0.1559,-3.18009 0.67498,-4.71767c3.79356,-7.02019 12.41818,-8.1699 18.85015,-6.42011c0.64703,0.17603 1.15359,0.72879 1.80205,0.89961c1.51872,0.40006 2.01429,4.37212 -1.03151,3.5697z" fill="none" stroke="#31363c"/><path d="M339.73803,169.15686c-0.64847,-0.17084 -1.15767,-0.71439 -1.80205,-0.89961c-4.77272,-1.37182 -11.75676,-0.84274 -14.75013,4.40997c-0.72257,1.26795 -0.49045,4.77656 -0.74182,6.12749c-0.67714,3.63922 -1.44217,7.1591 -1.88224,10.83312c0,0 -0.22093,1.83863 -1.9395,1.68939c-1.71857,-0.14924 -1.49764,-1.98786 -1.49764,-1.98786c0.54649,-4.53405 1.84163,-8.97952 2.31772,-13.50402c0.16811,-1.59761 -0.1559,-3.18009 0.67498,-4.71767c3.79356,-7.02019 12.41818,-8.1699 18.85015,-6.42011c0.64703,0.17603 1.15359,0.72879 1.80205,0.89961c1.51872,0.40006 2.01429,4.37212 -1.03151,3.5697z" fill="none" stroke="#31363c"/><path d="M339.73803,169.15686c-0.64847,-0.17084 -1.15767,-0.71439 -1.80205,-0.89961c-4.77272,-1.37182 -11.75676,-0.84274 -14.75013,4.40997c-0.72257,1.26795 -0.49045,4.77656 -0.74182,6.12749c-0.67714,3.63922 -1.44217,7.1591 -1.88224,10.83312c0,0 -0.22093,1.83863 -1.9395,1.68939c-1.71857,-0.14924 -1.49764,-1.98786 -1.49764,-1.98786c0.54649,-4.53405 1.84163,-8.97952 2.31772,-13.50402c0.16811,-1.59761 -0.1559,-3.18009 0.67498,-4.71767c3.79356,-7.02019 12.41818,-8.1699 18.85015,-6.42011c0.64703,0.17603 1.15359,0.72879 1.80205,0.89961c1.51872,0.40006 2.01429,4.37212 -1.03151,3.5697z" fill="none" stroke="#31363c"/><path d="M339.73803,169.15686c-0.64847,-0.17084 -1.15767,-0.71439 -1.80205,-0.89961c-4.77272,-1.37182 -11.75676,-0.84274 -14.75013,4.40997c-0.72257,1.26795 -0.49045,4.77656 -0.74182,6.12749c-0.67714,3.63922 -1.44217,7.1591 -1.88224,10.83312c0,0 -0.22093,1.83863 -1.9395,1.68939c-1.71857,-0.14924 -1.49764,-1.98786 -1.49764,-1.98786c0.54649,-4.53405 1.84163,-8.97952 2.31772,-13.50402c0.16811,-1.59761 -0.1559,-3.18009 0.67498,-4.71767c3.79356,-7.02019 12.41818,-8.1699 18.85015,-6.42011c0.64703,0.17603 1.15359,0.72879 1.80205,0.89961c1.51872,0.40006 2.01429,4.37212 -1.03151,3.5697z" fill="none" stroke="#31363c"/><path d="M305.04036,204.46528v-27.80423h21.85766v27.80423z" fill="#ff0000" stroke="#cb0000"/><path d="M305.04036,204.46528v-27.80423h21.85766v27.80423z" fill="#ff0000" stroke="#cb0000"/><path d="M305.04036,204.46528v-27.80423h21.85766v27.80423z" fill="#ff0000" stroke="#cb0000"/><path d="M305.04036,204.46528v-27.80423h21.85766v27.80423z" fill="#ff0000" stroke="#cb0000"/><path d="M305.04036,204.46528v-27.80423h21.85766v27.80423z" fill="#ff0000" stroke="#cb0000"/><path d="M305.04036,204.46528v-27.80423h21.85766v27.80423z" fill="#ff0000" stroke="#cb0000"/><path d="M305.04036,204.46528v-27.80423h21.85766v27.80423z" fill="#ff0000" stroke="#cb0000"/><path d="M305.04036,204.46528v-27.80423h21.85766v27.80423z" fill="#ff0000" stroke="#cb0000"/><path d="M305.04036,204.46528v-27.80423h21.85766v27.80423z" fill="#ff0000" stroke="#cb0000"/><path d="M305.04036,204.46528v-27.80423h21.85766v27.80423z" fill="#ff0000" stroke="#cb0000"/><path d="M305.04036,204.46528v-27.80423h21.85766v27.80423z" fill="#ff0000" stroke="#cb0000"/><path d="M305.04036,204.46528v-27.80423h21.85766v27.80423z" fill="#ff0000" stroke="#cb0000"/></g></g></svg>