<svg version="1.1" xmlns="http://www.w3.org/2000/svg" xmlns:xlink="http://www.w3.org/1999/xlink" width="272.23731" height="121.39579" viewBox="0,0,272.23731,121.39579"><g transform="translate(-183.68334,-104.6655)"><g data-paper-data="{&quot;isPaintingLayer&quot;:true}" stroke="none" stroke-width="1" stroke-linecap="butt" stroke-linejoin="miter" stroke-miterlimit="10" stroke-dasharray="" stroke-dashoffset="0" style="mix-blend-mode: normal"><path d="M262.88217,189.3354l-6.51469,0.7981l-15.85487,-1.80648l-13.41063,-3.83383l-15.34238,-7.01824l-17.26758,-8.52652l-1.60294,-5.31839l0.99642,-11.9332l3.42726,-11.44665l8.97704,-16.15401l6.28004,-10.01456l7.65272,-6.48166l4.89853,-2.93446l28.42116,17.49135l13.8833,10.19898l7.58551,8.75095l3.90427,6.29305l3.71396,10.28319l1.72702,10.02475l-2.82426,7.97368l-4.94164,6.40062l-6.84403,4.62033l-6.86422,2.63299" fill="#504a59" fill-rule="evenodd"/><path d="M183.68334,204.85964l1.6,-14.369l6.4,-1.596l9.1,-2.495l11.5,-2.195l6.825,0.399l7.475,-0.698l9.9,0.798l10.547,3.193l7.253,5.289l0.6,4.689l-0.6,8.082l-3.6,-1.995l-4.807,-3.293l-5.293,-2.195l-5.9,-0.699l-6.16,-0.997h-3.14l-9.7,-0.399l-4,0.399l-4.027,0.408l-4.773,0.689l-5.8,1.098l-3.9,1.097l-5.1,2.096l-4.4,2.694" fill="#3c3651" fill-rule="evenodd"/><path d="M455.85088,189.01178l0.06977,4.1357l-2.66021,6.4759l-4.80879,4.51113c0,0 -6.09671,1.71179 -6.4489,1.78225c-0.35257,0.07139 -11.10308,-1.85719 -11.10308,-1.85719l-7.70941,-3.81557l-9.11087,-6.44641l-12.08718,-12.85716l-8.75604,-11.8131l-2.02179,-3.96567l1.72171,0.27482l6.82986,4.64346l8.89355,4.08578l7.34065,1.82624l4.13144,-1.65423l2.35615,-2.05916l12.99789,6.96097l7.68792,4.13106l8.67148,4.10266z" fill="#6c1f1b" fill-rule="evenodd"/><path d="M324.30129,176.52082l14.11806,-2.44433l10.80803,-2.07337l8.37341,-1.52328l1.88001,2.38613l3.78241,2.92737l5.32627,1.36563l6.02988,0.14132l5.39688,-1.44894l-7.83337,7.38369l-13.42244,8.88421l-10.99305,5.22929l-11.46079,0.79905l-7.05278,-3.18002l-4.62182,-5.9035l-1.19381,-6.5215l0.86311,-6.02175" fill="#6c1f1b" fill-rule="evenodd"/><path d="M306.90038,151.88527l-8.317,-0.998l-3.989,-3.791l-1.061,-4.391v-5.787l2.123,-5.089l5.527,-4.69l5,-1.896l8.4,1.497l4.9,4.191l1.2,7.633l-1.2,5.239l-3.6,4.088l-5,2.797l-3.983,1.197" fill="#6c1f1b" fill-rule="evenodd"/><path d="M378.68404,160.11297c-0.85,-0.111 -1.656,-0.403 -2.518,-0.521c-1.182,-0.162 -2.13,-0.974 -2.95,-1.834c-0.392,-0.413 -0.622,-0.975 -0.994,-1.411c-0.359,-0.421 -0.584,-0.853 -0.705,-1.404c-0.225,-1.029 -0.592,-2.027 -0.841,-3.052c-0.263,-1.085 -0.516,-2.178 -0.665,-3.282c-0.165,-1.231 0.242,-2.485 -0.069,-3.723c-0.015,-0.059 -0.015,-0.132 0.005,-0.189c0.452,-1.289 0.754,-2.633 1.652,-3.739c0.581,-0.716 1.094,-1.495 1.576,-2.283c0.854,-1.394 2.079,-2.429 3.303,-3.458c0.98,-0.824 2.231,-1.211 3.281,-1.972c1.464,-1.061 3.325,-1.194 5.048,-1.618c0.146,-0.035 0.317,0.023 0.476,0.045c1.079,0.148 2.155,0.378 3.239,0.425c1.125,0.05 2.126,0.452 3.116,0.873c0.918,0.392 1.774,0.933 2.654,1.416c1.529,0.839 2.76,2.038 3.582,3.535c0.82,1.496 1.27,3.161 1.288,4.899c0.011,0.997 -0.078,1.999 0.006,2.989c0.069,0.812 0.044,1.582 -0.139,2.38c-0.364,1.6 -0.844,3.134 -1.637,4.593c-0.406,0.745 -0.803,1.453 -1.419,2.031c-1.006,0.943 -2.082,1.797 -3.169,2.648c-1.557,1.218 -3.342,1.91 -5.18,2.428c-1.47,0.415 -3.03,0.51 -4.634,0.76c-1.391,-0.173 -2.849,-0.345 -4.306,-0.536zM397.13905,141.54497c-0.078,-0.821 -0.328,-1.558 -0.881,-2.18c-0.021,-0.025 -0.059,-0.044 -0.064,-0.071c-0.267,-1.28 -1.385,-1.772 -2.313,-2.396c-0.999,-0.671 -2.043,-1.303 -3.137,-1.801c-1.477,-0.673 -3.012,-1.205 -4.701,-1.06c-0.593,0.051 -1.202,-0.113 -1.804,-0.126c-0.305,-0.006 -0.615,0.092 -0.915,0.172c-0.217,0.057 -0.415,0.212 -0.631,0.236c-1.763,0.197 -3.168,1.155 -4.56,2.13c-0.887,0.622 -1.799,1.224 -2.602,1.944c-0.682,0.611 -1.32,1.319 -1.801,2.093c-0.673,1.084 -1.236,2.245 -1.747,3.417c-0.426,0.976 -0.467,2.013 -0.323,3.097c0.134,1.006 0.159,2.023 0.43,3.014c0.278,1.011 0.502,2.036 0.757,3.053c0.07,0.278 0.186,0.544 0.248,0.823c0.412,1.851 1.714,2.834 3.373,3.48c0.325,0.127 0.638,0.285 0.958,0.426c0.114,0.051 0.234,0.143 0.346,0.136c1.868,-0.112 3.684,0.357 5.531,0.465c0.472,0.027 0.96,-0.069 1.429,-0.162c1.063,-0.209 2.11,-0.518 3.18,-0.662c0.988,-0.134 1.796,-0.637 2.668,-1.02c1.306,-0.574 2.381,-1.453 3.368,-2.46c0.174,-0.178 0.444,-0.258 0.648,-0.412c1.127,-0.851 1.703,-2.121 2.096,-3.364c0.571,-1.798 1,-3.676 0.818,-5.624c-0.126,-1.049 -0.271,-2.096 -0.371,-3.148z" fill="#12193b" fill-rule="nonzero"/><path d="M335.21738,143.56363c0.346,0.077 0.686,0.204 1.035,0.237c1.156,0.106 2.062,0.668 2.838,1.48c0.284,0.297 0.543,0.617 0.819,0.922c1.133,1.252 1.619,2.751 1.615,4.407c-0.004,1.568 -0.452,3.043 -1.145,4.44c-0.661,1.332 -1.454,2.569 -2.717,3.43c-0.636,0.434 -1.254,0.893 -1.907,1.298c-1.588,0.986 -3.304,1.54 -5.196,1.434c-0.22,-0.012 -0.444,-0.057 -0.656,-0.118c-0.707,-0.202 -1.387,-0.496 -2.153,-0.464c-0.232,0.009 -0.476,-0.17 -0.706,-0.281c-0.29,-0.138 -0.556,-0.344 -0.859,-0.436c-0.761,-0.232 -1.228,-0.753 -1.595,-1.422c-0.698,-1.272 -1.127,-2.609 -1.372,-4.051c-0.302,-1.774 -0.138,-3.437 0.303,-5.178c0.418,-1.651 1.707,-2.529 2.71,-3.627c0.689,-0.754 1.677,-1.376 2.813,-1.524c0.156,-0.02 0.309,-0.099 0.45,-0.174c1.113,-0.594 2.329,-0.682 3.869,-0.778c0.427,0.094 1.141,0.248 1.854,0.405zM338.33238,147.43863c-1.089,-1.028 -2.358,-1.424 -3.754,-1.709c-0.812,-0.165 -1.592,-0.443 -2.438,-0.328c-0.123,0.016 -0.265,-0.059 -0.379,-0.026c-0.976,0.284 -1.992,0.486 -2.912,0.899c-1.689,0.758 -3.067,1.908 -3.743,3.706c-0.478,1.274 -0.61,2.59 -0.37,3.941c0.237,1.335 0.68,2.566 1.613,3.591c0.455,0.501 0.999,0.821 1.666,0.846c0.399,0.016 0.723,0.146 1.088,0.276c0.559,0.201 1.194,0.197 1.797,0.278c1.472,0.197 2.781,-0.316 4.035,-0.984c0.731,-0.39 1.468,-0.805 2.101,-1.33c0.53,-0.441 0.959,-1.028 1.345,-1.609c0.458,-0.687 0.934,-1.399 1.195,-2.171c0.228,-0.677 0.168,-1.451 0.244,-2.273c-0.126,-1.146 -0.526,-2.198 -1.488,-3.107z" fill="#17204b" fill-rule="nonzero"/><g fill-rule="evenodd"><path d="M195.92501,181.56129l-4.425,-2.621l-3.3,-3.964l-2.175,-7.035l-0.525,-9.804l2.85,-13.62l4.575,-13.247l3.425,-8.606l3.5,-7.484l0.6,-2.544l0.725,-0.524l0.875,2.02l6.025,14.145l5.1,13.246l2.25,11.001l2.025,9.404l-0.9,8.782l-4.425,6.886l-4.375,3.442l-1.625,0.523h-8.775h-1.425" fill="#f7ec1e"/><path d="M197.75005,169.46227l-1.9,-1.048l-1.1,-3.069v-5.612l2.1,-9.505l3.1,-9.879h1.025l3.975,12.498l1.8,10.678l-0.975,4.14l-1.725,1.797l-5.175,0.598l-1.125,-0.598" fill="#fbf5a8"/><g><path d="M225.92501,181.56129l-4.425,-2.621l-3.3,-3.964l-2.175,-7.035l-0.525,-9.804l2.85,-13.62l4.575,-13.247l3.425,-8.606l3.5,-7.484l0.6,-2.544l0.725,-0.524l0.875,2.02l6.025,14.145l5.1,13.246l2.25,11.001l2.025,9.404l-0.9,8.782l-4.425,6.886l-4.375,3.442l-1.625,0.523h-8.775h-1.425" fill="#f7ec1e"/><path d="M228.25004,169.96227l-1.9,-1.048l-1.1,-3.069v-5.612l2.1,-9.505l3.1,-9.879h1.025l3.975,12.498l1.8,10.678l-0.975,4.14l-1.725,1.797l-5.175,0.598l-1.125,-0.598" fill="#fbf5a8"/></g><path d="M195.42501,226.06129l-4.425,-2.621l-3.3,-3.964l-2.175,-7.035l-0.525,-9.804l2.85,-13.62l4.575,-13.247l3.425,-8.606l3.5,-7.484l0.6,-2.544l0.725,-0.524l0.875,2.02l6.025,14.145l5.1,13.246l2.25,11.001l2.025,9.404l-0.9,8.782l-4.425,6.886l-4.375,3.442l-1.625,0.523h-8.775h-1.425" fill="#f7ec1e"/><path d="M197.75005,214.46227l-1.9,-1.048l-1.1,-3.069v-5.612l2.1,-9.505l3.1,-9.879h1.025l3.975,12.498l1.8,10.678l-0.975,4.14l-1.725,1.797l-5.175,0.598l-1.125,-0.598" fill="#fbf5a8"/><g><path d="M225.42501,226.06129l-4.425,-2.621l-3.3,-3.964l-2.175,-7.035l-0.525,-9.804l2.85,-13.62l4.575,-13.247l3.425,-8.606l3.5,-7.484l0.6,-2.544l0.725,-0.524l0.875,2.02l6.025,14.145l5.1,13.246l2.25,11.001l2.025,9.404l-0.9,8.782l-4.425,6.886l-4.375,3.442l-1.625,0.523h-8.775h-1.425" fill="#f7ec1e"/><path d="M227.75004,214.46227l-1.9,-1.048l-1.1,-3.069v-5.612l2.1,-9.505l3.1,-9.879h1.025l3.975,12.498l1.8,10.678l-0.975,4.14l-1.725,1.797l-5.175,0.598l-1.125,-0.598" fill="#fbf5a8"/></g><path d="M255.42501,181.06129l-4.425,-2.621l-3.3,-3.964l-2.175,-7.035l-0.525,-9.804l2.85,-13.62l4.575,-13.247l3.425,-8.606l3.5,-7.484l0.6,-2.544l0.725,-0.524l0.875,2.02l6.025,14.145l5.1,13.246l2.25,11.001l2.025,9.404l-0.9,8.782l-4.425,6.886l-4.375,3.442l-1.625,0.523h-8.775h-1.425" fill="#f7ec1e"/><path d="M257.75005,169.46227l-1.9,-1.048l-1.1,-3.069v-5.612l2.1,-9.505l3.1,-9.879h1.025l3.975,12.498l1.8,10.678l-0.975,4.14l-1.725,1.797l-5.175,0.598l-1.125,-0.598" fill="#fbf5a8"/><g><path d="M285.42503,181.06129l-4.425,-2.621l-3.3,-3.964l-2.175,-7.035l-0.525,-9.804l2.85,-13.62l4.575,-13.247l3.425,-8.606l3.5,-7.484l0.6,-2.544l0.725,-0.524l0.875,2.02l6.025,14.145l5.1,13.246l2.25,11.001l2.025,9.404l-0.9,8.782l-4.425,6.886l-4.375,3.442l-1.625,0.523h-8.775h-1.425" fill="#f7ec1e"/><path d="M287.75004,169.46227l-1.9,-1.048l-1.1,-3.069v-5.612l2.1,-9.505l3.1,-9.879h1.025l3.975,12.498l1.8,10.678l-0.975,4.14l-1.725,1.797l-5.175,0.598l-1.125,-0.598" fill="#fbf5a8"/></g><path d="M255.42501,226.06129l-4.425,-2.621l-3.3,-3.964l-2.175,-7.035l-0.525,-9.804l2.85,-13.62l4.575,-13.247l3.425,-8.606l3.5,-7.484l0.6,-2.544l0.725,-0.524l0.875,2.02l6.025,14.145l5.1,13.246l2.25,11.001l2.025,9.404l-0.9,8.782l-4.425,6.886l-4.375,3.442l-1.625,0.523h-8.775h-1.425" fill="#f7ec1e"/><path d="M257.75005,214.46227l-1.9,-1.048l-1.1,-3.069v-5.612l2.1,-9.505l3.1,-9.879h1.025l3.975,12.498l1.8,10.678l-0.975,4.14l-1.725,1.797l-5.175,0.598l-1.125,-0.598" fill="#fbf5a8"/><g><path d="M285.42503,226.06129l-4.425,-2.621l-3.3,-3.964l-2.175,-7.035l-0.525,-9.804l2.85,-13.62l4.575,-13.247l3.425,-8.606l3.5,-7.484l0.6,-2.544l0.725,-0.524l0.875,2.02l6.025,14.145l5.1,13.246l2.25,11.001l2.025,9.404l-0.9,8.782l-4.425,6.886l-4.375,3.442l-1.625,0.523h-8.775h-1.425" fill="#f7ec1e"/><path d="M287.75004,214.46227l-1.9,-1.048l-1.1,-3.069v-5.612l2.1,-9.505l3.1,-9.879h1.025l3.975,12.498l1.8,10.678l-0.975,4.14l-1.725,1.797l-5.175,0.598l-1.125,-0.598" fill="#fbf5a8"/></g><path d="M315.42503,181.06129l-4.425,-2.621l-3.3,-3.964l-2.175,-7.035l-0.525,-9.804l2.85,-13.62l4.575,-13.247l3.425,-8.606l3.5,-7.484l0.6,-2.544l0.725,-0.524l0.875,2.02l6.025,14.145l5.1,13.246l2.25,11.001l2.025,9.404l-0.9,8.782l-4.425,6.886l-4.375,3.442l-1.625,0.523h-8.775h-1.425" fill="#f7ec1e"/><path d="M317.75005,169.46227l-1.9,-1.048l-1.1,-3.069v-5.612l2.1,-9.505l3.1,-9.879h1.025l3.975,12.498l1.8,10.678l-0.975,4.14l-1.725,1.797l-5.175,0.598l-1.125,-0.598" fill="#fbf5a8"/><g><path d="M345.42503,181.06129l-4.425,-2.621l-3.3,-3.964l-2.175,-7.035l-0.525,-9.804l2.85,-13.62l4.575,-13.247l3.425,-8.606l3.5,-7.484l0.6,-2.544l0.725,-0.524l0.875,2.02l6.025,14.145l5.1,13.246l2.25,11.001l2.025,9.404l-0.9,8.782l-4.425,6.886l-4.375,3.442l-1.625,0.523h-8.775h-1.425" fill="#f7ec1e"/><path d="M347.75004,169.46227l-1.9,-1.048l-1.1,-3.069v-5.612l2.1,-9.505l3.1,-9.879h1.025l3.975,12.498l1.8,10.678l-0.975,4.14l-1.725,1.797l-5.175,0.598l-1.125,-0.598" fill="#fbf5a8"/></g><path d="M315.42503,226.06129l-4.425,-2.621l-3.3,-3.964l-2.175,-7.035l-0.525,-9.804l2.85,-13.62l4.575,-13.247l3.425,-8.606l3.5,-7.484l0.6,-2.544l0.725,-0.524l0.875,2.02l6.025,14.145l5.1,13.246l2.25,11.001l2.025,9.404l-0.9,8.782l-4.425,6.886l-4.375,3.442l-1.625,0.523h-8.775h-1.425" fill="#f7ec1e"/><path d="M317.75005,214.46227l-1.9,-1.048l-1.1,-3.069v-5.612l2.1,-9.505l3.1,-9.879h1.025l3.975,12.498l1.8,10.678l-0.975,4.14l-1.725,1.797l-5.175,0.598l-1.125,-0.598" fill="#fbf5a8"/><g><path d="M345.42503,226.06129l-4.425,-2.621l-3.3,-3.964l-2.175,-7.035l-0.525,-9.804l2.85,-13.62l4.575,-13.247l3.425,-8.606l3.5,-7.484l0.6,-2.544l0.725,-0.524l0.875,2.02l6.025,14.145l5.1,13.246l2.25,11.001l2.025,9.404l-0.9,8.782l-4.425,6.886l-4.375,3.442l-1.625,0.523h-8.775h-1.425" fill="#f7ec1e"/><path d="M347.75004,214.46227l-1.9,-1.048l-1.1,-3.069v-5.612l2.1,-9.505l3.1,-9.879h1.025l3.975,12.498l1.8,10.678l-0.975,4.14l-1.725,1.797l-5.175,0.598l-1.125,-0.598" fill="#fbf5a8"/></g><path d="M375.42504,181.06129l-4.425,-2.621l-3.3,-3.964l-2.175,-7.035l-0.525,-9.804l2.85,-13.62l4.575,-13.247l3.425,-8.606l3.5,-7.484l0.6,-2.544l0.725,-0.524l0.875,2.02l6.025,14.145l5.1,13.246l2.25,11.001l2.025,9.404l-0.9,8.782l-4.425,6.886l-4.375,3.442l-1.625,0.523h-8.775h-1.425" fill="#f7ec1e"/><path d="M377.75005,169.46227l-1.9,-1.048l-1.1,-3.069v-5.612l2.1,-9.505l3.1,-9.879h1.025l3.975,12.498l1.8,10.678l-0.975,4.14l-1.725,1.797l-5.175,0.598l-1.125,-0.598" fill="#fbf5a8"/><g><path d="M405.42503,181.06129l-4.425,-2.621l-3.3,-3.964l-2.175,-7.035l-0.525,-9.804l2.85,-13.62l4.575,-13.247l3.425,-8.606l3.5,-7.484l0.6,-2.544l0.725,-0.524l0.875,2.02l6.025,14.145l5.1,13.246l2.25,11.001l2.025,9.404l-0.9,8.782l-4.425,6.886l-4.375,3.442l-1.625,0.523h-8.775h-1.425" fill="#f7ec1e"/><path d="M407.75004,169.46227l-1.9,-1.048l-1.1,-3.069v-5.612l2.1,-9.505l3.1,-9.879h1.025l3.975,12.498l1.8,10.678l-0.975,4.14l-1.725,1.797l-5.175,0.598l-1.125,-0.598" fill="#fbf5a8"/></g><path d="M375.42504,226.06129l-4.425,-2.621l-3.3,-3.964l-2.175,-7.035l-0.525,-9.804l2.85,-13.62l4.575,-13.247l3.425,-8.606l3.5,-7.484l0.6,-2.544l0.725,-0.524l0.875,2.02l6.025,14.145l5.1,13.246l2.25,11.001l2.025,9.404l-0.9,8.782l-4.425,6.886l-4.375,3.442l-1.625,0.523h-8.775h-1.425" fill="#f7ec1e"/><path d="M377.75005,214.46227l-1.9,-1.048l-1.1,-3.069v-5.612l2.1,-9.505l3.1,-9.879h1.025l3.975,12.498l1.8,10.678l-0.975,4.14l-1.725,1.797l-5.175,0.598l-1.125,-0.598" fill="#fbf5a8"/><g><path d="M405.42503,226.06129l-4.425,-2.621l-3.3,-3.964l-2.175,-7.035l-0.525,-9.804l2.85,-13.62l4.575,-13.247l3.425,-8.606l3.5,-7.484l0.6,-2.544l0.725,-0.524l0.875,2.02l6.025,14.145l5.1,13.246l2.25,11.001l2.025,9.404l-0.9,8.782l-4.425,6.886l-4.375,3.442l-1.625,0.523h-8.775h-1.425" fill="#f7ec1e"/><path d="M407.75004,214.46227l-1.9,-1.048l-1.1,-3.069v-5.612l2.1,-9.505l3.1,-9.879h1.025l3.975,12.498l1.8,10.678l-0.975,4.14l-1.725,1.797l-5.175,0.598l-1.125,-0.598" fill="#fbf5a8"/></g></g></g></g></svg>